<svg width="64" height="64" viewBox="0 0 64 64" fill="none" xmlns="http://www.w3.org/2000/svg">
<g filter="url(#filter0_d_327_435)">
<rect x="8" y="6" width="48" height="48" rx="24" fill="#0C0C27"/>
<mask id="mask0_327_435" style="mask-type:alpha" maskUnits="userSpaceOnUse" x="20" y="18" width="24" height="24">
<rect x="20" y="18" width="24" height="24" fill="#D9D9D9"/>
</mask>
<g mask="url(#mask0_327_435)">
<path d="M30.4545 31.2727H23.4091C23.0098 31.2727 22.6752 31.1377 22.4051 30.8676C22.135 30.5975 22 30.2629 22 29.8636C22 29.4644 22.135 29.1297 22.4051 28.8597C22.6752 28.5896 23.0098 28.4545 23.4091 28.4545H30.4545V21.4091C30.4545 21.0098 30.5896 20.6752 30.8597 20.4051C31.1297 20.135 31.4644 20 31.8636 20C32.2629 20 32.5975 20.135 32.8676 20.4051C33.1377 20.6752 33.2727 21.0098 33.2727 21.4091V28.4545H40.3182C40.7174 28.4545 41.0521 28.5896 41.3222 28.8597C41.5922 29.1297 41.7273 29.4644 41.7273 29.8636C41.7273 30.2629 41.5922 30.5975 41.3222 30.8676C41.0521 31.1377 40.7174 31.2727 40.3182 31.2727H33.2727V38.3182C33.2727 38.7174 33.1377 39.0521 32.8676 39.3222C32.5975 39.5922 32.2629 39.7273 31.8636 39.7273C31.4644 39.7273 31.1297 39.5922 30.8597 39.3222C30.5896 39.0521 30.4545 38.7174 30.4545 38.3182V31.2727Z" fill="white"/>
</g>
</g>
<defs>
<filter id="filter0_d_327_435" x="0" y="0" width="64" height="64" filterUnits="userSpaceOnUse" color-interpolation-filters="sRGB">
<feFlood flood-opacity="0" result="BackgroundImageFix"/>
<feColorMatrix in="SourceAlpha" type="matrix" values="0 0 0 0 0 0 0 0 0 0 0 0 0 0 0 0 0 0 127 0" result="hardAlpha"/>
<feOffset dy="2"/>
<feGaussianBlur stdDeviation="4"/>
<feComposite in2="hardAlpha" operator="out"/>
<feColorMatrix type="matrix" values="0 0 0 0 0 0 0 0 0 0 0 0 0 0 0 0 0 0 0.1 0"/>
<feBlend mode="normal" in2="BackgroundImageFix" result="effect1_dropShadow_327_435"/>
<feBlend mode="normal" in="SourceGraphic" in2="effect1_dropShadow_327_435" result="shape"/>
</filter>
</defs>
</svg>
