<svg width="90" height="90" viewBox="0 0 90 90" fill="none" xmlns="http://www.w3.org/2000/svg">
<rect width="90" height="90" rx="45" fill="#F58529"/>
<mask id="mask0_385_619" style="mask-type:alpha" maskUnits="userSpaceOnUse" x="30" y="30" width="30" height="30">
<rect x="30" y="30" width="30" height="30" fill="#D9D9D9"/>
</mask>
<g mask="url(#mask0_385_619)">
<path d="M43.5682 47.0909H34.7614C34.2623 47.0909 33.844 46.9221 33.5064 46.5845C33.1688 46.2469 33 45.8286 33 45.3295C33 44.8305 33.1688 44.4122 33.5064 44.0746C33.844 43.737 34.2623 43.5682 34.7614 43.5682H43.5682V34.7614C43.5682 34.2623 43.737 33.844 44.0746 33.5064C44.4122 33.1688 44.8305 33 45.3295 33C45.8286 33 46.2469 33.1688 46.5845 33.5064C46.9221 33.844 47.0909 34.2623 47.0909 34.7614V43.5682H55.8977C56.3968 43.5682 56.8151 43.737 57.1527 44.0746C57.4903 44.4122 57.6591 44.8305 57.6591 45.3295C57.6591 45.8286 57.4903 46.2469 57.1527 46.5845C56.8151 46.9221 56.3968 47.0909 55.8977 47.0909H47.0909V55.8977C47.0909 56.3968 46.9221 56.8151 46.5845 57.1527C46.2469 57.4903 45.8286 57.6591 45.3295 57.6591C44.8305 57.6591 44.4122 57.4903 44.0746 57.1527C43.737 56.8151 43.5682 56.3968 43.5682 55.8977V47.0909Z" fill="white"/>
</g>
</svg>
