<svg width="113" height="121" viewBox="0 0 113 121" fill="none" xmlns="http://www.w3.org/2000/svg">
<path style="mix-blend-mode:multiply" d="M81.6 109.414C98.6358 109.414 112.446 102.205 112.446 93.3126C112.446 84.4199 98.6358 77.2109 81.6 77.2109C64.5642 77.2109 50.7539 84.4199 50.7539 93.3126C50.7539 102.205 64.5642 109.414 81.6 109.414Z" fill="url(#paint0_radial_414_1880)"/>
<path d="M66.3579 15.0896C56.7789 9.56291 48.0494 8.72317 41.5072 11.8283L36.2441 14.865C42.7766 11.8283 51.4475 12.6973 60.9679 18.185C81.2878 29.9024 97.7605 58.3366 97.7605 81.6543C97.7605 92.9713 93.8547 101.008 87.5664 104.943L91.0914 102.882C98.5026 99.4354 103.151 90.9794 103.151 78.5882C103.151 55.2413 86.6778 26.8266 66.3579 15.0896Z" fill="#0C0C27"/>
<path d="M60.9675 18.1557C40.6475 6.43834 24.1748 15.822 24.1748 39.1397C24.1748 62.4573 40.6475 90.8915 60.9675 102.609C81.2874 114.326 97.7601 104.952 97.7601 81.6348C97.7601 58.3172 81.2874 29.8927 60.9675 18.1557Z" fill="url(#paint1_linear_414_1880)"/>
<path d="M61.5146 17.853C51.2032 11.8967 41.8977 11.3889 35.209 15.363C41.8488 11.7307 50.9396 12.3751 60.9678 18.1557C81.2877 29.8731 97.7604 58.3073 97.7604 81.625C97.7604 93.1178 93.757 101.222 87.2636 105.06C94.0987 101.33 98.3072 93.0983 98.3072 81.2832C98.3072 57.9949 81.8345 29.5802 61.5146 17.853Z" fill="white"/>
<path d="M87.1461 105.172C101.425 96.8245 101.278 70.0057 86.8181 45.2704C72.3581 20.535 49.0607 7.24975 34.7818 15.597C20.503 23.9442 20.6499 50.7629 35.1098 75.4983C49.5698 100.234 72.8672 113.519 87.1461 105.172Z" fill="#F58529"/>
<path d="M85.7266 102.745C99.2326 94.8491 99.0946 69.4836 85.4185 46.089C71.7423 22.6945 49.7068 10.1299 36.2009 18.0254C22.6949 25.9208 22.8328 51.2863 36.509 74.6809C50.1851 98.0754 72.2206 110.64 85.7266 102.745Z" fill="white"/>
<path d="M82.1591 96.6411C93.719 89.8833 93.6009 68.1725 81.8952 48.1486C70.1895 28.1247 51.3289 17.3704 39.769 24.1282C28.2091 30.886 28.3272 52.5968 40.0329 72.6207C51.7386 92.6446 70.5992 103.399 82.1591 96.6411Z" fill="#AFB6E5"/>
<path d="M78.1425 89.7714C87.5096 84.2955 87.412 66.6998 77.9244 50.4702C68.4368 34.2407 53.152 25.5232 43.7849 30.9991C34.4178 36.475 34.5154 54.0707 44.003 70.3002C53.4906 86.5298 68.7753 95.2473 78.1425 89.7714Z" fill="white"/>
<path d="M74.3482 83.2803C81.6483 79.0128 81.5738 65.3028 74.1818 52.6581C66.7899 40.0134 54.8797 33.2223 47.5797 37.4898C40.2797 41.7573 40.3542 55.4674 47.7461 68.1121C55.138 80.7568 67.0482 87.5478 74.3482 83.2803Z" fill="#AFB6E5"/>
<path d="M70.7802 77.1768C76.1342 74.047 76.0795 63.9916 70.658 54.7176C65.2366 45.4436 56.5013 40.4628 51.1474 43.5926C45.7934 46.7225 45.8481 56.7778 51.2696 66.0519C56.691 75.3259 65.4263 80.3067 70.7802 77.1768Z" fill="white"/>
<path d="M61.5047 99.9818C42.2882 88.8893 26.704 62.0077 26.704 39.9496C26.704 29.4235 30.2583 21.8951 36.0584 18.1162C29.9361 21.7779 26.167 29.4333 26.167 40.2914C26.167 62.3396 41.7902 89.2213 60.9677 100.314C71.0154 106.114 80.0573 106.456 86.414 102.316C80.0963 106.094 71.2692 105.616 61.5047 99.9818Z" fill="#AFB6E5"/>
<path d="M61.5045 87.7464C48.1759 80.052 37.3666 61.3822 37.3666 46.1106C37.3666 38.7774 39.8468 33.5436 43.8991 30.9365C39.5344 33.4265 36.8296 38.7481 36.8296 46.4425C36.8296 61.7435 47.6389 80.384 60.9674 88.0882C67.91 92.0916 74.1691 92.3357 78.5436 89.4942C74.1983 92.0037 68.1737 91.5936 61.5045 87.7464Z" fill="#CED3F4"/>
<path d="M61.5047 75.8732C53.8884 71.4792 47.7075 60.8261 47.7075 52.0771C47.7075 48.0053 49.055 45.0662 51.2617 43.5332C48.7327 44.9491 47.1704 48.0151 47.1704 52.4189C47.1704 61.1581 53.3513 71.8112 60.9677 76.215C65.0395 78.5585 68.6914 78.6464 71.2106 76.8985C68.7207 78.3339 65.2933 78.0605 61.5047 75.8732Z" fill="#CED3F4"/>
<path d="M68.6428 64.81C68.6428 69.6922 65.2057 71.6451 60.9679 69.1943C56.7301 66.7434 53.293 60.8163 53.293 55.9536C53.293 51.0909 56.7301 49.1184 60.9679 51.5693C65.2057 54.0202 68.6428 59.9473 68.6428 64.81Z" fill="#F58529"/>
<path opacity="0.5" d="M61.7879 60.552C61.7879 60.9426 61.5145 61.089 61.1825 60.9035C61.0073 60.7884 60.8614 60.6341 60.7563 60.4527C60.6512 60.2713 60.5898 60.0679 60.5771 59.8587C60.5771 59.4779 60.8505 59.3216 61.1825 59.5169C61.3581 59.6293 61.5045 59.7817 61.6097 59.9616C61.715 60.1416 61.776 60.3439 61.7879 60.552Z" fill="url(#paint2_linear_414_1880)"/>
<path d="M60.9677 51.5691C59.0148 50.4657 57.2962 50.2607 55.9487 50.8172C57.5223 50.5407 59.1416 50.8912 60.4599 51.7937C64.6977 54.2348 68.1348 60.1716 68.1348 65.0344C68.1348 67.7001 67.0998 69.487 65.4691 70.1607C67.422 69.6725 68.6426 67.7977 68.6426 64.8586C68.6426 59.947 65.2055 54.02 60.9677 51.5691Z" fill="#F58529"/>
<path d="M5.79821 92.5505L1.77524 92.0135C1.31235 91.9468 0.886393 91.7232 0.56867 91.38C0.250948 91.0368 0.0607277 90.595 0.0298466 90.1283C-0.00103447 89.6617 0.129295 89.1986 0.399025 88.8165C0.668756 88.4345 1.06153 88.1566 1.5116 88.0296L24.0676 81.8584L5.79821 92.5505Z" fill="#F58529"/>
<path d="M5.95455 92.16L1.93156 91.6131C1.63947 91.5772 1.35874 91.478 1.10899 91.3223C0.859239 91.1667 0.646489 90.9583 0.485613 90.7119C0.324737 90.4655 0.219606 90.1869 0.177582 89.8956C0.135557 89.6043 0.157648 89.3074 0.242305 89.0255C0.0862129 89.3166 0.00309006 89.6412 8.45107e-05 89.9715C-0.00292104 90.3017 0.0742824 90.6278 0.225051 90.9216C0.37582 91.2155 0.595655 91.4684 0.865683 91.6586C1.13571 91.8487 1.44787 91.9705 1.77534 92.0135L5.79831 92.5505L24.0677 81.8584L23.0913 82.122L5.95455 92.16Z" fill="#F58529"/>
<g style="mix-blend-mode:screen" opacity="0.7">
<path d="M1.87272 91.7313L5.89571 92.2781L23.3546 82.0547L23.1008 82.123L5.95429 92.161L1.93131 91.6141C1.63921 91.5782 1.35849 91.479 1.10874 91.3233C0.858984 91.1677 0.646234 90.9593 0.485358 90.7129C0.324483 90.4665 0.219352 90.1879 0.177327 89.8966C0.135302 89.6053 0.157394 89.3084 0.24205 89.0265L0.183466 89.173C0.102066 89.4531 0.0825263 89.7474 0.126207 90.0358C0.169888 90.3241 0.275739 90.5995 0.436429 90.8428C0.597119 91.0862 0.808804 91.2917 1.05681 91.4451C1.30482 91.5985 1.58322 91.6962 1.87272 91.7313Z" fill="#836DF3"/>
</g>
<path d="M62.5395 59.6939C62.542 59.726 62.5361 59.7582 62.5224 59.7873C62.5087 59.8164 62.4877 59.8414 62.4614 59.8599C62.4614 59.8599 62.061 61.7054 57.13 64.5664C50.0898 68.6382 53.2242 66.4705 53.2242 66.4705C53.0289 66.5779 53.1461 66.3436 52.8629 66.1776C52.5648 65.9823 52.3166 65.7198 52.1386 65.4111C51.9605 65.1024 51.8574 64.7562 51.8376 64.4004C51.8376 64.0782 51.5349 64.0684 51.7204 63.961C51.7204 63.961 48.2736 65.6112 55.3235 61.5297C60.2742 58.6687 62.1001 59.235 62.1001 59.235C62.1255 59.216 62.1563 59.2057 62.188 59.2057C62.2197 59.2057 62.2505 59.216 62.2759 59.235C62.3551 59.2829 62.4208 59.3502 62.4669 59.4304C62.513 59.5107 62.538 59.6014 62.5395 59.6939Z" fill="#AFB6E5"/>
<path d="M53.7712 65.884C53.7712 66.6261 53.2439 66.9288 52.5995 66.5479C52.2582 66.3277 51.9741 66.0296 51.7704 65.6783C51.5667 65.3269 51.4493 64.9323 51.4277 64.5267C51.4277 63.7846 51.955 63.4916 52.5995 63.8627C52.9396 64.0841 53.2229 64.3824 53.4265 64.7336C53.63 65.0847 53.7481 65.4788 53.7712 65.884Z" fill="#CED3F4"/>
<path d="M53.5367 65.9139C53.5495 66.0495 53.5275 66.1861 53.4729 66.3108C53.4182 66.4355 53.3326 66.5443 53.2242 66.6267L4.5579 94.9438C4.35284 95.0609 4.48954 94.8071 4.17708 94.6313C3.85031 94.417 3.57902 94.1283 3.38552 93.7888C3.19201 93.4493 3.0818 93.0688 3.06393 92.6784C3.06393 92.3269 2.73193 92.3269 2.93698 92.2097L51.6326 63.8926C51.7593 63.8389 51.8978 63.8187 52.0347 63.8341C52.1715 63.8495 52.3021 63.8999 52.4137 63.9805C52.7403 64.1912 53.0123 64.4763 53.2075 64.8123C53.4026 65.1483 53.5154 65.5259 53.5367 65.9139Z" fill="#0C0C27"/>
<path d="M5.12448 91.0771L23.7844 80.3361L9.22557 79.1449C8.00896 79.0456 6.78974 79.3021 5.71619 79.883C4.64265 80.464 3.76106 81.3444 3.17865 82.4171C2.59625 83.4899 2.33812 84.7087 2.43568 85.9255C2.53323 87.1422 2.98227 88.3044 3.72816 89.2707L5.12448 91.0771Z" fill="#F58529"/>
<path d="M5.44674 91.0273L24.1067 80.2863L9.54783 79.0951C8.33122 78.9958 7.112 79.2523 6.03846 79.8332C4.96492 80.4142 4.08331 81.2946 3.50091 82.3673C2.9185 83.4401 2.66039 84.6589 2.75794 85.8757C2.8555 87.0924 3.30454 88.2546 4.05043 89.2208L5.44674 91.0273Z" fill="#F58529"/>
<g style="mix-blend-mode:screen" opacity="0.7">
<path d="M4.29455 89.3195C3.54866 88.3532 3.09962 87.1911 3.00207 85.9743C2.90451 84.7576 3.16262 83.5387 3.74503 82.4659C4.32744 81.3932 5.20904 80.5128 6.28258 79.9319C7.35613 79.3509 8.57534 79.0945 9.79195 79.1937L23.931 80.3557L24.0774 80.2678L9.51855 79.0765C8.30194 78.9773 7.08272 79.2337 6.00918 79.8147C4.93564 80.3956 4.05403 81.276 3.47162 82.3488C2.88921 83.4215 2.63109 84.6404 2.72865 85.8571C2.8262 87.0739 3.27524 88.2361 4.02113 89.2023L5.44675 91.0283L5.58346 90.9501L4.29455 89.3195Z" fill="#836DF3"/>
</g>
<path d="M6.30566 93.2634L6.7646 94.9136C7.03924 95.8934 7.59149 96.7728 8.35474 97.4457C9.11799 98.1186 10.0596 98.5562 11.0661 98.7059C12.0725 98.8556 13.1008 98.7109 14.0268 98.2892C14.9529 97.8675 15.7371 97.1869 16.285 96.3295L24.9656 82.6592L6.30566 93.2634Z" fill="#F58529"/>
<path d="M6.59912 93.029L7.05805 94.6792C7.33063 95.6594 7.88144 96.5395 8.64382 97.2131C9.40619 97.8868 10.3475 98.325 11.3537 98.4748C12.36 98.6246 13.3881 98.4796 14.3136 98.0572C15.2391 97.6349 16.0224 96.9534 16.5687 96.0951L25.2493 82.4248L6.59912 93.029Z" fill="#F58529"/>
<g style="mix-blend-mode:screen" opacity="0.7">
<path d="M16.7249 95.8119C16.1787 96.6702 15.3954 97.3517 14.4698 97.774C13.5443 98.1964 12.5162 98.3414 11.51 98.1916C10.5037 98.0418 9.56243 97.6036 8.80005 96.93C8.03768 96.2564 7.48687 95.3762 7.21429 94.3961L6.79442 92.9119L6.59912 93.029L7.05805 94.6792C7.33063 95.6594 7.88144 96.5395 8.64382 97.2131C9.40619 97.8868 10.3475 98.325 11.3537 98.4748C12.36 98.6246 13.3881 98.4796 14.3136 98.0572C15.2391 97.6349 16.0224 96.9534 16.5687 96.0951L25.2493 82.4248L16.7249 95.8119Z" fill="#836DF3"/>
</g>
<defs>
<radialGradient id="paint0_radial_414_1880" cx="0" cy="0" r="1" gradientUnits="userSpaceOnUse" gradientTransform="translate(78.9069 88.5174) scale(30.7824 16.1481)">
<stop offset="0.19" stop-color="#AFB6E5"/>
<stop offset="1" stop-color="white"/>
</radialGradient>
<linearGradient id="paint1_linear_414_1880" x1="25.0047" y1="30.2247" x2="98.9292" y2="30.2247" gradientUnits="userSpaceOnUse">
<stop stop-color="#311B61"/>
<stop offset="0.2" stop-color="#290F52"/>
<stop offset="0.49" stop-color="#200041"/>
<stop offset="1" stop-color="#0F001F"/>
</linearGradient>
<linearGradient id="paint2_linear_414_1880" x1="60.5771" y1="60.2102" x2="61.7879" y2="60.2102" gradientUnits="userSpaceOnUse">
<stop stop-color="#311B61"/>
<stop offset="0.2" stop-color="#290F52"/>
<stop offset="0.49" stop-color="#200041"/>
<stop offset="1" stop-color="#0F001F"/>
</linearGradient>
</defs>
</svg>
