<svg width="105" height="120" viewBox="0 0 105 120" fill="none" xmlns="http://www.w3.org/2000/svg">
<path style="mix-blend-mode:multiply" d="M71.1464 109.103C87.0157 109.103 99.8803 102.391 99.8803 94.1124C99.8803 85.8335 87.0157 79.1221 71.1464 79.1221C55.2772 79.1221 42.4126 85.8335 42.4126 94.1124C42.4126 102.391 55.2772 109.103 71.1464 109.103Z" fill="url(#paint0_radial_414_1742)"/>
<path d="M93.7666 78.6327C93.7666 55.3667 77.3354 27.0115 57.0527 15.3C47.2715 9.65668 38.3955 8.91777 31.8101 12.2613L26.1206 15.4293L28.7622 19.9735C27.4319 23.9429 26.7824 28.1087 26.841 32.2946C26.841 55.5606 43.2815 83.9158 63.5642 95.6273C67.2379 97.8324 71.2611 99.3942 75.4604 100.245L78.1574 104.864L81.9627 102.813C89.2224 99.2571 93.7666 90.8707 93.7666 78.6327Z" fill="#101032"/>
<path style="mix-blend-mode:screen" d="M78.8745 104.469C93.1251 96.1383 92.9801 69.3755 78.5507 44.6925C64.1214 20.0095 40.8717 6.75329 26.6212 15.084C12.3707 23.4146 12.5157 50.1775 26.945 74.8605C41.3744 99.5435 64.624 112.8 78.8745 104.469Z" fill="url(#paint1_radial_414_1742)"/>
<path d="M78.0562 104.916C92.3067 96.5856 92.1617 69.8227 77.7324 45.1397C63.303 20.4567 40.0534 7.20055 25.8029 15.5312C11.5523 23.8619 11.6973 50.6248 26.1267 75.3078C40.556 99.9908 63.8057 113.247 78.0562 104.916Z" fill="#F58529"/>
<path d="M74.2246 98.3615C86.3834 91.2537 86.2581 68.4166 73.9449 47.3535C61.6317 26.2903 41.7932 14.9773 29.6345 22.0852C17.4757 29.193 17.601 52.0301 29.9142 73.0932C42.2274 94.1564 62.0659 105.469 74.2246 98.3615Z" fill="white"/>
<path d="M79.302 93.5298C81.8234 89.8353 83.2643 84.6723 83.2643 78.3086V78.0223L51.9351 60.2148L79.302 93.5298Z" fill="#AFB6E5"/>
<path d="M53.2007 95.5354C35.9012 85.5418 21.8714 61.3614 21.8714 41.4943C21.8714 31.5469 25.3904 24.5828 31.1076 21.3594C24.6423 24.2318 20.6338 31.4638 20.6338 42.1316C20.6338 61.9894 34.6636 86.1791 51.963 96.1727C60.6081 101.16 68.4312 101.668 74.1299 98.4448C68.5235 100.92 61.2269 100.163 53.2007 95.5354Z" fill="#101032"/>
<path d="M53.6532 61.2134C53.6532 62.2941 52.8866 62.7281 51.9353 62.1832C51.4384 61.8593 51.0248 61.4229 50.728 60.9095C50.4311 60.396 50.2594 59.8198 50.2266 59.2276C50.2266 58.147 50.9932 57.7037 51.9353 58.2578C52.4348 58.5796 52.851 59.0153 53.1496 59.529C53.4483 60.0428 53.6208 60.6201 53.6532 61.2134Z" fill="#F58529"/>
<path d="M52.4159 29.6715C52.2697 29.566 52.1507 29.4271 52.0688 29.2665C51.9869 29.1059 51.9444 28.9282 51.9448 28.7479V27.15C51.9448 26.799 52.1573 26.642 52.4159 26.7898C52.5604 26.8969 52.6782 27.036 52.7599 27.1963C52.8417 27.3565 52.8851 27.5335 52.8869 27.7134V29.3113C52.8869 29.6623 52.6745 29.8193 52.4159 29.6715Z" fill="#AFB6E5"/>
<path d="M52.4159 93.6316C52.2713 93.5245 52.1535 93.3854 52.0718 93.2251C51.9901 93.0648 51.9466 92.8878 51.9448 92.7079V91.1285C51.9448 90.7776 52.1573 90.6205 52.4159 90.7683C52.562 90.8739 52.681 91.0126 52.7629 91.1732C52.8448 91.3339 52.8873 91.5117 52.8869 91.6919V93.2529C52.8869 93.6223 52.6745 93.7793 52.4159 93.6316Z" fill="#AFB6E5"/>
<path d="M25.7967 44.8459C25.7967 45.1507 25.612 45.2892 25.3811 45.1599L23.7093 44.1901C23.5814 44.1037 23.4771 43.9865 23.4061 43.8494C23.3351 43.7122 23.2996 43.5595 23.3029 43.405C23.3029 43.1095 23.4784 42.971 23.7093 43.1003L25.3811 44.0701C25.5095 44.1546 25.6147 44.2698 25.6873 44.4053C25.7598 44.5408 25.7975 44.6922 25.7967 44.8459Z" fill="#AFB6E5"/>
<path d="M81.528 77.0252C81.528 77.33 81.3525 77.4685 81.1216 77.3392L79.4498 76.4156C79.3215 76.331 79.2162 76.2158 79.1436 76.0803C79.0711 75.9449 79.0334 75.7934 79.0342 75.6397C79.0342 75.3349 79.2189 75.1964 79.4498 75.3257L81.1216 76.2493C81.2482 76.3349 81.3517 76.4506 81.4226 76.586C81.4935 76.7214 81.5297 76.8723 81.528 77.0252Z" fill="#AFB6E5"/>
<path d="M39.1058 26.0785C38.8749 26.0785 38.5886 25.8384 38.4593 25.5059L37.6834 23.5201C37.5541 23.1876 37.628 22.9013 37.8589 22.8828C38.0806 22.8828 38.3761 23.1229 38.5054 23.4555L39.2813 25.432C39.4106 25.7738 39.3459 26.0601 39.1058 26.0785Z" fill="#AFB6E5"/>
<path d="M66.972 97.557C66.7503 97.557 66.4547 97.3169 66.3254 96.9844L65.5496 95.0078C65.4203 94.6661 65.5034 94.3798 65.7251 94.3613C65.956 94.3613 66.2423 94.6015 66.3716 94.934L67.1474 96.9105C67.2767 97.2522 67.2029 97.5386 66.972 97.557Z" fill="#AFB6E5"/>
<path d="M29.3618 62.1829C29.4911 62.5155 29.4172 62.811 29.1863 62.8295L27.847 62.9403C27.6254 62.9403 27.3298 62.7002 27.2005 62.3677C27.0712 62.0352 27.1451 61.7396 27.376 61.7211L28.7152 61.6103C28.9369 61.5918 29.2325 61.8504 29.3618 62.1829Z" fill="#AFB6E5"/>
<path d="M77.6302 58.0726C77.7595 58.4051 77.6857 58.7006 77.4547 58.7191L76.1247 58.83C75.8938 58.83 75.5983 58.5898 75.469 58.2573C75.3397 57.9156 75.469 57.6293 75.6445 57.6108L76.9837 57.5C77.2146 57.4815 77.5009 57.7401 77.6302 58.0726Z" fill="#AFB6E5"/>
<path d="M29.362 31.6288C29.2327 31.8136 28.9371 31.7397 28.7155 31.4626L27.3393 29.8C27.2316 29.6921 27.1576 29.5552 27.1264 29.4059C27.0953 29.2567 27.1082 29.1016 27.1638 28.9596C27.2931 28.7749 27.5886 28.8487 27.8103 29.135L29.1865 30.7883C29.2942 30.8963 29.3682 31.0332 29.3993 31.1825C29.4305 31.3317 29.4175 31.4868 29.362 31.6288Z" fill="#AFB6E5"/>
<path d="M77.6302 91.4804C77.5009 91.6652 77.2054 91.5913 76.9837 91.305L75.6444 89.6517C75.5388 89.5405 75.4665 89.402 75.4354 89.2519C75.4044 89.1017 75.416 88.9458 75.4689 88.8019C75.5983 88.6172 75.8938 88.7003 76.1247 88.9774L77.4547 90.64C77.5624 90.7479 77.6364 90.8848 77.6676 91.0341C77.6987 91.1833 77.6857 91.3384 77.6302 91.4804Z" fill="#AFB6E5"/>
<path d="M39.1062 78.9925C39.2119 79.1016 39.2845 79.2385 39.3156 79.3873C39.3466 79.5361 39.3349 79.6906 39.2817 79.833L38.5058 80.9228C38.3765 81.1076 38.0809 81.0337 37.8593 80.7474C37.7516 80.6394 37.6776 80.5025 37.6465 80.3532C37.6153 80.204 37.6283 80.0489 37.6838 79.9069L38.4596 78.817C38.5889 78.6323 38.8753 78.7062 39.1062 78.9925Z" fill="#AFB6E5"/>
<path d="M66.9718 39.6833C67.0795 39.7912 67.1535 39.9282 67.1846 40.0774C67.2158 40.2267 67.2028 40.3818 67.1473 40.5238L66.3714 41.6137C66.2421 41.7984 65.9558 41.7245 65.7249 41.4382C65.6192 41.329 65.5466 41.1921 65.5155 41.0433C65.4844 40.8946 65.4962 40.74 65.5494 40.5977L66.3253 39.5078C66.4546 39.3323 66.7501 39.4062 66.9718 39.6833Z" fill="#AFB6E5"/>
<path d="M52.7665 61.9425L51.104 60.9912V34.4463L52.7665 35.3976V61.9425Z" fill="#F58529"/>
<path d="M52.2306 59.8652L51.7227 60.5857L74.1112 88.3405L74.6192 87.6293L52.2306 59.8652Z" fill="#F58529"/>
<path d="M52.7941 60.7135C52.7941 61.2584 52.4062 61.4709 51.9351 61.203C51.6866 61.0408 51.4795 60.8226 51.3304 60.566C51.1812 60.3094 51.0942 60.0215 51.0762 59.7252C51.0762 59.1803 51.4641 58.9586 51.9351 59.2357C52.1837 59.398 52.3908 59.6161 52.5399 59.8727C52.6891 60.1293 52.7761 60.4173 52.7941 60.7135Z" fill="#101032"/>
<path d="M58.5299 57.5458L57.6247 55.9941L53.9764 58.0723L54.2073 58.4879L31.5786 71.3817L32.0127 72.1298L54.6414 59.2268L54.8723 59.6332L58.5299 57.5458Z" fill="#F58529"/>
<defs>
<radialGradient id="paint0_radial_414_1742" cx="0" cy="0" r="1" gradientUnits="userSpaceOnUse" gradientTransform="translate(68.8306 89.9776) scale(28.6775 15.0439)">
<stop offset="0.19" stop-color="#AFB6E5"/>
<stop offset="1" stop-color="white"/>
</radialGradient>
<radialGradient id="paint1_radial_414_1742" cx="0" cy="0" r="1" gradientUnits="userSpaceOnUse" gradientTransform="translate(53.1205 57.8843) rotate(-0.136488) scale(42.0537 42.0537)">
<stop stop-color="white"/>
<stop offset="1"/>
</radialGradient>
</defs>
</svg>
