<svg width="73" height="104" viewBox="0 0 73 104" fill="none" xmlns="http://www.w3.org/2000/svg">
<path style="mix-blend-mode:multiply" d="M38.7496 103.484C47.6042 103.484 54.7823 100.139 54.7823 96.0126C54.7823 91.8862 47.6042 88.541 38.7496 88.541C29.8949 88.541 22.7168 91.8862 22.7168 96.0126C22.7168 100.139 29.8949 103.484 38.7496 103.484Z" fill="url(#paint0_radial_414_1909)"/>
<path d="M49.0049 91.6172H24.585V95.06C24.585 95.06 24.585 95.1241 24.585 95.1607C24.585 99.0888 30.0788 102.266 36.7904 102.266C43.502 102.266 49.0049 99.0888 49.0049 95.1607C49.0049 95.1607 49.0049 95.0966 49.0049 95.06V91.6172Z" fill="url(#paint1_linear_414_1909)"/>
<g style="mix-blend-mode:multiply">
<path d="M24.5849 94.6025V94.7033C24.5804 94.6698 24.5804 94.636 24.5849 94.6025Z" fill="url(#paint2_linear_414_1909)"/>
<path d="M36.7904 101.507C30.0513 101.507 24.5849 98.3203 24.5849 94.4014V95.0606C24.5804 95.094 24.5804 95.1279 24.5849 95.1613C24.5849 99.0894 30.0788 102.267 36.7904 102.267C43.502 102.267 49.0049 99.0894 49.0049 95.1613C49.0049 95.1613 49.0049 95.0973 49.0049 95.0606V94.4014C49.0049 98.3203 43.5386 101.507 36.7904 101.507Z" fill="url(#paint3_linear_414_1909)"/>
</g>
<g style="mix-blend-mode:multiply">
<path d="M40.5532 101.928L40.892 101.854V92.8262H40.5532V101.928Z" fill="#FFE585"/>
<path d="M42.064 101.561L42.4119 101.47V92.8262H42.064V101.561Z" fill="#FFE585"/>
<path d="M43.6025 101.058L43.9413 100.911V92.8262H43.6025V101.058Z" fill="#FFE585"/>
<path d="M38.9971 102.147H39.345V92.8262H38.9971V102.147Z" fill="#FFE585"/>
<path d="M46.6694 99.3272L47.0082 99.0433V92.8262H46.6694V99.3272Z" fill="#FFE585"/>
<path d="M48.1992 97.6982C48.3293 97.5052 48.4456 97.3033 48.5472 97.0939V92.8545H48.1992V97.6982Z" fill="#FFE585"/>
<path d="M45.1318 100.344L45.4798 100.151V92.8262H45.1318V100.344Z" fill="#FFE585"/>
<path d="M37.4678 102.276H37.8066V92.8262H37.4678V102.276Z" fill="#FFE585"/>
<path d="M35.9751 102.276H36.323V92.8262H35.9751V102.276Z" fill="#FFE585"/>
<path d="M32.8623 101.882L33.2103 101.955V92.7988H32.8623V101.882Z" fill="#FFE585"/>
<path d="M34.4004 102.129H34.7392V92.8262H34.4004V102.129Z" fill="#FFE585"/>
<path d="M31.333 101.506L31.6718 101.607V92.8262H31.333V101.506Z" fill="#FFE585"/>
<path d="M25.1982 97.3677C25.297 97.5592 25.4102 97.7429 25.537 97.9171V92.8262H25.1982V97.3677Z" fill="#FFE585"/>
<path d="M26.7271 99.1807L27.075 99.4462V92.8262H26.7271V99.1807Z" fill="#FFE585"/>
<path d="M29.7949 100.975L30.1429 101.113V92.8721H29.7949V100.975Z" fill="#FFE585"/>
<path d="M28.2656 100.243L28.6044 100.417V92.8262H28.2656V100.243Z" fill="#FFE585"/>
</g>
<path d="M36.7904 98.7683C43.5313 98.7683 48.9958 95.5871 48.9958 91.663C48.9958 87.7388 43.5313 84.5576 36.7904 84.5576C30.0495 84.5576 24.585 87.7388 24.585 91.663C24.585 95.5871 30.0495 98.7683 36.7904 98.7683Z" fill="url(#paint4_linear_414_1909)"/>
<path style="mix-blend-mode:screen" d="M36.7901 98.6124C30.1976 98.6124 24.8319 95.5633 24.603 91.7451C24.603 91.8275 24.603 91.9099 24.603 91.9923C24.603 95.9204 30.0968 99.1068 36.8084 99.1068C43.52 99.1068 49.023 95.9204 49.023 91.9923C49.0275 91.91 49.0275 91.8275 49.023 91.7451C48.7941 95.5358 43.3918 98.6124 36.7901 98.6124Z" fill="url(#paint5_radial_414_1909)"/>
<path d="M36.79 96.9739C41.8318 96.9739 45.9189 94.5962 45.9189 91.6632C45.9189 88.7302 41.8318 86.3525 36.79 86.3525C31.7483 86.3525 27.6611 88.7302 27.6611 91.6632C27.6611 94.5962 31.7483 96.9739 36.79 96.9739Z" fill="url(#paint6_linear_414_1909)"/>
<path style="mix-blend-mode:screen" d="M37.1017 86.6185C41.9728 86.6185 45.9467 88.8435 46.2031 91.6453C46.208 91.5508 46.208 91.456 46.2031 91.3615C46.2031 88.4223 42.1194 86.0508 37.0467 86.0508C31.9741 86.0508 27.8904 88.4223 27.8904 91.3615C27.8855 91.456 27.8855 91.5508 27.8904 91.6453C28.2566 88.8435 32.2213 86.6185 37.1017 86.6185Z" fill="url(#paint7_radial_414_1909)"/>
<path d="M36.7901 86.9202C41.6705 86.9202 45.6352 89.1452 45.8916 91.9471C45.8965 91.8525 45.8965 91.7578 45.8916 91.6632C45.8916 88.7332 41.8078 86.3525 36.7352 86.3525C31.6626 86.3525 27.5789 88.7332 27.5789 91.6632C27.574 91.7578 27.574 91.8525 27.5789 91.9471C27.9451 89.1452 31.919 86.9202 36.7901 86.9202Z" fill="url(#paint8_linear_414_1909)"/>
<path style="mix-blend-mode:color-dodge" d="M43.2089 84.814C45.9558 85.7297 47.787 87.5609 47.3384 88.971C46.8897 90.3811 44.271 90.6741 41.5333 89.7401C38.7955 88.8062 36.9551 86.9475 37.4038 85.5832C37.8524 84.2189 40.462 83.8801 43.2089 84.814Z" fill="url(#paint9_radial_414_1909)"/>
<g style="mix-blend-mode:multiply">
<path d="M37.4955 89.9967L36.7905 90.1615C36.5644 90.2135 36.3412 90.2777 36.1221 90.3538C35.884 90.4362 35.6551 90.5186 35.4353 90.6102L36.1679 91.0405L36.4059 90.949L36.6715 90.8574C37.0927 90.7109 37.4864 90.5919 37.8526 90.4912C38.1918 90.3975 38.5377 90.3302 38.8873 90.2897C39.1908 90.2443 39.4994 90.2443 39.8029 90.2897C40.1032 90.3413 40.3917 90.4468 40.6545 90.601C40.9168 90.7263 41.1296 90.9358 41.2588 91.1962C41.3019 91.2959 41.3241 91.4035 41.3241 91.5121C41.3241 91.6208 41.3019 91.7283 41.2588 91.828C41.1561 92.0732 40.9996 92.2922 40.801 92.4689C40.5669 92.7011 40.3055 92.904 40.0227 93.0733L41.0116 93.6501L40.1875 94.1171L39.1895 93.5402C38.6653 93.8053 38.1238 94.0348 37.5688 94.227C37.0179 94.4191 36.4552 94.5751 35.884 94.6939L35.353 93.3937L36.2045 93.2014C36.483 93.136 36.7581 93.0565 37.0286 92.9634C37.3406 92.8736 37.6465 92.7634 37.9442 92.6338L37.23 92.2126C36.9736 92.3133 36.7081 92.4049 36.4334 92.4964C36.0701 92.6203 35.7002 92.7243 35.3255 92.8077C35.0259 92.8853 34.719 92.9313 34.4098 92.9451C34.1522 92.9555 33.8943 92.937 33.6407 92.8901C33.4062 92.8344 33.1811 92.745 32.9723 92.6246C32.7253 92.4982 32.519 92.3046 32.3771 92.0661C32.2771 91.8747 32.2479 91.6542 32.2947 91.4434C32.3549 91.1966 32.478 90.9695 32.6518 90.7842C32.86 90.542 33.1003 90.3295 33.366 90.1524L32.542 89.6763L33.366 89.2093L34.1992 89.6854C34.4437 89.5654 34.6943 89.4584 34.9501 89.3649C35.2065 89.2642 35.4628 89.1818 35.7101 89.0994C35.9573 89.017 36.2045 88.9438 36.4334 88.8888L37.0835 88.7148L37.4955 89.9967ZM34.7486 91.3061C34.8417 91.3538 34.9468 91.3729 35.0508 91.361C35.2055 91.3421 35.3585 91.3115 35.5086 91.2695L34.886 90.9124C34.6296 91.0772 34.5838 91.2145 34.7395 91.2878L34.7486 91.3061ZM38.6767 91.9562C38.569 91.9256 38.4549 91.9256 38.3471 91.9562C38.1858 91.9803 38.0265 92.0171 37.871 92.0661L38.4752 92.414C38.5873 92.3569 38.6798 92.2676 38.7408 92.1576C38.7225 92.0477 38.7225 92.002 38.6676 91.9562H38.6767Z" fill="#FF9E6E"/>
</g>
<path d="M37.4955 89.695C37.2758 89.695 37.0377 89.7865 36.7905 89.8506C36.5433 89.9147 36.3601 89.9697 36.1221 90.0521C35.884 90.1345 35.6551 90.2169 35.4353 90.3084L36.1679 90.7296L36.4059 90.6472L36.6715 90.5557C37.0927 90.4092 37.4864 90.281 37.8526 90.1894C38.1908 90.0914 38.5371 90.024 38.8873 89.988C39.1908 89.9426 39.4994 89.9426 39.8029 89.988C40.1043 90.0353 40.3936 90.1411 40.6545 90.2993C40.9161 90.421 41.1291 90.6275 41.2588 90.8853C41.3016 90.9867 41.3236 91.0957 41.3236 91.2058C41.3236 91.3159 41.3016 91.4248 41.2588 91.5262C41.1561 91.7715 40.9996 91.9905 40.801 92.1672C40.5622 92.3939 40.3014 92.5963 40.0227 92.7715L41.0116 93.3392L40.1875 93.8153L39.1895 93.2385C38.6635 93.4997 38.1223 93.729 37.5688 93.9252C37.0179 94.1174 36.4552 94.2733 35.884 94.3922L35.353 93.092L36.2045 92.8997C36.4517 92.8356 36.7264 92.7624 37.0286 92.6616C37.3409 92.5688 37.6467 92.4556 37.9442 92.3229L37.23 91.9108C36.9736 92.0115 36.7081 92.1031 36.4334 92.1947C36.1587 92.2862 35.6551 92.4327 35.3255 92.506C35.0241 92.5746 34.718 92.6205 34.4098 92.6433C34.1518 92.6554 33.8932 92.6339 33.6407 92.5792C33.4054 92.5309 33.1796 92.4443 32.9723 92.3229C32.7253 92.1964 32.519 92.0028 32.3771 91.7643C32.2771 91.573 32.2479 91.3524 32.2947 91.1417C32.3549 90.8948 32.478 90.6677 32.6518 90.4824C32.86 90.2403 33.1003 90.0277 33.366 89.8506L32.542 89.3745L33.366 88.8984L34.1992 89.3837C34.4437 89.2636 34.6943 89.1567 34.9501 89.0632C35.2065 88.9625 35.4628 88.8709 35.7101 88.7977L36.4334 88.5779L37.0835 88.4131L37.4955 89.695ZM34.7486 91.0043C34.8417 91.052 34.9468 91.0711 35.0508 91.0593C35.2064 91.0411 35.3597 91.0073 35.5086 90.9585L34.886 90.6015C34.6296 90.7754 34.5838 90.9128 34.7395 91.0043H34.7486ZM38.6767 91.6544C38.5733 91.6086 38.4591 91.5928 38.3471 91.6087C38.1859 91.6292 38.0267 91.6629 37.871 91.7094L38.4752 92.0573C38.5841 91.9998 38.6757 91.9145 38.7408 91.8101C38.7466 91.7951 38.7493 91.7791 38.7487 91.763C38.7481 91.7469 38.7443 91.7312 38.7374 91.7166C38.7306 91.7021 38.7209 91.6891 38.7088 91.6784C38.6968 91.6677 38.6828 91.6595 38.6676 91.6544H38.6767Z" fill="#FFE585"/>
<path d="M36.3231 19.9875C52.8045 19.9875 66.072 27.743 66.072 37.3113C66.072 37.4578 66.072 37.6043 66.072 37.7417C68.6633 31.1674 70.4121 25.5271 70.4121 22.2949C70.4121 11.3073 55.1577 2.45312 36.3414 2.45312C17.5251 2.45312 2.27979 11.3348 2.27979 22.2949C2.27979 25.0418 4.01947 30.5356 6.61072 37C6.88541 27.5781 20.0797 19.9875 36.3231 19.9875Z" fill="url(#paint10_linear_414_1909)"/>
<path d="M65.4768 40.4609L65.605 37.5767C65.6096 37.4882 65.6096 37.3996 65.605 37.3112C65.605 28.0175 52.4656 20.4452 36.3047 20.4452C20.4459 20.4452 7.3157 27.8801 7.00438 37.0182L6.94028 39.2157L6.12541 37.1738C3.22285 29.8487 1.75781 24.886 1.75781 22.2947C1.75781 11.1057 17.2412 1.99512 36.2773 1.99512C55.3133 1.99512 70.8058 11.1515 70.8058 22.2947C70.8058 25.2889 69.3317 30.5355 66.4383 37.9155L65.4768 40.4609ZM36.323 19.5295C51.9987 19.5295 64.9274 26.5982 66.3924 35.5989C68.7456 29.3726 69.936 24.9043 69.936 22.2947C69.936 11.6093 54.8555 2.91075 36.323 2.91075C17.7906 2.91075 2.71922 11.6093 2.71922 22.2947C2.71922 24.5655 3.93701 28.8782 6.38176 35.1136C8.14893 26.2778 20.7664 19.5295 36.323 19.5295Z" fill="#A2A8D4"/>
<path d="M36.3233 64.4691C48.6065 64.4691 58.564 58.6684 58.564 51.5129C58.564 44.3573 48.6065 38.5566 36.3233 38.5566C24.04 38.5566 14.0825 44.3573 14.0825 51.5129C14.0825 58.6684 24.04 64.4691 36.3233 64.4691Z" fill="url(#paint11_linear_414_1909)"/>
<path d="M36.3236 64.9264C23.8068 64.9264 13.625 58.9106 13.625 51.5123C13.625 44.114 23.8068 38.1074 36.3236 38.1074C48.8403 38.1074 59.0221 44.1231 59.0221 51.5123C59.0221 58.9015 48.8403 64.9264 36.3236 64.9264ZM36.3236 39.0231C24.3196 39.0231 14.5406 44.6267 14.5406 51.5123C14.5406 58.3979 24.3196 64.0107 36.3236 64.0107C48.3275 64.0107 58.1065 58.407 58.1065 51.5123C58.1065 44.6176 48.3367 39.0231 36.3236 39.0231Z" fill="#A2A8D4"/>
<path d="M36.3232 19.666C20.034 19.666 6.83057 27.3482 6.83057 36.8433C6.83057 41.3482 9.81556 45.4503 14.6959 48.5085C17.0216 42.8041 25.8209 38.5647 36.3232 38.5647C46.8255 38.5647 55.6339 42.8041 57.9505 48.5085C62.8308 45.4503 65.8158 41.3482 65.8158 36.8433C65.825 27.3482 52.6215 19.666 36.3232 19.666Z" fill="url(#paint12_linear_414_1909)"/>
<path d="M57.7398 49.1683L57.5383 48.6647C55.2584 43.0702 46.331 39.0048 36.3231 39.0048C26.1596 39.0048 17.4335 42.9786 15.117 48.6647L14.9156 49.1683L14.4577 48.8845C9.24778 45.6065 6.38184 41.3305 6.38184 36.8256C6.38184 27.1015 19.8142 19.1904 36.3323 19.1904C52.8503 19.1904 66.2918 27.1015 66.2918 36.8256C66.2918 41.3305 63.4259 45.6065 58.2159 48.8845L57.7398 49.1683ZM36.3231 20.1244C20.3178 20.1244 7.28831 27.6234 7.28831 36.8439C7.28831 40.891 9.84292 44.7824 14.4943 47.8315C17.2413 42.0721 26.0955 38.0983 36.3231 38.0983C46.5507 38.0983 55.4232 42.0721 58.161 47.8315C62.8124 44.7733 65.367 40.8818 65.367 36.8439C65.367 27.6234 52.3376 20.1244 36.3231 20.1244Z" fill="#A2A8D4"/>
<path d="M45.1318 82.5889H27.5425V84.997C27.5425 87.8263 31.4706 90.1154 36.3234 90.1154C41.1763 90.1154 45.1135 87.8263 45.1135 84.997L45.1318 82.5889Z" fill="url(#paint13_linear_414_1909)"/>
<path d="M27.5425 82.6262C27.5425 85.4464 31.4706 87.7446 36.3234 87.7446C41.1763 87.7446 45.1135 85.4464 45.1135 82.6262C45.1135 79.8061 41.1855 77.5078 36.3234 77.5078C31.4614 77.5078 27.5425 79.7969 27.5425 82.6262Z" fill="url(#paint14_linear_414_1909)"/>
<path style="mix-blend-mode:color-dodge" d="M36.3234 87.7163C31.5255 87.7163 27.6249 85.4821 27.5425 82.6895V82.781C27.5425 85.6103 31.4706 87.8994 36.3234 87.8994C41.1763 87.8994 45.1135 85.6103 45.1135 82.781V82.6895C45.0311 85.4821 41.1305 87.7163 36.3234 87.7163Z" fill="url(#paint15_radial_414_1909)"/>
<path style="mix-blend-mode:color-dodge" d="M36.3235 42.9515C16.4817 42.9515 0.366496 33.6853 0.0185547 22.1758C0.0185547 22.304 0.0185547 22.4322 0.0185547 22.5512C0.0185547 34.2347 16.2803 43.7115 36.3418 43.7115C56.4034 43.7115 72.6742 34.2347 72.6742 22.5512C72.6742 22.4322 72.6742 22.304 72.6742 22.1758C72.2896 33.6853 56.1745 42.9515 36.3235 42.9515Z" fill="url(#paint16_radial_414_1909)"/>
<path d="M72.6556 22.6978V22.2949C72.6556 33.9784 56.3939 43.4461 36.3232 43.4461C16.2525 43.4461 7.21829e-07 33.9784 7.21829e-07 22.2949V22.6978C-0.000571279 24.3871 0.338817 26.0593 0.998011 27.6148C1.6298 29.1256 4.59646 35.3793 8.32309 43.1805C12.4526 49.8555 23.4311 54.6626 36.3232 54.6626C49.2154 54.6626 60.2121 49.8464 64.36 43.1622C68.0866 35.3702 71.0532 29.1256 71.685 27.5964C72.3324 26.0448 72.6624 24.3791 72.6556 22.6978Z" fill="url(#paint17_linear_414_1909)"/>
<path style="mix-blend-mode:multiply" d="M36.2959 79.5122C40.1416 79.5122 43.3647 81.0505 44.2437 83.1748C44.3902 82.8085 70.3667 34.6461 70.3667 22.1569C70.3667 11.1693 55.1122 2.32422 36.2959 2.32422C17.4797 2.32422 2.23438 11.2059 2.23438 22.1569C2.23438 32.9064 28.2017 82.8085 28.3574 83.1748C29.2273 81.0505 32.4503 79.5122 36.2959 79.5122Z" fill="url(#paint18_radial_414_1909)"/>
<path d="M72.6556 22.6978V22.2949C72.6556 33.9784 56.3939 43.4461 36.3232 43.4461C16.2525 43.4461 7.21829e-07 33.9784 7.21829e-07 22.2949V22.6978C-0.000571279 24.3871 0.338817 26.0593 0.998011 27.6148C1.6298 29.1256 4.59646 35.3793 8.32309 43.1805C12.4526 49.8555 23.4311 54.6626 36.3232 54.6626C49.2154 54.6626 60.2121 49.8464 64.36 43.1622C68.0866 35.3702 71.0532 29.1256 71.685 27.5964C72.3324 26.0448 72.6624 24.3791 72.6556 22.6978Z" fill="#282880"/>
<path d="M36.3234 54.6625C23.4312 54.6625 12.4528 49.8829 8.32324 43.1987C10.3926 47.5205 12.7 52.3551 14.9799 57.034C18.2304 62.07 26.5535 65.6409 36.3234 65.6409C46.0932 65.6409 54.4346 62.0608 57.6851 57.034L64.3601 43.1621C60.2123 49.8462 49.2338 54.6625 36.3234 54.6625Z" fill="url(#paint19_linear_414_1909)"/>
<path d="M36.3234 54.6625C23.4312 54.6625 12.4528 49.8829 8.32324 43.1987C10.3926 47.5205 12.7 52.3551 14.9799 57.034C18.2304 62.07 26.5535 65.6409 36.3234 65.6409C46.0932 65.6409 54.4346 62.0608 57.6851 57.034L64.3601 43.1621C60.2123 49.8462 49.2338 54.6625 36.3234 54.6625Z" fill="#212169"/>
<path d="M36.323 76.6375C29.7396 76.6375 24.0901 74.3026 21.6729 70.9697L27.5879 83.2118C28.4486 85.6931 31.4976 87.5793 36.3047 87.5793C41.1118 87.5793 44.2616 85.4825 45.0307 83.2118L50.9457 70.9789C48.565 74.2569 42.9156 76.6375 36.323 76.6375Z" fill="url(#paint20_linear_414_1909)"/>
<path style="mix-blend-mode:multiply" d="M36.3234 77.0769C42.4398 77.0769 47.7413 75.0625 50.3875 72.1141C50.5829 71.7296 50.7751 71.3359 50.9644 70.933C48.5654 74.2567 42.9159 76.5916 36.3142 76.5916C29.7125 76.5916 24.0813 74.2567 21.6641 70.9238L22.2409 72.1141C24.9146 75.0625 30.2161 77.0769 36.3234 77.0769Z" fill="url(#paint21_radial_414_1909)"/>
<path d="M36.3234 65.6499C26.5536 65.6499 18.2305 62.079 14.98 57.043C17.3423 61.9691 19.6772 66.8036 21.6916 70.9606C24.0906 74.2935 29.74 76.6284 36.3418 76.6284C42.9435 76.6284 48.5838 74.2935 50.9919 70.9698C52.9972 66.8036 55.3411 61.9599 57.7126 57.043C54.4347 62.0332 46.1024 65.6499 36.3234 65.6499Z" fill="url(#paint22_linear_414_1909)"/>
<path d="M36.3234 65.6499C26.5536 65.6499 18.2305 62.079 14.98 57.043C17.3423 61.9691 19.6772 66.8036 21.6916 70.9606C24.0906 74.2935 29.74 76.6284 36.3418 76.6284C42.9435 76.6284 48.5838 74.2935 50.9919 70.9698C52.9972 66.8036 55.3411 61.9599 57.7126 57.043C54.4347 62.0332 46.1024 65.6499 36.3234 65.6499Z" fill="#1C1C59"/>
<path style="mix-blend-mode:multiply" d="M36.3234 55.1203C48.5013 55.1203 58.9579 50.8626 63.5635 44.7645C63.829 44.2242 64.0854 43.684 64.3326 43.1621C60.2122 49.8462 49.2338 54.6625 36.3234 54.6625C23.4129 54.6625 12.4528 49.8829 8.32324 43.1987L9.0924 44.7919C13.698 50.8626 24.1546 55.1203 36.3234 55.1203Z" fill="url(#paint23_radial_414_1909)"/>
<path style="mix-blend-mode:multiply" d="M36.3234 66.0991C45.4798 66.0991 53.3451 62.9676 56.9801 58.4535C57.2182 57.9683 57.4471 57.483 57.6852 57.0068C54.4347 62.0337 46.1024 65.6138 36.3234 65.6138C26.5444 65.6138 18.2305 62.0428 14.98 57.0068C15.2089 57.4921 15.4378 57.9774 15.6759 58.4535C19.3109 62.9768 27.1945 66.0991 36.3234 66.0991Z" fill="url(#paint24_radial_414_1909)"/>
<path style="mix-blend-mode:color-dodge" opacity="0.8" d="M50.47 38.7393L62.007 42.4018C62.007 42.4018 44.2986 83.9625 44.2895 83.9625C42.5223 88.3026 41.039 90.5276 39.7662 90.1155C38.4935 89.7035 38.6583 86.8192 39.6746 82.4791C39.9676 81.2155 50.47 38.7393 50.47 38.7393Z" fill="url(#paint25_radial_414_1909)"/>
<path d="M36.3508 3.10319C54.8374 3.10319 69.8905 11.6552 70.504 22.3315C70.504 22.0843 70.504 21.8371 70.504 21.5899C70.504 10.6022 55.1946 1.6748 36.3142 1.6748C17.4338 1.6748 2.11523 10.5931 2.11523 21.5899C2.11523 21.8371 2.11523 22.0843 2.11523 22.3315C2.80196 11.6278 17.855 3.10319 36.3508 3.10319Z" fill="url(#paint26_linear_414_1909)"/>
<g style="mix-blend-mode:multiply" opacity="0.5">
<path d="M36.3508 3.10319C54.8374 3.10319 69.8905 11.6552 70.504 22.3315C70.504 22.0843 70.504 21.8371 70.504 21.5899C70.504 10.6022 55.1946 1.6748 36.3142 1.6748C17.4338 1.6748 2.11523 10.5931 2.11523 21.5899C2.11523 21.8371 2.11523 22.0843 2.11523 22.3315C2.80196 11.6278 17.855 3.10319 36.3508 3.10319Z" fill="#9AA0C9"/>
</g>
<path d="M36.3505 0.484375C16.3256 0.484375 0.100586 9.93373 0.100586 21.5898C0.100586 33.2458 16.3256 42.6951 36.3505 42.6951C56.3755 42.6951 72.6005 33.2458 72.6005 21.5898C72.6005 9.93373 56.3663 0.484375 36.3505 0.484375ZM36.3505 41.4957C17.461 41.4957 2.1516 32.5865 2.1516 21.5898C2.1516 10.593 17.461 1.6747 36.3505 1.6747C55.2401 1.6747 70.5404 10.593 70.5404 21.5898C70.5404 32.5865 55.2035 41.4957 36.3505 41.4957Z" fill="url(#paint27_linear_414_1909)"/>
<path d="M72.6007 21.5898C72.6007 33.2459 56.3756 42.6952 36.3598 42.6952C16.344 42.6952 0.109863 33.2459 0.109863 21.5898V23.531C0.109863 23.6317 0.109863 23.7324 0.109863 23.824C0.109863 35.48 16.3349 44.8836 36.3598 44.8836C56.3847 44.8836 72.6007 35.4892 72.6007 23.8331C72.6007 23.7416 72.6007 23.6409 72.6007 23.5401V21.5898Z" fill="url(#paint28_linear_414_1909)"/>
<path style="mix-blend-mode:color-dodge" d="M36.3508 42.6128C16.5456 42.6128 0.467082 33.3649 0.119141 21.8828C0.119141 22.011 0.119141 22.13 0.119141 22.2582C0.119141 33.9143 16.3533 43.3178 36.3691 43.3178C56.3849 43.3178 72.6008 33.9143 72.6008 22.2582C72.6008 22.13 72.6008 22.011 72.6008 21.8828C72.2254 33.3649 56.1193 42.6128 36.3508 42.6128Z" fill="url(#paint29_radial_414_1909)"/>
<defs>
<radialGradient id="paint0_radial_414_1909" cx="0" cy="0" r="1" gradientUnits="userSpaceOnUse" gradientTransform="translate(43.9357 107.943) scale(16.08 7.41188)">
<stop offset="0.19" stop-color="#AFB6E5"/>
<stop offset="1" stop-color="white"/>
</radialGradient>
<linearGradient id="paint1_linear_414_1909" x1="24.704" y1="96.9462" x2="48.7302" y2="96.9462" gradientUnits="userSpaceOnUse">
<stop stop-color="#FF9E6E"/>
<stop offset="0.19" stop-color="#FFE585"/>
<stop offset="0.3" stop-color="#FFE4A7"/>
<stop offset="0.43" stop-color="#FFE585"/>
<stop offset="0.57" stop-color="#FF9E6E"/>
<stop offset="0.68" stop-color="#FFA16F"/>
<stop offset="0.77" stop-color="#FFAC73"/>
<stop offset="0.86" stop-color="#FFBE79"/>
<stop offset="0.9" stop-color="#FFC87C"/>
<stop offset="1" stop-color="#FF9E6E"/>
</linearGradient>
<linearGradient id="paint2_linear_414_1909" x1="24.5849" y1="94.6575" x2="24.5941" y2="94.6575" gradientUnits="userSpaceOnUse">
<stop stop-color="#FFBB96"/>
<stop offset="0.23" stop-color="#FFFBC9"/>
<stop offset="0.54" stop-color="#F9B673"/>
<stop offset="0.64" stop-color="#F9B876"/>
<stop offset="0.72" stop-color="#FABE81"/>
<stop offset="0.81" stop-color="#FCC993"/>
<stop offset="0.86" stop-color="#FED2A3"/>
<stop offset="0.97" stop-color="#FFC28C"/>
</linearGradient>
<linearGradient id="paint3_linear_414_1909" x1="24.704" y1="98.3294" x2="48.7302" y2="98.3294" gradientUnits="userSpaceOnUse">
<stop stop-color="#FF9E6E"/>
<stop offset="0.19" stop-color="#FFE585"/>
<stop offset="0.3" stop-color="#FFE4A7"/>
<stop offset="0.43" stop-color="#FFE585"/>
<stop offset="0.57" stop-color="#FF9E6E"/>
<stop offset="0.68" stop-color="#FFA16F"/>
<stop offset="0.77" stop-color="#FFAC73"/>
<stop offset="0.86" stop-color="#FFBE79"/>
<stop offset="0.9" stop-color="#FFC87C"/>
<stop offset="1" stop-color="#FF9E6E"/>
</linearGradient>
<linearGradient id="paint4_linear_414_1909" x1="59.3516" y1="68.9644" x2="35.4718" y2="92.9997" gradientUnits="userSpaceOnUse">
<stop offset="0.04" stop-color="#FF9E6E"/>
<stop offset="0.3" stop-color="#FFAD73"/>
<stop offset="0.82" stop-color="#FFD680"/>
<stop offset="1" stop-color="#FFE585"/>
</linearGradient>
<radialGradient id="paint5_radial_414_1909" cx="0" cy="0" r="1" gradientUnits="userSpaceOnUse" gradientTransform="translate(31.5435 96.891) scale(15.346 15.346)">
<stop stop-color="white"/>
<stop offset="1"/>
</radialGradient>
<linearGradient id="paint6_linear_414_1909" x1="46.6056" y1="81.7927" x2="28.7507" y2="99.7574" gradientUnits="userSpaceOnUse">
<stop offset="0.04" stop-color="#FF9E6E"/>
<stop offset="0.3" stop-color="#FFAD73"/>
<stop offset="0.82" stop-color="#FFD680"/>
<stop offset="1" stop-color="#FFE585"/>
</linearGradient>
<radialGradient id="paint7_radial_414_1909" cx="0" cy="0" r="1" gradientUnits="userSpaceOnUse" gradientTransform="translate(41.0938 85.8402) scale(6.74823 6.74823)">
<stop stop-color="white"/>
<stop offset="1"/>
</radialGradient>
<linearGradient id="paint8_linear_414_1909" x1="49.8929" y1="77.9012" x2="33.0452" y2="94.8588" gradientUnits="userSpaceOnUse">
<stop stop-color="#FF9E6E"/>
<stop offset="0.19" stop-color="#FFE585"/>
<stop offset="0.3" stop-color="#FFE4A7"/>
<stop offset="0.43" stop-color="#FFE585"/>
<stop offset="0.57" stop-color="#FF9E6E"/>
<stop offset="0.68" stop-color="#FFA16F"/>
<stop offset="0.77" stop-color="#FFAC73"/>
<stop offset="0.86" stop-color="#FFBE79"/>
<stop offset="0.9" stop-color="#FFC87C"/>
<stop offset="1" stop-color="#FF9E6E"/>
</linearGradient>
<radialGradient id="paint9_radial_414_1909" cx="0" cy="0" r="1" gradientUnits="userSpaceOnUse" gradientTransform="translate(40.8263 98.3381) rotate(-70.3462) scale(2.57537 5.31387)">
<stop stop-color="#F49587"/>
<stop offset="0.12" stop-color="#BD7368"/>
<stop offset="0.24" stop-color="#8B554D"/>
<stop offset="0.36" stop-color="#603B35"/>
<stop offset="0.48" stop-color="#3E2622"/>
<stop offset="0.61" stop-color="#231513"/>
<stop offset="0.74" stop-color="#0F0908"/>
<stop offset="0.86" stop-color="#040202"/>
<stop offset="1"/>
</radialGradient>
<linearGradient id="paint10_linear_414_1909" x1="68.5351" y1="20.0974" x2="5.10909" y2="20.0974" gradientUnits="userSpaceOnUse">
<stop stop-color="#B9BFEA"/>
<stop offset="0.25" stop-color="#E5E9FF"/>
<stop offset="0.7" stop-color="#AFB6E5"/>
<stop offset="0.95" stop-color="#BAC0EA"/>
<stop offset="1" stop-color="#BDC3EC"/>
</linearGradient>
<linearGradient id="paint11_linear_414_1909" x1="58.3351" y1="53.9942" x2="14.7235" y2="49.0864" gradientUnits="userSpaceOnUse">
<stop stop-color="#B9BFEA"/>
<stop offset="0.25" stop-color="#E5E9FF"/>
<stop offset="0.7" stop-color="#AFB6E5"/>
<stop offset="0.95" stop-color="#BAC0EA"/>
<stop offset="1" stop-color="#BDC3EC"/>
</linearGradient>
<linearGradient id="paint12_linear_414_1909" x1="65.5228" y1="39.6635" x2="4.72461" y2="30.7818" gradientUnits="userSpaceOnUse">
<stop stop-color="#B9BFEA"/>
<stop offset="0.25" stop-color="#E5E9FF"/>
<stop offset="0.7" stop-color="#AFB6E5"/>
<stop offset="0.95" stop-color="#BAC0EA"/>
<stop offset="1" stop-color="#BDC3EC"/>
</linearGradient>
<linearGradient id="paint13_linear_414_1909" x1="27.6249" y1="86.3521" x2="44.9212" y2="86.3521" gradientUnits="userSpaceOnUse">
<stop stop-color="#B9BFEA"/>
<stop offset="0.25" stop-color="#E5E9FF"/>
<stop offset="0.7" stop-color="#AFB6E5"/>
<stop offset="0.95" stop-color="#BAC0EA"/>
<stop offset="1" stop-color="#BDC3EC"/>
</linearGradient>
<linearGradient id="paint14_linear_414_1909" x1="46.6518" y1="71.5562" x2="32.725" y2="86.4902" gradientUnits="userSpaceOnUse">
<stop stop-color="#AFB6E5"/>
<stop offset="0.14" stop-color="#B6BCE8"/>
<stop offset="0.35" stop-color="#C8CDF1"/>
<stop offset="0.58" stop-color="#E5E9FF"/>
<stop offset="0.95" stop-color="#F5F4FC"/>
<stop offset="1" stop-color="#F7F6FB"/>
</linearGradient>
<radialGradient id="paint15_radial_414_1909" cx="0" cy="0" r="1" gradientUnits="userSpaceOnUse" gradientTransform="translate(33.5033 87.0387) scale(6.4827 6.4827)">
<stop stop-color="white"/>
<stop offset="1"/>
</radialGradient>
<radialGradient id="paint16_radial_414_1909" cx="0" cy="0" r="1" gradientUnits="userSpaceOnUse" gradientTransform="translate(24.6675 40.1131) scale(26.7915 26.7915)">
<stop stop-color="white"/>
<stop offset="1"/>
</radialGradient>
<linearGradient id="paint17_linear_414_1909" x1="0.347942" y1="38.465" x2="71.8498" y2="38.465" gradientUnits="userSpaceOnUse">
<stop stop-color="#B9BFEA"/>
<stop offset="0.25" stop-color="#E5E9FF"/>
<stop offset="0.7" stop-color="#AFB6E5"/>
<stop offset="0.95" stop-color="#BAC0EA"/>
<stop offset="1" stop-color="#BDC3EC"/>
</linearGradient>
<radialGradient id="paint18_radial_414_1909" cx="0" cy="0" r="1" gradientUnits="userSpaceOnUse" gradientTransform="translate(36.296 42.7129) scale(37.3854 37.3854)">
<stop offset="0.07" stop-color="#B4B8D4"/>
<stop offset="1" stop-color="white"/>
</radialGradient>
<linearGradient id="paint19_linear_414_1909" x1="0.348061" y1="54.3878" x2="71.85" y2="54.3878" gradientUnits="userSpaceOnUse">
<stop stop-color="#B9BFEA"/>
<stop offset="0.25" stop-color="#E5E9FF"/>
<stop offset="0.7" stop-color="#AFB6E5"/>
<stop offset="0.95" stop-color="#BAC0EA"/>
<stop offset="1" stop-color="#BDC3EC"/>
</linearGradient>
<linearGradient id="paint20_linear_414_1909" x1="36.3093" y1="13.792" x2="36.3093" y2="87.5793" gradientUnits="userSpaceOnUse">
<stop stop-color="#101032" stop-opacity="0"/>
<stop offset="0.890666" stop-color="#101032"/>
</linearGradient>
<radialGradient id="paint21_radial_414_1909" cx="0" cy="0" r="1" gradientUnits="userSpaceOnUse" gradientTransform="translate(35.5726 53.655) scale(29.8405 29.8405)">
<stop offset="0.07" stop-color="#B4B8D4"/>
<stop offset="1" stop-color="white"/>
</radialGradient>
<linearGradient id="paint22_linear_414_1909" x1="0.348142" y1="66.7945" x2="71.85" y2="66.7945" gradientUnits="userSpaceOnUse">
<stop stop-color="#B9BFEA"/>
<stop offset="0.25" stop-color="#E5E9FF"/>
<stop offset="0.7" stop-color="#AFB6E5"/>
<stop offset="0.95" stop-color="#BAC0EA"/>
<stop offset="1" stop-color="#BDC3EC"/>
</linearGradient>
<radialGradient id="paint23_radial_414_1909" cx="0" cy="0" r="1" gradientUnits="userSpaceOnUse" gradientTransform="translate(35.5725 33.1176) scale(49.8471 49.8471)">
<stop offset="0.07" stop-color="#B4B8D4"/>
<stop offset="1" stop-color="white"/>
</radialGradient>
<radialGradient id="paint24_radial_414_1909" cx="0" cy="0" r="1" gradientUnits="userSpaceOnUse" gradientTransform="translate(35.5726 41.8256) scale(40.0773 40.0773)">
<stop offset="0.07" stop-color="#B4B8D4"/>
<stop offset="1" stop-color="white"/>
</radialGradient>
<radialGradient id="paint25_radial_414_1909" cx="0" cy="0" r="1" gradientUnits="userSpaceOnUse" gradientTransform="translate(74.5112 183.74) rotate(-163.61) scale(5.34617 30.136)">
<stop stop-color="#732058"/>
<stop offset="0.08" stop-color="#601B49"/>
<stop offset="0.26" stop-color="#3D112F"/>
<stop offset="0.44" stop-color="#220A1A"/>
<stop offset="0.62" stop-color="#0F040C"/>
<stop offset="0.81" stop-color="#040103"/>
<stop offset="1"/>
</radialGradient>
<linearGradient id="paint26_linear_414_1909" x1="70.1011" y1="12.0032" x2="5.42068" y2="12.0032" gradientUnits="userSpaceOnUse">
<stop stop-color="#B9BFEA"/>
<stop offset="0.25" stop-color="#E5E9FF"/>
<stop offset="0.7" stop-color="#AFB6E5"/>
<stop offset="0.95" stop-color="#BAC0EA"/>
<stop offset="1" stop-color="#BDC3EC"/>
</linearGradient>
<linearGradient id="paint27_linear_414_1909" x1="-6.21729" y1="-24.0455" x2="51.2022" y2="37.5218" gradientUnits="userSpaceOnUse">
<stop stop-color="#AFB6E5"/>
<stop offset="0.14" stop-color="#B6BCE8"/>
<stop offset="0.35" stop-color="#C8CDF1"/>
<stop offset="0.58" stop-color="#E5E9FF"/>
<stop offset="0.95" stop-color="#F5F4FC"/>
<stop offset="1" stop-color="#F7F6FB"/>
</linearGradient>
<linearGradient id="paint28_linear_414_1909" x1="0.448648" y1="33.2642" x2="71.7857" y2="33.2642" gradientUnits="userSpaceOnUse">
<stop stop-color="#B9BFEA"/>
<stop offset="0.25" stop-color="#E5E9FF"/>
<stop offset="0.7" stop-color="#AFB6E5"/>
<stop offset="0.95" stop-color="#BAC0EA"/>
<stop offset="1" stop-color="#BDC3EC"/>
</linearGradient>
<radialGradient id="paint29_radial_414_1909" cx="0" cy="0" r="1" gradientUnits="userSpaceOnUse" gradientTransform="translate(24.7131 39.7835) scale(26.7274 26.7274)">
<stop stop-color="white"/>
<stop offset="1"/>
</radialGradient>
</defs>
</svg>
