<svg width="18" height="24" viewBox="0 0 18 24" fill="none" xmlns="http://www.w3.org/2000/svg">
<path d="M5.87737 1.17008C5.87737 0.689441 6.25865 0.299805 6.72898 0.299805H11.2709C11.7413 0.299805 12.1225 0.689441 12.1225 1.17008V2.04036H16.9483C17.4187 2.04036 17.8 2.43 17.8 2.91064C17.8 3.39128 17.4187 3.78092 16.9483 3.78092H1.05156C0.581231 3.78092 0.199951 3.39128 0.199951 2.91064C0.199951 2.43 0.581231 2.04036 1.05156 2.04036H5.87737V1.17008Z" fill="#0C0C27"/>
<path fill-rule="evenodd" clip-rule="evenodd" d="M2.45945 6.90786C2.49139 6.61404 2.73442 6.39175 3.02372 6.39175H14.9762C15.2655 6.39175 15.5085 6.61404 15.5404 6.90786L15.7677 8.99809C16.1774 12.7658 16.1774 16.5683 15.7677 20.336L15.7453 20.5417C15.5961 21.914 14.5554 23.0081 13.2174 23.1996C10.4194 23.5999 7.58048 23.5999 4.78247 23.1996C3.44445 23.0081 2.40375 21.914 2.25455 20.5417L2.23218 20.336C1.82253 16.5683 1.82253 12.7658 2.23218 8.99809L2.45945 6.90786ZM7.5806 10.9172C7.5806 10.4365 7.19932 10.0469 6.72898 10.0469C6.25865 10.0469 5.87737 10.4365 5.87737 10.9172L5.87737 19.0398C5.87737 19.5204 6.25865 19.9101 6.72898 19.9101C7.19932 19.9101 7.5806 19.5204 7.5806 19.0398L7.5806 10.9172ZM12.1225 10.9172C12.1225 10.4365 11.7413 10.0469 11.2709 10.0469C10.8006 10.0469 10.4193 10.4365 10.4193 10.9172V19.0398C10.4193 19.5204 10.8006 19.9101 11.2709 19.9101C11.7413 19.9101 12.1225 19.5204 12.1225 19.0398V10.9172Z" fill="#0C0C27"/>
</svg>
