<svg width="30" height="30" viewBox="0 0 30 30" fill="none" xmlns="http://www.w3.org/2000/svg">
<mask id="mask0_414_467" style="mask-type:alpha" maskUnits="userSpaceOnUse" x="0" y="0" width="30" height="30">
<rect width="30" height="30" fill="#D9D9D9"/>
</mask>
<g mask="url(#mask0_414_467)">
<path d="M13.8 21H16.2V13.8H13.8V21ZM15 11.4C15.34 11.4 15.625 11.285 15.855 11.055C16.085 10.825 16.2 10.54 16.2 10.2C16.2 9.86 16.085 9.575 15.855 9.345C15.625 9.115 15.34 9 15 9C14.66 9 14.375 9.115 14.145 9.345C13.915 9.575 13.8 9.86 13.8 10.2C13.8 10.54 13.915 10.825 14.145 11.055C14.375 11.285 14.66 11.4 15 11.4ZM15 27C13.34 27 11.78 26.685 10.32 26.055C8.86 25.425 7.59 24.57 6.51 23.49C5.43 22.41 4.575 21.14 3.945 19.68C3.315 18.22 3 16.66 3 15C3 13.34 3.315 11.78 3.945 10.32C4.575 8.86 5.43 7.59 6.51 6.51C7.59 5.43 8.86 4.575 10.32 3.945C11.78 3.315 13.34 3 15 3C16.66 3 18.22 3.315 19.68 3.945C21.14 4.575 22.41 5.43 23.49 6.51C24.57 7.59 25.425 8.86 26.055 10.32C26.685 11.78 27 13.34 27 15C27 16.66 26.685 18.22 26.055 19.68C25.425 21.14 24.57 22.41 23.49 23.49C22.41 24.57 21.14 25.425 19.68 26.055C18.22 26.685 16.66 27 15 27Z" fill="#0C0C27"/>
</g>
</svg>
