<svg width="86" height="123" viewBox="0 0 86 123" fill="none" xmlns="http://www.w3.org/2000/svg">
<path opacity="0.8" d="M42.0602 68.1264C37.5302 68.1264 34.1302 65.0164 32.7302 59.5864C32.7152 59.5206 32.7152 59.4523 32.7302 59.3865L30.7302 42.1564C30.7247 42.1131 30.7278 42.069 30.7394 42.0268C30.751 41.9846 30.7708 41.9452 30.7978 41.9108C30.8248 41.8763 30.8583 41.8476 30.8965 41.8263C30.9347 41.8049 30.9767 41.7914 31.0202 41.7864C31.0644 41.7794 31.1095 41.7814 31.1528 41.7923C31.1962 41.8033 31.2368 41.8229 31.2724 41.85C31.3079 41.8771 31.3376 41.9112 31.3595 41.9501C31.3815 41.989 31.3954 42.032 31.4002 42.0764L33.4502 59.3865C34.2102 62.3865 36.3702 67.3865 42.1102 67.3865C46.5102 67.3865 49.9102 64.2465 50.7802 59.3865V59.2964V59.0564L52.7802 42.0564C52.7927 41.9678 52.8395 41.8877 52.9107 41.8334C52.9818 41.7791 53.0715 41.755 53.1602 41.7664C53.2487 41.7765 53.3297 41.8209 53.3858 41.8901C53.4419 41.9593 53.4686 42.0478 53.4602 42.1365L51.4602 59.3964C51.4648 59.443 51.4648 59.4899 51.4602 59.5364C50.4702 64.7664 46.8002 68.1264 42.0602 68.1264Z" fill="url(#paint0_linear_414_2379)"/>
<path opacity="0.8" d="M42.0602 68.1264C37.5302 68.1264 34.1302 65.0164 32.7302 59.5864C32.7152 59.5206 32.7152 59.4523 32.7302 59.3865L30.7302 42.1564C30.7247 42.1131 30.7278 42.069 30.7394 42.0268C30.751 41.9846 30.7708 41.9452 30.7978 41.9108C30.8248 41.8763 30.8583 41.8476 30.8965 41.8263C30.9347 41.8049 30.9767 41.7914 31.0202 41.7864C31.0644 41.7794 31.1095 41.7814 31.1528 41.7923C31.1962 41.8033 31.2368 41.8229 31.2724 41.85C31.3079 41.8771 31.3376 41.9112 31.3595 41.9501C31.3815 41.989 31.3954 42.032 31.4002 42.0764L33.4502 59.3865C34.2102 62.3865 36.3702 67.3865 42.1102 67.3865C46.5102 67.3865 49.9102 64.2465 50.7802 59.3865V59.2964V59.0564L52.7802 42.0564C52.7927 41.9678 52.8395 41.8877 52.9107 41.8334C52.9818 41.7791 53.0715 41.755 53.1602 41.7664C53.2487 41.7765 53.3297 41.8209 53.3858 41.8901C53.4419 41.9593 53.4686 42.0478 53.4602 42.1365L51.4602 59.3964C51.4648 59.443 51.4648 59.4899 51.4602 59.5364C50.4702 64.7664 46.8002 68.1264 42.0602 68.1264Z" fill="url(#paint1_linear_414_2379)"/>
<path d="M53.4403 104.756H30.5503V110.466C30.5503 114.156 35.6703 117.136 41.9903 117.136C48.3103 117.136 53.4403 114.136 53.4403 110.466C53.4451 110.436 53.4451 110.406 53.4403 110.376V104.756Z" fill="#101032"/>
<path d="M42.04 114.666C49.9211 114.666 56.31 110.815 56.31 106.066C56.31 101.316 49.9211 97.4658 42.04 97.4658C34.1589 97.4658 27.77 101.316 27.77 106.066C27.77 110.815 34.1589 114.666 42.04 114.666Z" fill="url(#paint2_radial_414_2379)"/>
<path style="mix-blend-mode:multiply" d="M56.1401 103.865H27.8501V106.605C27.8501 109.995 34.1801 112.535 41.9901 112.535C49.8001 112.535 56.1401 108.065 56.1401 104.675V103.865Z" fill="url(#paint3_linear_414_2379)"/>
<path d="M42.04 111.336C49.9211 111.336 56.31 107.485 56.31 102.736C56.31 97.9861 49.9211 94.1357 42.04 94.1357C34.1589 94.1357 27.77 97.9861 27.77 102.736C27.77 107.485 34.1589 111.336 42.04 111.336Z" fill="url(#paint4_radial_414_2379)"/>
<path style="mix-blend-mode:multiply" d="M56.1401 100.546H27.8501V103.276C27.8501 106.676 34.1801 109.206 41.9901 109.206C49.8001 109.206 56.1401 104.746 56.1401 101.346V100.546Z" fill="url(#paint5_linear_414_2379)"/>
<path d="M42.04 108.106C49.9211 108.106 56.31 104.256 56.31 99.5062C56.31 94.7566 49.9211 90.9062 42.04 90.9062C34.1589 90.9062 27.77 94.7566 27.77 99.5062C27.77 104.256 34.1589 108.106 42.04 108.106Z" fill="url(#paint6_radial_414_2379)"/>
<path style="mix-blend-mode:multiply" d="M56.1401 97.3057H27.8501V100.036C27.8501 103.436 34.1801 105.966 41.9901 105.966C49.8001 105.966 56.1401 101.506 56.1401 98.1057V97.3057Z" fill="url(#paint7_linear_414_2379)"/>
<path d="M42.04 104.776C49.9211 104.776 56.31 100.926 56.31 96.1762C56.31 91.4265 49.9211 87.5762 42.04 87.5762C34.1589 87.5762 27.77 91.4265 27.77 96.1762C27.77 100.926 34.1589 104.776 42.04 104.776Z" fill="url(#paint8_radial_414_2379)"/>
<path style="mix-blend-mode:multiply" d="M56.1401 93.9756H27.8501V96.7156C27.8501 100.106 34.1801 102.636 41.9901 102.636C49.8001 102.636 56.1401 98.1756 56.1401 94.7756V93.9756Z" fill="url(#paint9_linear_414_2379)"/>
<path d="M42.04 101.536C49.9211 101.536 56.31 97.6856 56.31 92.9359C56.31 88.1863 49.9211 84.3359 42.04 84.3359C34.1589 84.3359 27.77 88.1863 27.77 92.9359C27.77 97.6856 34.1589 101.536 42.04 101.536Z" fill="url(#paint10_radial_414_2379)"/>
<path style="mix-blend-mode:multiply" d="M56.1401 90.7363H27.8501V93.4763C27.8501 96.8663 34.1801 99.4063 41.9901 99.4063C49.8001 99.4063 56.1401 94.9363 56.1401 91.5463V90.7363Z" fill="url(#paint11_linear_414_2379)"/>
<path d="M57.5904 81.4453H26.4004V88.7653C26.4004 93.7653 33.4004 97.8453 41.9904 97.8453C50.5804 97.8453 57.5904 93.7753 57.5904 88.7653V81.4453Z" fill="url(#paint12_linear_414_2379)"/>
<path d="M41.9901 90.5858C50.6058 90.5858 57.5901 86.5205 57.5901 81.5058C57.5901 76.491 50.6058 72.4258 41.9901 72.4258C33.3745 72.4258 26.3901 76.491 26.3901 81.5058C26.3901 86.5205 33.3745 90.5858 41.9901 90.5858Z" fill="url(#paint13_linear_414_2379)"/>
<path style="mix-blend-mode:color-dodge" d="M41.9902 90.5457C33.4702 90.5457 26.5602 86.5457 26.4102 81.6357C26.4049 81.6889 26.4049 81.7425 26.4102 81.7957C26.4102 86.7957 33.4102 90.8757 42.0002 90.8757C50.5902 90.8757 57.6002 86.8057 57.6002 81.7957C57.6002 81.7357 57.6002 81.6857 57.6002 81.6357C57.4302 86.5757 50.5102 90.5457 41.9902 90.5457Z" fill="url(#paint14_radial_414_2379)"/>
<path d="M41.9901 89.4462C49.3962 89.4462 55.4001 85.9495 55.4001 81.6362C55.4001 77.3228 49.3962 73.8262 41.9901 73.8262C34.5839 73.8262 28.5801 77.3228 28.5801 81.6362C28.5801 85.9495 34.5839 89.4462 41.9901 89.4462Z" fill="#6874A8"/>
<path d="M41.9903 79.1062C47.8103 79.1062 52.7403 81.2662 54.6003 84.2762C55.1093 83.4886 55.3865 82.5738 55.4003 81.6362C55.4003 77.3262 49.4003 73.8262 41.9903 73.8262C34.5803 73.8262 28.5903 77.3262 28.5903 81.6362C28.6042 82.5738 28.8814 83.4886 29.3904 84.2762C31.2504 81.2662 36.1803 79.1062 41.9903 79.1062Z" fill="url(#paint15_linear_414_2379)"/>
<path opacity="0.8" d="M39.6202 86.8155H44.5103C45.4677 86.8155 46.3859 86.4352 47.0629 85.7582C47.7399 85.0812 48.1202 84.163 48.1202 83.2055V71.5155C47.9828 70.0046 47.2854 68.5997 46.1651 67.5766C45.0448 66.5536 43.5824 65.9863 42.0652 65.9863C40.5481 65.9863 39.0857 66.5536 37.9654 67.5766C36.8451 68.5997 36.1477 70.0046 36.0103 71.5155V71.5855V83.2055C36.0103 84.163 36.3906 85.0812 37.0676 85.7582C37.7446 86.4352 38.6628 86.8155 39.6202 86.8155Z" fill="url(#paint16_linear_414_2379)"/>
<path opacity="0.8" d="M41.2503 66.7657H42.9103C43.5703 66.7657 44.1103 66.0257 44.1103 65.1157V50.2557C44.1852 49.9523 44.19 49.6358 44.1245 49.3302C44.059 49.0246 43.9248 48.738 43.7321 48.4919C43.5394 48.2459 43.2932 48.0469 43.0122 47.9101C42.7312 47.7733 42.4228 47.7021 42.1103 47.7021C41.7978 47.7021 41.4893 47.7733 41.2084 47.9101C40.9274 48.0469 40.6812 48.2459 40.4885 48.4919C40.2958 48.738 40.1616 49.0246 40.0961 49.3302C40.0306 49.6358 40.0354 49.9523 40.1103 50.2557V65.0857C40.0603 66.0257 40.5903 66.7657 41.2503 66.7657Z" fill="url(#paint17_linear_414_2379)"/>
<path opacity="0.8" d="M42.1003 69.7456C43.8897 69.7456 45.3403 68.5009 45.3403 66.9655C45.3403 65.4302 43.8897 64.1855 42.1003 64.1855C40.3109 64.1855 38.8604 65.4302 38.8604 66.9655C38.8604 68.5009 40.3109 69.7456 42.1003 69.7456Z" fill="url(#paint18_radial_414_2379)"/>
<path opacity="0.7" d="M38.0402 8.74518C31.5543 9.51414 25.4372 12.1718 20.4489 16.388C15.4606 20.6042 11.821 26.193 9.98232 32.4603C8.14359 38.7275 8.18675 45.3968 10.1065 51.6397C12.0262 57.8826 15.7378 63.4239 20.7802 67.5752C22.7686 69.2272 24.3665 71.2989 25.4592 73.6417C26.5519 75.9845 27.1123 78.5401 27.1002 81.1252V81.2152C27.1002 81.3752 27.1002 82.0452 27.1002 82.2152C27.104 82.5376 27.1685 82.8565 27.2902 83.1552C28.4802 87.2552 34.6102 90.3752 41.9902 90.3752C49.3702 90.3752 55.4902 87.2552 56.7002 83.1652C56.8278 82.8473 56.8924 82.5077 56.8902 82.1652C56.8902 81.9952 56.8902 81.3352 56.8902 81.1652C56.9083 78.5132 57.5067 75.8972 58.6435 73.5011C59.7802 71.105 61.4277 68.9868 63.4702 67.2952C68.9678 62.6768 72.8269 56.4066 74.4733 49.4179C76.1196 42.4291 75.4652 35.0956 72.6073 28.5089C69.7494 21.9222 64.8409 16.4344 58.6124 12.8625C52.384 9.29054 45.1686 7.82541 38.0402 8.68517V8.74518Z" fill="url(#paint19_radial_414_2379)"/>
<path opacity="0.7" d="M38.0402 8.74518C31.5543 9.51414 25.4372 12.1718 20.4489 16.388C15.4606 20.6042 11.821 26.193 9.98232 32.4603C8.14359 38.7275 8.18675 45.3968 10.1065 51.6397C12.0262 57.8826 15.7378 63.4239 20.7802 67.5752C22.7686 69.2272 24.3665 71.2989 25.4592 73.6417C26.5519 75.9845 27.1123 78.5401 27.1002 81.1252V81.2152C27.1002 81.3752 27.1002 82.0452 27.1002 82.2152C27.104 82.5376 27.1685 82.8565 27.2902 83.1552C28.4802 87.2552 34.6102 90.3752 41.9902 90.3752C49.3702 90.3752 55.4902 87.2552 56.7002 83.1652C56.8278 82.8473 56.8924 82.5077 56.8902 82.1652C56.8902 81.9952 56.8902 81.3352 56.8902 81.1652C56.9083 78.5132 57.5067 75.8972 58.6435 73.5011C59.7802 71.105 61.4277 68.9868 63.4702 67.2952C68.9678 62.6768 72.8269 56.4066 74.4733 49.4179C76.1196 42.4291 75.4652 35.0956 72.6073 28.5089C69.7494 21.9222 64.8409 16.4344 58.6124 12.8625C52.384 9.29054 45.1686 7.82541 38.0402 8.68517V8.74518Z" fill="url(#paint20_radial_414_2379)"/>
<g style="mix-blend-mode:color-dodge">
<path opacity="0.25" d="M70.2857 49.6442C75.5602 33.5071 66.7542 16.1496 50.6171 10.8752C34.48 5.60077 17.1225 14.4067 11.848 30.5439C6.57362 46.681 15.3796 64.0385 31.5167 69.3129C47.6538 74.5873 65.0113 65.7814 70.2857 49.6442Z" fill="url(#paint21_linear_414_2379)"/>
<path opacity="0.28" d="M68.9242 48.6821C73.7542 32.9429 64.9105 16.2683 49.1713 11.4383C33.4322 6.60833 16.7576 15.452 11.9276 31.1912C7.0976 46.9303 15.9413 63.6049 31.6804 68.4349C47.4196 73.2649 64.0942 64.4212 68.9242 48.6821Z" fill="url(#paint22_linear_414_2379)"/>
<path opacity="0.31" d="M55.0159 64.2771C68.5538 55.8538 72.7 38.0508 64.2767 24.5129C55.8534 10.9751 38.0503 6.82887 24.5125 15.2522C10.9746 23.6755 6.82844 41.4785 15.2517 55.0164C23.675 68.5543 41.4781 72.7004 55.0159 64.2771Z" fill="url(#paint23_linear_414_2379)"/>
<path opacity="0.33" d="M66.8381 42.8661C68.6652 27.5438 57.7251 13.6415 42.4028 11.8145C27.0805 9.98738 13.1782 20.9274 11.3512 36.2497C9.5241 51.572 20.4641 65.4743 35.7864 67.3014C51.1087 69.1284 65.011 58.1884 66.8381 42.8661Z" fill="url(#paint24_linear_414_2379)"/>
<path opacity="0.36" d="M61.7678 56.6011C70.5689 44.5182 67.9085 27.5883 55.8256 18.7871C43.7426 9.98597 26.8127 12.6464 18.0116 24.7293C9.21044 36.8123 11.8708 53.7422 23.9538 62.5433C36.0367 71.3445 52.9666 68.6841 61.7678 56.6011Z" fill="url(#paint25_linear_414_2379)"/>
<path opacity="0.38" d="M37.8005 65.2953C52.1985 65.2953 63.8705 53.6233 63.8705 39.2253C63.8705 24.8272 52.1985 13.1553 37.8005 13.1553C23.4024 13.1553 11.7305 24.8272 11.7305 39.2253C11.7305 53.6233 23.4024 65.2953 37.8005 65.2953Z" fill="url(#paint26_linear_414_2379)"/>
<path opacity="0.41" d="M59.4321 46.7353C63.0421 33.4062 55.1632 19.6744 41.8342 16.0645C28.5051 12.4545 14.7733 20.3334 11.1633 33.6625C7.5534 46.9916 15.4323 60.7233 28.7614 64.3333C42.0904 67.9432 55.8222 60.0644 59.4321 46.7353Z" fill="url(#paint27_linear_414_2379)"/>
<path opacity="0.44" d="M41.9154 62.505C54.9456 59.5064 63.0778 46.5124 60.0791 33.4822C57.0804 20.4519 44.0864 12.3198 31.0562 15.3185C18.026 18.3171 9.8938 31.3111 12.8925 44.3413C15.8912 57.3716 28.8852 65.5037 41.9154 62.505Z" fill="url(#paint28_linear_414_2379)"/>
<path opacity="0.46" d="M46.7881 59.2472C58.135 53.2013 62.4323 39.1015 56.3863 27.7545C50.3403 16.4076 36.2406 12.1103 24.8936 18.1563C13.5467 24.2023 9.24939 38.302 15.2954 49.649C21.3414 60.9959 35.4411 65.2932 46.7881 59.2472Z" fill="url(#paint29_linear_414_2379)"/>
<path opacity="0.49" d="M39.4919 60.4628C51.5979 58.0811 59.481 46.3365 57.0993 34.2305C54.7176 22.1245 42.9731 14.2414 30.8671 16.6231C18.7611 19.0048 10.878 30.7494 13.2597 42.8554C15.6414 54.9614 27.3859 62.8445 39.4919 60.4628Z" fill="url(#paint30_linear_414_2379)"/>
<path opacity="0.51" d="M54.9884 44.7636C58.5126 33.4766 52.2195 21.4697 40.9325 17.9456C29.6455 14.4214 17.6386 20.7145 14.1145 32.0015C10.5903 43.2885 16.8833 55.2954 28.1704 58.8195C39.4574 62.3437 51.4643 56.0507 54.9884 44.7636Z" fill="url(#paint31_linear_414_2379)"/>
<path opacity="0.54" d="M34.0023 58.6818C45.3129 58.6127 54.4259 49.3877 54.3568 38.0771C54.2877 26.7665 45.0627 17.6535 33.7521 17.7226C22.4415 17.7916 13.3285 27.0167 13.3976 38.3273C13.4667 49.6379 22.6917 58.7509 34.0023 58.6818Z" fill="url(#paint32_linear_414_2379)"/>
<path opacity="0.57" d="M33.2204 57.5756C44.0176 57.5756 52.7704 48.8228 52.7704 38.0256C52.7704 27.2284 44.0176 18.4756 33.2204 18.4756C22.4232 18.4756 13.6704 27.2284 13.6704 38.0256C13.6704 48.8228 22.4232 57.5756 33.2204 57.5756Z" fill="url(#paint33_linear_414_2379)"/>
<path opacity="0.59" d="M40.363 54.7305C49.6969 50.4275 53.7752 39.3726 49.4722 30.0387C45.1692 20.7048 34.1144 16.6264 24.7804 20.9294C15.4465 25.2324 11.3681 36.2873 15.6711 45.6212C19.9741 54.9552 31.029 59.0335 40.363 54.7305Z" fill="url(#paint34_linear_414_2379)"/>
<path opacity="0.62" d="M47.5901 29.5052C49.2057 32.6063 49.8655 36.1168 49.4861 39.5929C49.1066 43.0689 47.7049 46.3544 45.4582 49.0338C43.2115 51.7133 40.2207 53.6663 36.864 54.646C33.5074 55.6257 29.9356 55.5881 26.6003 54.5379C23.2651 53.4876 20.3161 51.472 18.1264 48.7458C15.9367 46.0196 14.6045 42.7054 14.2984 39.2221C13.9922 35.7388 14.7258 32.243 16.4064 29.1766C18.0871 26.1103 20.6392 23.6112 23.7401 21.9952C25.7992 20.9222 28.0495 20.2653 30.3625 20.062C32.6755 19.8587 35.0059 20.113 37.2206 20.8104C39.4353 21.5078 41.491 22.6346 43.2702 24.1265C45.0494 25.6183 46.5173 27.446 47.5901 29.5052Z" fill="url(#paint35_linear_414_2379)"/>
<path opacity="0.64" d="M36.7766 53.3287C45.5117 50.2834 50.1242 40.7334 47.0789 31.9983C44.0336 23.2631 34.4837 18.6506 25.7485 21.6959C17.0134 24.7412 12.4008 34.2912 15.4462 43.0263C18.4915 51.7615 28.0414 56.374 36.7766 53.3287Z" fill="url(#paint36_linear_414_2379)"/>
<path opacity="0.67" d="M46.3842 38.7051C47.1345 30.0058 40.6907 22.3453 31.9913 21.5949C23.292 20.8445 15.6315 27.2884 14.8811 35.9877C14.1308 44.6871 20.5747 52.3476 29.274 53.0979C37.9733 53.8483 45.6338 47.4044 46.3842 38.7051Z" fill="url(#paint37_linear_414_2379)"/>
<path opacity="0.7" d="M44.25 41.2076C46.4917 33.3013 41.8996 25.0747 33.9933 22.8329C26.087 20.5912 17.8603 25.1833 15.6186 33.0896C13.3769 40.9959 17.9689 49.2226 25.8752 51.4643C33.7816 53.706 42.0082 49.114 44.25 41.2076Z" fill="url(#paint38_linear_414_2379)"/>
<path opacity="0.72" d="M30.5114 50.8696C38.1871 50.2048 43.8705 43.4436 43.2057 35.7679C42.5409 28.0923 35.7797 22.4089 28.104 23.0736C20.4284 23.7384 14.745 30.4997 15.4097 38.1753C16.0745 45.851 22.8358 51.5344 30.5114 50.8696Z" fill="url(#paint39_linear_414_2379)"/>
<path opacity="0.75" d="M41.0371 40.7674C43.2245 33.9174 39.4448 26.5912 32.5948 24.4038C25.7449 22.2163 18.4186 25.9961 16.2312 32.846C14.0438 39.696 17.8235 47.0223 24.6735 49.2097C31.5234 51.3971 38.8497 47.6174 41.0371 40.7674Z" fill="url(#paint40_linear_414_2379)"/>
<path opacity="0.77" d="M38.7103 31.0552C39.8129 33.1738 40.2627 35.5717 40.0029 37.9459C39.7431 40.3201 38.7853 42.564 37.2506 44.394C35.7159 46.224 33.6732 47.558 31.3806 48.2275C29.088 48.8969 26.6484 48.8718 24.3701 48.1552C22.0918 47.4386 20.077 46.0627 18.5804 44.2014C17.0838 42.3401 16.1725 40.077 15.9617 37.698C15.7509 35.3189 16.25 32.9308 17.3961 30.8354C18.5421 28.7399 20.2835 27.0312 22.4003 25.9252C23.8078 25.1897 25.3465 24.7391 26.9283 24.5989C28.5102 24.4587 30.1041 24.6318 31.619 25.1083C33.1339 25.5848 34.54 26.3553 35.7568 27.3757C36.9736 28.3961 37.9772 29.6465 38.7103 31.0552Z" fill="url(#paint41_linear_414_2379)"/>
<path opacity="0.8" d="M37.2205 31.3154C38.2448 33.2711 38.6656 35.4868 38.4294 37.6818C38.1932 39.8769 37.3106 41.9523 35.8937 43.6453C34.4767 45.3383 32.5891 46.5725 30.47 47.1915C28.3509 47.8106 26.0956 47.7867 23.9901 47.1227C21.8847 46.4588 20.0237 45.1848 18.643 43.4621C17.2623 41.7394 16.4241 39.6457 16.2345 37.4461C16.045 35.2466 16.5127 33.0403 17.5783 31.1068C18.644 29.1733 20.2596 27.5997 22.2205 26.5854C24.8383 25.2313 27.8857 24.9687 30.6966 25.855C33.5074 26.7414 35.853 28.7046 37.2205 31.3154Z" fill="url(#paint42_linear_414_2379)"/>
</g>
<path opacity="0.8" d="M44.43 48.7358C44.5508 49.2206 44.5172 49.731 44.334 50.1958C44.1508 50.6606 43.8272 51.0566 43.4081 51.3287C42.9891 51.6008 42.4956 51.7353 41.9965 51.7135C41.4974 51.6917 41.0175 51.5147 40.6238 51.2072C40.2301 50.8996 39.9421 50.4769 39.8001 49.9979C39.6582 49.5189 39.6692 49.0075 39.8317 48.5351C39.9942 48.0627 40.3001 47.6527 40.7067 47.3625C41.1133 47.0722 41.6004 46.916 42.1 46.9158C42.6489 46.856 43.1995 47.0127 43.6346 47.3526C44.0698 47.6925 44.3551 48.1887 44.43 48.7358Z" fill="url(#paint43_radial_414_2379)"/>
<path style="mix-blend-mode:color-dodge" opacity="0.8" d="M39.3401 94.3961C39.3401 107.586 37.0501 116.766 34.2301 116.766C31.4101 116.766 29.1201 107.586 29.1201 94.3961C29.1201 81.2061 31.4101 70.4961 34.2301 70.4961C37.0501 70.4961 39.3401 81.1961 39.3401 94.3961Z" fill="url(#paint44_radial_414_2379)"/>
<g style="mix-blend-mode:color-dodge">
<path opacity="0.25" d="M67.2584 65.6643C77.2207 55.702 77.2207 39.5499 67.2584 29.5877C57.2962 19.6254 41.1441 19.6254 31.1819 29.5877C21.2196 39.55 21.2196 55.702 31.1818 65.6643C41.1441 75.6265 57.2962 75.6265 67.2584 65.6643Z" fill="url(#paint45_linear_414_2379)"/>
<path opacity="0.28" d="M59.6187 70.4977C72.0835 64.9689 77.7552 50.4927 72.2868 38.1643C66.8184 25.8358 52.2808 20.3236 39.816 25.8525C27.3513 31.3813 21.6796 45.8575 27.1479 58.1859C32.6163 70.5144 47.154 76.0265 59.6187 70.4977Z" fill="url(#paint46_linear_414_2379)"/>
<path opacity="0.31" d="M59.7665 70.057C71.798 64.6549 77.2711 50.7428 71.9912 38.9834C66.7113 27.224 52.6776 22.0705 40.6462 27.4725C28.6147 32.8746 23.1416 46.7868 28.4215 58.5461C33.7014 70.3055 47.7351 75.4591 59.7665 70.057Z" fill="url(#paint47_linear_414_2379)"/>
<path opacity="0.33" d="M59.9091 69.5986C71.5018 64.3253 76.7748 50.9828 71.6867 39.7974C66.5986 28.6119 53.0762 23.8191 41.4835 29.0925C29.8909 34.3658 24.6179 47.7082 29.706 58.8937C34.794 70.0792 48.3164 74.8719 59.9091 69.5986Z" fill="url(#paint48_linear_414_2379)"/>
<path opacity="0.36" d="M60.0516 69.2061C71.2103 64.0595 76.2865 51.2806 71.3898 40.6636C66.493 30.0465 53.4775 25.6119 42.3188 30.7584C31.1601 35.905 26.0839 48.684 30.9806 59.301C35.8774 69.918 48.8929 74.3527 60.0516 69.2061Z" fill="url(#paint49_linear_414_2379)"/>
<path opacity="0.38" d="M30.5906 53.6458C29.3706 42.5458 37.8306 32.1558 49.4806 30.4258C61.1306 28.6958 71.5506 36.3058 72.7706 47.4258C73.9906 58.5458 65.5306 68.9258 53.9106 70.6258C42.2906 72.3258 31.8106 64.7458 30.5906 53.6458Z" fill="url(#paint50_linear_414_2379)"/>
<path opacity="0.41" d="M60.3349 68.2864C70.622 63.3885 75.3026 51.7334 70.7894 42.2541C66.2761 32.7748 54.2779 29.0608 43.9908 33.9587C33.7036 38.8566 29.023 50.5117 33.5363 59.991C38.0496 69.4703 50.0477 73.1843 60.3349 68.2864Z" fill="url(#paint51_linear_414_2379)"/>
<path opacity="0.44" d="M60.488 67.8008C70.3423 63.0222 74.8262 51.9213 70.503 43.0062C66.1799 34.0912 54.6868 30.7379 44.8325 35.5165C34.9782 40.2951 30.4944 51.396 34.8175 60.3111C39.1407 69.2262 50.6338 72.5794 60.488 67.8008Z" fill="url(#paint52_linear_414_2379)"/>
<path opacity="0.46" d="M60.6357 67.3844C70.057 62.7261 74.3467 52.1793 70.2171 43.8274C66.0876 35.4755 55.1025 32.4813 45.6812 37.1396C36.26 41.7979 31.9702 52.3448 36.0998 60.6966C40.2294 69.0485 51.2145 72.0428 60.6357 67.3844Z" fill="url(#paint53_linear_414_2379)"/>
<path opacity="0.49" d="M60.7792 66.9879C69.7708 62.4459 73.8685 52.4458 69.9316 44.652C65.9947 36.8583 55.5141 34.2223 46.5225 38.7643C37.5308 43.3063 33.4332 53.3063 37.3701 61.1001C41.307 68.8938 51.7876 71.5298 60.7792 66.9879Z" fill="url(#paint54_linear_414_2379)"/>
<path opacity="0.51" d="M60.9206 66.5546C69.4807 62.1269 73.386 52.672 69.6434 45.4364C65.9009 38.2008 55.9276 35.9245 47.3676 40.3522C38.8075 44.7798 34.9021 54.2347 38.6447 61.4703C42.3872 68.7059 52.3605 70.9822 60.9206 66.5546Z" fill="url(#paint55_linear_414_2379)"/>
<path opacity="0.54" d="M61.0605 66.1077C69.1917 61.7897 72.9066 52.872 69.3579 46.1895C65.8093 39.507 56.3409 37.5902 48.2097 41.9082C40.0785 46.2261 36.3636 55.1438 39.9122 61.8263C43.4609 68.5088 52.9293 70.4256 61.0605 66.1077Z" fill="url(#paint56_linear_414_2379)"/>
<path opacity="0.57" d="M61.1982 65.7307C68.9037 61.5191 72.4317 53.1312 69.0783 46.996C65.7249 40.8607 56.7599 39.3012 49.0545 43.5129C41.349 47.7245 37.821 56.1123 41.1744 62.2476C44.5278 68.3829 53.4928 69.9423 61.1982 65.7307Z" fill="url(#paint57_linear_414_2379)"/>
<path opacity="0.59" d="M61.3395 65.3214C68.6207 61.2103 71.9631 53.3435 68.8051 47.7504C65.6472 42.1573 57.1845 40.9559 49.9034 45.067C42.6222 49.1781 39.2798 57.0449 42.4378 62.638C45.5958 68.2311 54.0584 69.4325 61.3395 65.3214Z" fill="url(#paint58_linear_414_2379)"/>
<path opacity="0.62" d="M42.8405 60.926C41.4305 55.126 46.2305 48.126 53.5605 45.296C60.8905 42.466 67.9805 44.886 69.3905 50.686C70.8005 56.486 65.9905 63.486 58.6605 66.306C51.3305 69.126 44.2405 66.676 42.8405 60.926Z" fill="url(#paint59_linear_414_2379)"/>
<path opacity="0.64" d="M61.5971 64.539C68.0324 60.6124 71.0106 53.7602 68.249 49.2343C65.4874 44.7083 58.0319 44.2224 51.5965 48.149C45.1612 52.0756 42.183 58.9278 44.9446 63.4538C47.7062 67.9797 55.1617 68.4656 61.5971 64.539Z" fill="url(#paint60_linear_414_2379)"/>
<path opacity="0.67" d="M61.7404 64.1442C67.7563 60.2969 70.5564 53.9304 67.9944 49.9244C65.4325 45.9184 58.4787 45.7898 52.4627 49.6372C46.4467 53.4846 43.6467 59.851 46.2086 63.857C48.7706 67.863 55.7244 67.9916 61.7404 64.1442Z" fill="url(#paint61_linear_414_2379)"/>
<path opacity="0.7" d="M61.8628 63.7953C67.4619 60.0172 70.0875 54.1191 67.7274 50.6214C65.3673 47.1238 58.9152 47.351 53.3161 51.129C47.7171 54.9071 45.0915 60.8052 47.4516 64.3028C49.8117 67.8005 56.2638 67.5733 61.8628 63.7953Z" fill="url(#paint62_linear_414_2379)"/>
<path opacity="0.72" d="M61.9838 63.5114C67.1704 59.7885 69.6258 54.3336 67.4681 51.3276C65.3104 48.3215 59.3567 48.9025 54.17 52.6254C48.9834 56.3482 46.528 61.8031 48.6857 64.8092C50.8434 67.8153 56.7972 67.2342 61.9838 63.5114Z" fill="url(#paint63_linear_414_2379)"/>
<path opacity="0.75" d="M49.6403 64.9258C48.1203 62.0758 50.9003 56.9258 55.8303 53.5258C60.7603 50.1258 66.0003 49.6158 67.5103 52.4658C69.0203 55.3158 66.2503 60.4658 61.3203 63.8758C56.3903 67.2858 51.1503 67.7458 49.6403 64.9258Z" fill="url(#paint64_linear_414_2379)"/>
<path opacity="0.77" d="M51.0006 65.6956C49.4606 63.4256 51.8306 58.6956 56.2906 55.1356C60.7506 51.5756 65.6006 50.5156 67.1406 52.7856C68.6806 55.0556 66.3106 59.7856 61.8506 63.3456C57.3906 66.9056 52.5406 67.9256 51.0006 65.6956Z" fill="url(#paint65_linear_414_2379)"/>
<path opacity="0.8" d="M52.3603 66.4956C50.8003 64.8156 52.7603 60.4956 56.7403 56.7756C60.7203 53.0556 65.2003 51.4656 66.7403 53.1456C68.2803 54.8256 66.3403 59.1456 62.3603 62.8656C58.3803 66.5856 53.9103 68.1756 52.3603 66.4956Z" fill="url(#paint66_linear_414_2379)"/>
</g>
<path style="mix-blend-mode:color-dodge" d="M32.3303 54.3656C43.4146 54.3656 52.4002 45.3799 52.4002 34.2956C52.4002 23.2112 43.4146 14.2256 32.3303 14.2256C21.2459 14.2256 12.2603 23.2112 12.2603 34.2956C12.2603 45.3799 21.2459 54.3656 32.3303 54.3656Z" fill="url(#paint67_radial_414_2379)"/>
<path style="mix-blend-mode:color-dodge" d="M56.0405 97.4863C56.0405 112.026 54.5705 122.136 52.7505 122.136C50.9305 122.136 49.4604 112.026 49.4604 97.4863C49.4604 82.9463 50.9305 71.1562 52.7505 71.1562C54.5705 71.1562 56.0405 82.9263 56.0405 97.4863Z" fill="url(#paint68_radial_414_2379)"/>
<path d="M50.4703 44.4553H50.3603C50.1037 44.4422 49.8542 44.3671 49.633 44.2365C49.4119 44.1058 49.2256 43.9236 49.0902 43.7053L47.5303 41.2953C47.4475 41.1715 47.3381 41.0677 47.21 40.9916C47.082 40.9154 46.9386 40.8689 46.7903 40.8553C46.6424 40.8484 46.4948 40.8744 46.3582 40.9315C46.2215 40.9885 46.0993 41.0752 46.0003 41.1853L44.0003 43.4653C43.8456 43.6351 43.6572 43.7708 43.4472 43.8636C43.2371 43.9564 43.0099 44.0044 42.7803 44.0044C42.5506 44.0044 42.3234 43.9564 42.1133 43.8636C41.9033 43.7708 41.7149 43.6351 41.5602 43.4653L38.9103 40.6153C38.808 40.5027 38.68 40.4165 38.5372 40.3643C38.3944 40.312 38.241 40.2952 38.0902 40.3153C37.9411 40.3337 37.798 40.3856 37.6716 40.4669C37.5452 40.5483 37.4388 40.6571 37.3603 40.7853L35.7402 43.5953C35.6196 43.8056 35.4538 43.9865 35.2548 44.125C35.0559 44.2635 34.8286 44.3562 34.5895 44.3963C34.3505 44.4365 34.1055 44.4232 33.8721 44.3573C33.6388 44.2914 33.423 44.1746 33.2402 44.0153L30.8303 41.9253C30.7613 41.8656 30.7189 41.781 30.7123 41.69C30.7058 41.5991 30.7356 41.5092 30.7953 41.4403C30.8549 41.3713 30.9395 41.3289 31.0305 41.3223C31.1214 41.3158 31.2113 41.3456 31.2803 41.4053L33.6603 43.4753C33.7689 43.5657 33.8955 43.6321 34.0317 43.67C34.1678 43.7079 34.3105 43.7165 34.4503 43.6953C34.5906 43.6699 34.7238 43.6149 34.8411 43.5338C34.9584 43.4528 35.057 43.3476 35.1303 43.2253L36.7503 40.4153C36.88 40.1918 37.0604 40.002 37.277 39.861C37.4935 39.72 37.7402 39.6318 37.997 39.6036C38.2539 39.5754 38.5138 39.6079 38.7558 39.6985C38.9978 39.7891 39.2151 39.9353 39.3903 40.1253L42.0303 42.9853C42.1198 43.0844 42.2294 43.1634 42.3518 43.2168C42.4743 43.2703 42.6067 43.297 42.7402 43.2953C42.8746 43.2958 43.0075 43.2675 43.13 43.2123C43.2524 43.1571 43.3617 43.0763 43.4503 42.9753L45.4503 40.6853C45.6186 40.4975 45.828 40.3512 46.0621 40.2575C46.2963 40.1638 46.5489 40.1254 46.8003 40.1453C47.0538 40.1605 47.3001 40.2355 47.5191 40.3641C47.738 40.4927 47.9235 40.6713 48.0602 40.8853L49.6202 43.2953C49.703 43.4191 49.8124 43.5229 49.9405 43.599C50.0685 43.6751 50.2119 43.7217 50.3603 43.7353C50.5103 43.7484 50.6613 43.7253 50.8005 43.6678C50.9397 43.6104 51.0631 43.5203 51.1603 43.4053L52.9103 41.3453C52.9768 41.2834 53.0644 41.2491 53.1553 41.2491C53.2461 41.2491 53.3337 41.2834 53.4002 41.3453C53.4638 41.409 53.4994 41.4953 53.4994 41.5853C53.4994 41.6753 53.4638 41.7616 53.4002 41.8253L51.7203 43.9253C51.5614 44.0972 51.3678 44.2334 51.1523 44.3248C50.9368 44.4162 50.7043 44.4607 50.4703 44.4553Z" fill="white"/>
<path opacity="0.5" d="M50.3 45.3353C49.8986 45.3192 49.5071 45.2062 49.1588 45.0059C48.8105 44.8057 48.5159 44.5241 48.3 44.1853L46.74 41.7753L45.96 41.1753L46.63 41.7653L44.63 44.0453C44.3956 44.3112 44.1081 44.5251 43.786 44.6732C43.464 44.8213 43.1145 44.9004 42.76 44.9053C42.4054 44.907 42.0542 44.835 41.7289 44.6938C41.4035 44.5527 41.1111 44.3455 40.87 44.0853L38.23 41.2253H38.12L36.49 44.0353C36.3038 44.3601 36.0474 44.6391 35.7394 44.8519C35.4314 45.0648 35.0796 45.206 34.71 45.2653C34.5704 45.2806 34.4296 45.2806 34.29 45.2653C33.6804 45.2637 33.0914 45.0438 32.63 44.6453L30.25 42.5753C30.1266 42.4705 30.025 42.3423 29.9512 42.1982C29.8775 42.054 29.8329 41.8967 29.82 41.7353C29.801 41.408 29.9084 41.0858 30.12 40.8353C30.2379 40.7026 30.3827 40.5965 30.5448 40.524C30.7069 40.4516 30.8825 40.4146 31.06 40.4153C31.3527 40.4137 31.6364 40.5165 31.86 40.7053L34.25 42.7753L35.13 43.2053L34.36 42.7553L35.98 39.9453C36.1798 39.6011 36.4576 39.3087 36.7911 39.0915C37.1246 38.8744 37.5044 38.7387 37.9 38.6953H38.18C38.5314 38.6958 38.8789 38.7688 39.2007 38.91C39.5225 39.0511 39.8116 39.2572 40.05 39.5153L42.68 42.3853H42.79L44.79 40.0953C45.0272 39.8282 45.3182 39.6144 45.644 39.4679C45.9697 39.3214 46.3228 39.2456 46.68 39.2453H46.88C47.2708 39.2765 47.6491 39.3974 47.9856 39.5986C48.322 39.7998 48.6076 40.0758 48.82 40.4053L50.38 42.8153H50.44L52.23 40.7353C52.3354 40.6121 52.4642 40.5109 52.6089 40.4377C52.7535 40.3644 52.9113 40.3204 53.073 40.3084C53.2347 40.2963 53.3972 40.3163 53.5512 40.3673C53.7051 40.4182 53.8474 40.4991 53.97 40.6053C54.2151 40.818 54.367 41.1183 54.3932 41.4417C54.4193 41.7652 54.3177 42.086 54.11 42.3353L52.35 44.3953C52.1126 44.6753 51.8168 44.9 51.4834 45.0537C51.1501 45.2075 50.7871 45.2865 50.42 45.2853L50.3 45.3353Z" fill="#FFE585"/>
<defs>
<linearGradient id="paint0_linear_414_2379" x1="53.4502" y1="54.9564" x2="30.6702" y2="54.9564" gradientUnits="userSpaceOnUse">
<stop offset="0.04" stop-color="#959FE5"/>
<stop offset="0.09" stop-color="#A4ADE7"/>
<stop offset="0.21" stop-color="#CDD1ED"/>
<stop offset="0.3" stop-color="#F1F2F2"/>
<stop offset="0.36" stop-color="#E0E2EF"/>
<stop offset="0.46" stop-color="#C5CAE9"/>
<stop offset="0.56" stop-color="#B5BBE6"/>
<stop offset="0.63" stop-color="#AFB6E5"/>
<stop offset="0.73" stop-color="#B2B9E6"/>
<stop offset="0.8" stop-color="#BBC1EB"/>
<stop offset="0.86" stop-color="#CBD0F2"/>
<stop offset="0.87" stop-color="#CED3F4"/>
<stop offset="0.99" stop-color="#AFB6E5"/>
</linearGradient>
<linearGradient id="paint1_linear_414_2379" x1="42.0302" y1="43.1664" x2="41.3602" y2="67.2764" gradientUnits="userSpaceOnUse">
<stop offset="0.04" stop-color="#FF9E6E"/>
<stop offset="0.3" stop-color="#FFAD73"/>
<stop offset="0.82" stop-color="#FFD680"/>
<stop offset="1" stop-color="#FFE585"/>
</linearGradient>
<radialGradient id="paint2_radial_414_2379" cx="0" cy="0" r="1" gradientUnits="userSpaceOnUse" gradientTransform="translate(42.04 114.206) scale(17.18 10.308)">
<stop offset="0.06" stop-color="#7D86AD"/>
<stop offset="0.29" stop-color="#7F88AF"/>
<stop offset="0.41" stop-color="#878FB5"/>
<stop offset="0.5" stop-color="#949CBF"/>
<stop offset="0.57" stop-color="#A7AECE"/>
<stop offset="0.64" stop-color="#BFC5E1"/>
<stop offset="0.7" stop-color="#DCE1F8"/>
<stop offset="0.72" stop-color="#E5E9FF"/>
<stop offset="0.75" stop-color="#DBDFFA"/>
<stop offset="0.84" stop-color="#C3C9EE"/>
<stop offset="0.93" stop-color="#B4BBE7"/>
<stop offset="1" stop-color="#AFB6E5"/>
</radialGradient>
<linearGradient id="paint3_linear_414_2379" x1="41.9901" y1="112.925" x2="41.9901" y2="100.815" gradientUnits="userSpaceOnUse">
<stop stop-color="white"/>
<stop offset="1" stop-color="#AFB6E5"/>
</linearGradient>
<radialGradient id="paint4_radial_414_2379" cx="0" cy="0" r="1" gradientUnits="userSpaceOnUse" gradientTransform="translate(42.04 110.894) scale(17.18 10.308)">
<stop offset="0.06" stop-color="#7D86AD"/>
<stop offset="0.29" stop-color="#7F88AF"/>
<stop offset="0.41" stop-color="#878FB5"/>
<stop offset="0.5" stop-color="#949CBF"/>
<stop offset="0.57" stop-color="#A7AECE"/>
<stop offset="0.64" stop-color="#BFC5E1"/>
<stop offset="0.7" stop-color="#DCE1F8"/>
<stop offset="0.72" stop-color="#E5E9FF"/>
<stop offset="0.75" stop-color="#DBDFFA"/>
<stop offset="0.84" stop-color="#C3C9EE"/>
<stop offset="0.93" stop-color="#B4BBE7"/>
<stop offset="1" stop-color="#AFB6E5"/>
</radialGradient>
<linearGradient id="paint5_linear_414_2379" x1="41.9901" y1="109.596" x2="41.9901" y2="97.4859" gradientUnits="userSpaceOnUse">
<stop stop-color="white"/>
<stop offset="1" stop-color="#AFB6E5"/>
</linearGradient>
<radialGradient id="paint6_radial_414_2379" cx="0" cy="0" r="1" gradientUnits="userSpaceOnUse" gradientTransform="translate(42.04 107.672) scale(17.18 10.308)">
<stop offset="0.06" stop-color="#7D86AD"/>
<stop offset="0.29" stop-color="#7F88AF"/>
<stop offset="0.41" stop-color="#878FB5"/>
<stop offset="0.5" stop-color="#949CBF"/>
<stop offset="0.57" stop-color="#A7AECE"/>
<stop offset="0.64" stop-color="#BFC5E1"/>
<stop offset="0.7" stop-color="#DCE1F8"/>
<stop offset="0.72" stop-color="#E5E9FF"/>
<stop offset="0.75" stop-color="#DBDFFA"/>
<stop offset="0.84" stop-color="#C3C9EE"/>
<stop offset="0.93" stop-color="#B4BBE7"/>
<stop offset="1" stop-color="#AFB6E5"/>
</radialGradient>
<linearGradient id="paint7_linear_414_2379" x1="41.9901" y1="106.356" x2="41.9901" y2="94.2457" gradientUnits="userSpaceOnUse">
<stop stop-color="white"/>
<stop offset="1" stop-color="#AFB6E5"/>
</linearGradient>
<radialGradient id="paint8_radial_414_2379" cx="0" cy="0" r="1" gradientUnits="userSpaceOnUse" gradientTransform="translate(42.04 104.36) scale(17.18 10.308)">
<stop offset="0.06" stop-color="#7D86AD"/>
<stop offset="0.29" stop-color="#7F88AF"/>
<stop offset="0.41" stop-color="#878FB5"/>
<stop offset="0.5" stop-color="#949CBF"/>
<stop offset="0.57" stop-color="#A7AECE"/>
<stop offset="0.64" stop-color="#BFC5E1"/>
<stop offset="0.7" stop-color="#DCE1F8"/>
<stop offset="0.72" stop-color="#E5E9FF"/>
<stop offset="0.75" stop-color="#DBDFFA"/>
<stop offset="0.84" stop-color="#C3C9EE"/>
<stop offset="0.93" stop-color="#B4BBE7"/>
<stop offset="1" stop-color="#AFB6E5"/>
</radialGradient>
<linearGradient id="paint9_linear_414_2379" x1="41.9901" y1="103.026" x2="41.9901" y2="90.9156" gradientUnits="userSpaceOnUse">
<stop stop-color="white"/>
<stop offset="1" stop-color="#AFB6E5"/>
</linearGradient>
<radialGradient id="paint10_radial_414_2379" cx="0" cy="0" r="1" gradientUnits="userSpaceOnUse" gradientTransform="translate(42.04 101.138) scale(17.18 10.308)">
<stop offset="0.06" stop-color="#7D86AD"/>
<stop offset="0.29" stop-color="#7F88AF"/>
<stop offset="0.41" stop-color="#878FB5"/>
<stop offset="0.5" stop-color="#949CBF"/>
<stop offset="0.57" stop-color="#A7AECE"/>
<stop offset="0.64" stop-color="#BFC5E1"/>
<stop offset="0.7" stop-color="#DCE1F8"/>
<stop offset="0.72" stop-color="#E5E9FF"/>
<stop offset="0.75" stop-color="#DBDFFA"/>
<stop offset="0.84" stop-color="#C3C9EE"/>
<stop offset="0.93" stop-color="#B4BBE7"/>
<stop offset="1" stop-color="#AFB6E5"/>
</radialGradient>
<linearGradient id="paint11_linear_414_2379" x1="41.9901" y1="99.7963" x2="41.9901" y2="87.6863" gradientUnits="userSpaceOnUse">
<stop stop-color="white"/>
<stop offset="1" stop-color="#AFB6E5"/>
</linearGradient>
<linearGradient id="paint12_linear_414_2379" x1="26.5504" y1="89.6453" x2="57.2504" y2="89.6453" gradientUnits="userSpaceOnUse">
<stop stop-color="#CED3F4"/>
<stop offset="0.1" stop-color="#D2D7F6"/>
<stop offset="0.22" stop-color="#E0E4FC"/>
<stop offset="0.25" stop-color="#E5E9FF"/>
<stop offset="0.3" stop-color="#DBDFFA"/>
<stop offset="0.43" stop-color="#C3C9EE"/>
<stop offset="0.55" stop-color="#B4BBE7"/>
<stop offset="0.65" stop-color="#AFB6E5"/>
<stop offset="0.85" stop-color="#CED3F4"/>
<stop offset="1" stop-color="#AFB6E5"/>
</linearGradient>
<linearGradient id="paint13_linear_414_2379" x1="60.3101" y1="61.8658" x2="35.6001" y2="88.3658" gradientUnits="userSpaceOnUse">
<stop offset="0.06" stop-color="#AFB6E5"/>
<stop offset="0.68" stop-color="#CED3F4"/>
<stop offset="0.77" stop-color="#D2D7F5"/>
<stop offset="0.86" stop-color="#E0E3F8"/>
<stop offset="0.96" stop-color="#F5F6FD"/>
<stop offset="1" stop-color="white"/>
</linearGradient>
<radialGradient id="paint14_radial_414_2379" cx="0" cy="0" r="1" gradientUnits="userSpaceOnUse" gradientTransform="translate(36.9902 89.3357) scale(11.5 11.5)">
<stop stop-color="white"/>
<stop offset="1"/>
</radialGradient>
<linearGradient id="paint15_linear_414_2379" x1="54.9103" y1="79.0562" x2="29.1303" y2="79.0562" gradientUnits="userSpaceOnUse">
<stop stop-color="#CED3F4"/>
<stop offset="0.1" stop-color="#D2D7F6"/>
<stop offset="0.22" stop-color="#E0E4FC"/>
<stop offset="0.25" stop-color="#E5E9FF"/>
<stop offset="0.3" stop-color="#DBDFFA"/>
<stop offset="0.43" stop-color="#C3C9EE"/>
<stop offset="0.55" stop-color="#B4BBE7"/>
<stop offset="0.65" stop-color="#AFB6E5"/>
<stop offset="0.85" stop-color="#CED3F4"/>
<stop offset="1" stop-color="#AFB6E5"/>
</linearGradient>
<linearGradient id="paint16_linear_414_2379" x1="36.1203" y1="76.3755" x2="48.3102" y2="76.3755" gradientUnits="userSpaceOnUse">
<stop offset="0.04" stop-color="#959FE5"/>
<stop offset="0.09" stop-color="#A4ADE7"/>
<stop offset="0.21" stop-color="#CDD1ED"/>
<stop offset="0.3" stop-color="#F1F2F2"/>
<stop offset="0.36" stop-color="#E0E2EF"/>
<stop offset="0.46" stop-color="#C5CAE9"/>
<stop offset="0.56" stop-color="#B5BBE6"/>
<stop offset="0.63" stop-color="#AFB6E5"/>
<stop offset="0.73" stop-color="#B2B9E6"/>
<stop offset="0.8" stop-color="#BBC1EB"/>
<stop offset="0.86" stop-color="#CBD0F2"/>
<stop offset="0.87" stop-color="#CED3F4"/>
<stop offset="0.99" stop-color="#AFB6E5"/>
</linearGradient>
<linearGradient id="paint17_linear_414_2379" x1="40.1003" y1="57.2357" x2="44.1303" y2="57.2357" gradientUnits="userSpaceOnUse">
<stop offset="0.04" stop-color="#959FE5"/>
<stop offset="0.09" stop-color="#A4ADE7"/>
<stop offset="0.21" stop-color="#CDD1ED"/>
<stop offset="0.3" stop-color="#F1F2F2"/>
<stop offset="0.36" stop-color="#E0E2EF"/>
<stop offset="0.46" stop-color="#C5CAE9"/>
<stop offset="0.56" stop-color="#B5BBE6"/>
<stop offset="0.63" stop-color="#AFB6E5"/>
<stop offset="0.73" stop-color="#B2B9E6"/>
<stop offset="0.8" stop-color="#BBC1EB"/>
<stop offset="0.86" stop-color="#CBD0F2"/>
<stop offset="0.87" stop-color="#CED3F4"/>
<stop offset="0.99" stop-color="#AFB6E5"/>
</linearGradient>
<radialGradient id="paint18_radial_414_2379" cx="0" cy="0" r="1" gradientUnits="userSpaceOnUse" gradientTransform="translate(41.4203 65.9454) scale(4.55999 3.92161)">
<stop offset="0.09" stop-color="#F1F2F2"/>
<stop offset="0.22" stop-color="#E4E6F3"/>
<stop offset="0.43" stop-color="#D4D8F4"/>
<stop offset="0.59" stop-color="#CED3F4"/>
<stop offset="0.64" stop-color="#C5CBF0"/>
<stop offset="0.71" stop-color="#AFB6E5"/>
<stop offset="0.77" stop-color="#BEC5EC"/>
<stop offset="0.87" stop-color="#E5E9FF"/>
<stop offset="0.99" stop-color="#CED3F4"/>
</radialGradient>
<radialGradient id="paint19_radial_414_2379" cx="0" cy="0" r="1" gradientUnits="userSpaceOnUse" gradientTransform="translate(35.1802 36.2752) scale(45.51 45.51)">
<stop offset="0.09" stop-color="#F1F2F2"/>
<stop offset="0.22" stop-color="#E4E6F3"/>
<stop offset="0.43" stop-color="#D4D8F4"/>
<stop offset="0.59" stop-color="#CED3F4"/>
<stop offset="0.64" stop-color="#C5CBF0"/>
<stop offset="0.71" stop-color="#AFB6E5"/>
<stop offset="0.8" stop-color="#BEC4EC"/>
<stop offset="0.87" stop-color="#CED3F4"/>
<stop offset="0.99" stop-color="#AFB6E5"/>
</radialGradient>
<radialGradient id="paint20_radial_414_2379" cx="0" cy="0" r="1" gradientUnits="userSpaceOnUse" gradientTransform="translate(35.1802 36.2752) scale(45.51 45.51)">
<stop offset="0.04" stop-color="#FFEDAB"/>
<stop offset="0.25" stop-color="#FFE585"/>
<stop offset="0.36" stop-color="#FFDC7F"/>
<stop offset="0.54" stop-color="#FFC471"/>
<stop offset="0.57" stop-color="#FFC06E"/>
<stop offset="0.66" stop-color="#FFB76E"/>
<stop offset="0.68" stop-color="#FFB56E"/>
<stop offset="0.86" stop-color="#FFE083"/>
<stop offset="0.87" stop-color="#FFE585"/>
<stop offset="1" stop-color="#E8DCBA"/>
</radialGradient>
<linearGradient id="paint21_linear_414_2379" x1="13.8234" y1="54.3472" x2="68.337" y2="25.9208" gradientUnits="userSpaceOnUse">
<stop stop-color="#43291D"/>
<stop offset="0.12" stop-color="#2E1C14"/>
<stop offset="0.27" stop-color="#19100B"/>
<stop offset="0.44" stop-color="#0B0705"/>
<stop offset="0.66" stop-color="#030201"/>
<stop offset="1"/>
</linearGradient>
<linearGradient id="paint22_linear_414_2379" x1="12.9593" y1="52.7435" x2="69.3481" y2="26.4859" gradientUnits="userSpaceOnUse">
<stop stop-color="#4C3328"/>
<stop offset="0.01" stop-color="#493126"/>
<stop offset="0.15" stop-color="#2E1F18"/>
<stop offset="0.3" stop-color="#1A110E"/>
<stop offset="0.47" stop-color="#0B0706"/>
<stop offset="0.67" stop-color="#030201"/>
<stop offset="1"/>
</linearGradient>
<linearGradient id="paint23_linear_414_2379" x1="17.813" y1="47.7845" x2="76.1352" y2="24.0296" gradientUnits="userSpaceOnUse">
<stop stop-color="#553D33"/>
<stop offset="0.05" stop-color="#4A352C"/>
<stop offset="0.18" stop-color="#2F221C"/>
<stop offset="0.33" stop-color="#1A1310"/>
<stop offset="0.5" stop-color="#0B0807"/>
<stop offset="0.69" stop-color="#030202"/>
<stop offset="1"/>
</linearGradient>
<linearGradient id="paint24_linear_414_2379" x1="11.6556" y1="49.5289" x2="71.1101" y2="28.1123" gradientUnits="userSpaceOnUse">
<stop stop-color="#5E483D"/>
<stop offset="0.08" stop-color="#4A3930"/>
<stop offset="0.21" stop-color="#2F241F"/>
<stop offset="0.36" stop-color="#1A1411"/>
<stop offset="0.52" stop-color="#0B0907"/>
<stop offset="0.71" stop-color="#030202"/>
<stop offset="1"/>
</linearGradient>
<linearGradient id="paint25_linear_414_2379" x1="15.8927" y1="53.1826" x2="76.5768" y2="34.8492" gradientUnits="userSpaceOnUse">
<stop stop-color="#675248"/>
<stop offset="0.1" stop-color="#4B3C35"/>
<stop offset="0.24" stop-color="#302622"/>
<stop offset="0.38" stop-color="#1B1513"/>
<stop offset="0.54" stop-color="#0C0908"/>
<stop offset="0.72" stop-color="#030202"/>
<stop offset="1"/>
</linearGradient>
<linearGradient id="paint26_linear_414_2379" x1="15.6061" y1="44.6899" x2="77.2285" y2="28.8091" gradientUnits="userSpaceOnUse">
<stop stop-color="#705C53"/>
<stop offset="0.01" stop-color="#6E5B52"/>
<stop offset="0.13" stop-color="#4C3F39"/>
<stop offset="0.26" stop-color="#312824"/>
<stop offset="0.4" stop-color="#1B1614"/>
<stop offset="0.56" stop-color="#0C0A09"/>
<stop offset="0.74" stop-color="#030202"/>
<stop offset="1"/>
</linearGradient>
<linearGradient id="paint27_linear_414_2379" x1="3.5052" y1="48.37" x2="64.991" y2="34.9024" gradientUnits="userSpaceOnUse">
<stop stop-color="#79665E"/>
<stop offset="0.03" stop-color="#705E57"/>
<stop offset="0.15" stop-color="#4E413C"/>
<stop offset="0.28" stop-color="#312A26"/>
<stop offset="0.42" stop-color="#1B1715"/>
<stop offset="0.57" stop-color="#0C0A09"/>
<stop offset="0.75" stop-color="#030202"/>
<stop offset="1"/>
</linearGradient>
<linearGradient id="paint28_linear_414_2379" x1="9.89654" y1="43.3612" x2="72.2262" y2="32.93" gradientUnits="userSpaceOnUse">
<stop stop-color="#827068"/>
<stop offset="0.05" stop-color="#71625B"/>
<stop offset="0.17" stop-color="#4F443F"/>
<stop offset="0.3" stop-color="#322B28"/>
<stop offset="0.44" stop-color="#1C1816"/>
<stop offset="0.59" stop-color="#0C0A0A"/>
<stop offset="0.76" stop-color="#030202"/>
<stop offset="1"/>
</linearGradient>
<linearGradient id="paint29_linear_414_2379" x1="9.86488" y1="41.9018" x2="72.1985" y2="34.3331" gradientUnits="userSpaceOnUse">
<stop stop-color="#8B7B73"/>
<stop offset="0.07" stop-color="#73665F"/>
<stop offset="0.19" stop-color="#504742"/>
<stop offset="0.32" stop-color="#332D2A"/>
<stop offset="0.46" stop-color="#1C1917"/>
<stop offset="0.6" stop-color="#0C0B0A"/>
<stop offset="0.77" stop-color="#030302"/>
<stop offset="1"/>
</linearGradient>
<linearGradient id="paint30_linear_414_2379" x1="9.75551" y1="40.5222" x2="71.8021" y2="35.7986" gradientUnits="userSpaceOnUse">
<stop stop-color="#94857E"/>
<stop offset="0.09" stop-color="#746963"/>
<stop offset="0.21" stop-color="#514945"/>
<stop offset="0.34" stop-color="#332E2C"/>
<stop offset="0.47" stop-color="#1D1A18"/>
<stop offset="0.62" stop-color="#0D0B0B"/>
<stop offset="0.78" stop-color="#030303"/>
<stop offset="1"/>
</linearGradient>
<linearGradient id="paint31_linear_414_2379" x1="9.72379" y1="39.1793" x2="71.1742" y2="37.2703" gradientUnits="userSpaceOnUse">
<stop stop-color="#9D8F89"/>
<stop offset="0.11" stop-color="#766B67"/>
<stop offset="0.23" stop-color="#524B47"/>
<stop offset="0.35" stop-color="#342F2D"/>
<stop offset="0.49" stop-color="#1D1A19"/>
<stop offset="0.63" stop-color="#0D0C0B"/>
<stop offset="0.79" stop-color="#030303"/>
<stop offset="1"/>
</linearGradient>
<linearGradient id="paint32_linear_414_2379" x1="6.98207" y1="35.0579" x2="67.6719" y2="35.7564" gradientUnits="userSpaceOnUse">
<stop stop-color="#A59993"/>
<stop offset="0.01" stop-color="#A39791"/>
<stop offset="0.12" stop-color="#786F6B"/>
<stop offset="0.24" stop-color="#534D4A"/>
<stop offset="0.37" stop-color="#35312F"/>
<stop offset="0.5" stop-color="#1D1B1A"/>
<stop offset="0.64" stop-color="#0D0C0C"/>
<stop offset="0.8" stop-color="#030303"/>
<stop offset="1"/>
</linearGradient>
<linearGradient id="paint33_linear_414_2379" x1="15.0815" y1="34.9694" x2="74.6052" y2="38.7023" gradientUnits="userSpaceOnUse">
<stop stop-color="#AEA39E"/>
<stop offset="0.02" stop-color="#A59B96"/>
<stop offset="0.14" stop-color="#7A726E"/>
<stop offset="0.26" stop-color="#544F4C"/>
<stop offset="0.38" stop-color="#363231"/>
<stop offset="0.52" stop-color="#1E1C1B"/>
<stop offset="0.65" stop-color="#0D0C0C"/>
<stop offset="0.81" stop-color="#030303"/>
<stop offset="1"/>
</linearGradient>
<linearGradient id="paint34_linear_414_2379" x1="10.3501" y1="35.5538" x2="68.3399" y2="41.6071" gradientUnits="userSpaceOnUse">
<stop stop-color="#B7ADA9"/>
<stop offset="0.04" stop-color="#A89E9B"/>
<stop offset="0.15" stop-color="#7B7572"/>
<stop offset="0.27" stop-color="#55514F"/>
<stop offset="0.4" stop-color="#363332"/>
<stop offset="0.53" stop-color="#1E1D1C"/>
<stop offset="0.67" stop-color="#0D0D0C"/>
<stop offset="0.82" stop-color="#030303"/>
<stop offset="1"/>
</linearGradient>
<linearGradient id="paint35_linear_414_2379" x1="15.648" y1="32.7927" x2="72.0115" y2="41.452" gradientUnits="userSpaceOnUse">
<stop stop-color="#C0B8B4"/>
<stop offset="0.05" stop-color="#AAA39F"/>
<stop offset="0.17" stop-color="#7D7875"/>
<stop offset="0.29" stop-color="#575351"/>
<stop offset="0.41" stop-color="#373534"/>
<stop offset="0.54" stop-color="#1F1E1D"/>
<stop offset="0.68" stop-color="#0E0D0D"/>
<stop offset="0.82" stop-color="#030303"/>
<stop offset="1"/>
</linearGradient>
<linearGradient id="paint36_linear_414_2379" x1="17.0396" y1="34.6394" x2="71.3184" y2="45.5589" gradientUnits="userSpaceOnUse">
<stop stop-color="#C9C2BE"/>
<stop offset="0.06" stop-color="#ACA6A3"/>
<stop offset="0.18" stop-color="#7F7B78"/>
<stop offset="0.3" stop-color="#585553"/>
<stop offset="0.43" stop-color="#383635"/>
<stop offset="0.55" stop-color="#1F1E1E"/>
<stop offset="0.69" stop-color="#0E0D0D"/>
<stop offset="0.83" stop-color="#030303"/>
<stop offset="1"/>
</linearGradient>
<linearGradient id="paint37_linear_414_2379" x1="11.3307" y1="32.6829" x2="63.4714" y2="45.3839" gradientUnits="userSpaceOnUse">
<stop stop-color="#D2CCC9"/>
<stop offset="0.08" stop-color="#AFAAA7"/>
<stop offset="0.19" stop-color="#817D7B"/>
<stop offset="0.31" stop-color="#595755"/>
<stop offset="0.44" stop-color="#393736"/>
<stop offset="0.57" stop-color="#201F1E"/>
<stop offset="0.7" stop-color="#0E0E0D"/>
<stop offset="0.84" stop-color="#030303"/>
<stop offset="1"/>
</linearGradient>
<linearGradient id="paint38_linear_414_2379" x1="12.3647" y1="26.0344" x2="62.3213" y2="40.585" gradientUnits="userSpaceOnUse">
<stop stop-color="#DBD6D4"/>
<stop offset="0.09" stop-color="#B2ADAC"/>
<stop offset="0.21" stop-color="#83807F"/>
<stop offset="0.33" stop-color="#5B5858"/>
<stop offset="0.45" stop-color="#3A3838"/>
<stop offset="0.58" stop-color="#20201F"/>
<stop offset="0.71" stop-color="#0E0E0E"/>
<stop offset="0.84" stop-color="#030303"/>
<stop offset="1"/>
</linearGradient>
<linearGradient id="paint39_linear_414_2379" x1="12.4315" y1="31.2381" x2="59.5306" y2="47.3124" gradientUnits="userSpaceOnUse">
<stop stop-color="#E4E0DF"/>
<stop offset="0.1" stop-color="#B4B1B0"/>
<stop offset="0.22" stop-color="#858282"/>
<stop offset="0.34" stop-color="#5C5A5A"/>
<stop offset="0.46" stop-color="#3B3A39"/>
<stop offset="0.59" stop-color="#212020"/>
<stop offset="0.72" stop-color="#0E0E0E"/>
<stop offset="0.85" stop-color="#040303"/>
<stop offset="1"/>
</linearGradient>
<linearGradient id="paint40_linear_414_2379" x1="12.9857" y1="30.6819" x2="57.2756" y2="48.0519" gradientUnits="userSpaceOnUse">
<stop stop-color="#EDEBE9"/>
<stop offset="0.11" stop-color="#B7B5B4"/>
<stop offset="0.23" stop-color="#878685"/>
<stop offset="0.35" stop-color="#5D5D5C"/>
<stop offset="0.47" stop-color="#3C3B3B"/>
<stop offset="0.6" stop-color="#212121"/>
<stop offset="0.72" stop-color="#0F0F0F"/>
<stop offset="0.86" stop-color="#040404"/>
<stop offset="1"/>
</linearGradient>
<linearGradient id="paint41_linear_414_2379" x1="18.5615" y1="28.5014" x2="59.8812" y2="47.0676" gradientUnits="userSpaceOnUse">
<stop stop-color="#F6F5F4"/>
<stop offset="0.01" stop-color="#F3F2F1"/>
<stop offset="0.12" stop-color="#BBBAB9"/>
<stop offset="0.24" stop-color="#898888"/>
<stop offset="0.36" stop-color="#5F5F5E"/>
<stop offset="0.48" stop-color="#3D3C3C"/>
<stop offset="0.61" stop-color="#222222"/>
<stop offset="0.73" stop-color="#0F0F0F"/>
<stop offset="0.86" stop-color="#040404"/>
<stop offset="1"/>
</linearGradient>
<linearGradient id="paint42_linear_414_2379" x1="19.1574" y1="28.1486" x2="57.3501" y2="47.4288" gradientUnits="userSpaceOnUse">
<stop stop-color="white"/>
<stop offset="0.02" stop-color="#F7F7F7"/>
<stop offset="0.13" stop-color="#BEBEBE"/>
<stop offset="0.25" stop-color="#8B8B8B"/>
<stop offset="0.37" stop-color="#606060"/>
<stop offset="0.49" stop-color="#3E3E3E"/>
<stop offset="0.62" stop-color="#232323"/>
<stop offset="0.74" stop-color="#0F0F0F"/>
<stop offset="0.87" stop-color="#040404"/>
<stop offset="1"/>
</linearGradient>
<radialGradient id="paint43_radial_414_2379" cx="0" cy="0" r="1" gradientUnits="userSpaceOnUse" gradientTransform="translate(41.61 49.0302) scale(3.27999 2.5584)">
<stop offset="0.09" stop-color="white"/>
<stop offset="0.24" stop-color="#FFF7DB"/>
<stop offset="0.43" stop-color="#FFEFB6"/>
<stop offset="0.6" stop-color="#FFEA9B"/>
<stop offset="0.76" stop-color="#FFE68B"/>
<stop offset="0.87" stop-color="#FFE585"/>
</radialGradient>
<radialGradient id="paint44_radial_414_2379" cx="0" cy="0" r="1" gradientUnits="userSpaceOnUse" gradientTransform="translate(33.7341 86.6112) scale(5.027 23.4898)">
<stop stop-color="#FFE585"/>
<stop offset="0.02" stop-color="#EED67C"/>
<stop offset="0.09" stop-color="#BCA962"/>
<stop offset="0.17" stop-color="#90814B"/>
<stop offset="0.25" stop-color="#695E37"/>
<stop offset="0.34" stop-color="#484126"/>
<stop offset="0.43" stop-color="#2E2918"/>
<stop offset="0.53" stop-color="#19170D"/>
<stop offset="0.64" stop-color="#0B0A06"/>
<stop offset="0.78" stop-color="#030201"/>
<stop offset="1"/>
</radialGradient>
<linearGradient id="paint45_linear_414_2379" x1="74.9697" y1="39.5589" x2="24.1117" y2="43.5265" gradientUnits="userSpaceOnUse">
<stop stop-color="#492E20"/>
<stop offset="0.08" stop-color="#3D271B"/>
<stop offset="0.3" stop-color="#22160F"/>
<stop offset="0.53" stop-color="#0F0A07"/>
<stop offset="0.76" stop-color="#040202"/>
<stop offset="1"/>
</linearGradient>
<linearGradient id="paint46_linear_414_2379" x1="76.3687" y1="46.958" x2="23.0866" y2="49.3985" gradientUnits="userSpaceOnUse">
<stop stop-color="#52382B"/>
<stop offset="0.13" stop-color="#3D2A20"/>
<stop offset="0.34" stop-color="#221812"/>
<stop offset="0.55" stop-color="#0F0A08"/>
<stop offset="0.77" stop-color="#040302"/>
<stop offset="1"/>
</linearGradient>
<linearGradient id="paint47_linear_414_2379" x1="83.8277" y1="48.852" x2="28.5365" y2="49.5969" gradientUnits="userSpaceOnUse">
<stop stop-color="#5A4235"/>
<stop offset="0.17" stop-color="#3D2D24"/>
<stop offset="0.37" stop-color="#221914"/>
<stop offset="0.57" stop-color="#0F0B09"/>
<stop offset="0.78" stop-color="#040302"/>
<stop offset="1"/>
</linearGradient>
<linearGradient id="paint48_linear_414_2379" x1="96.1408" y1="50.6923" x2="39.2786" y2="49.6268" gradientUnits="userSpaceOnUse">
<stop stop-color="#634C40"/>
<stop offset="0.02" stop-color="#604A3E"/>
<stop offset="0.2" stop-color="#3D2F28"/>
<stop offset="0.4" stop-color="#221A16"/>
<stop offset="0.59" stop-color="#0F0C0A"/>
<stop offset="0.79" stop-color="#040302"/>
<stop offset="1"/>
</linearGradient>
<linearGradient id="paint49_linear_414_2379" x1="82.1956" y1="56.7131" x2="23.8766" y2="53.8394" gradientUnits="userSpaceOnUse">
<stop stop-color="#6C564A"/>
<stop offset="0.06" stop-color="#604C42"/>
<stop offset="0.24" stop-color="#3D312A"/>
<stop offset="0.42" stop-color="#221B18"/>
<stop offset="0.61" stop-color="#0F0C0A"/>
<stop offset="0.8" stop-color="#040303"/>
<stop offset="1"/>
</linearGradient>
<linearGradient id="paint50_linear_414_2379" x1="78.2963" y1="52.3262" x2="19.0044" y2="47.5025" gradientUnits="userSpaceOnUse">
<stop stop-color="#746055"/>
<stop offset="0.09" stop-color="#604F46"/>
<stop offset="0.26" stop-color="#3D332D"/>
<stop offset="0.44" stop-color="#221D19"/>
<stop offset="0.62" stop-color="#0F0D0B"/>
<stop offset="0.81" stop-color="#040303"/>
<stop offset="1"/>
</linearGradient>
<linearGradient id="paint51_linear_414_2379" x1="76.6865" y1="54.5572" x2="16.8414" y2="47.8406" gradientUnits="userSpaceOnUse">
<stop stop-color="#7D6A60"/>
<stop offset="0.12" stop-color="#60514A"/>
<stop offset="0.29" stop-color="#3D342F"/>
<stop offset="0.46" stop-color="#221D1A"/>
<stop offset="0.64" stop-color="#0F0D0C"/>
<stop offset="0.81" stop-color="#040303"/>
<stop offset="1"/>
</linearGradient>
<linearGradient id="paint52_linear_414_2379" x1="71.4573" y1="28.5663" x2="11.4736" y2="19.6938" gradientUnits="userSpaceOnUse">
<stop stop-color="#86746A"/>
<stop offset="0.15" stop-color="#60534C"/>
<stop offset="0.31" stop-color="#3D3531"/>
<stop offset="0.48" stop-color="#221E1B"/>
<stop offset="0.65" stop-color="#0F0D0C"/>
<stop offset="0.82" stop-color="#040303"/>
<stop offset="1"/>
</linearGradient>
<linearGradient id="paint53_linear_414_2379" x1="65.0264" y1="56.7064" x2="5.20644" y2="46.2891" gradientUnits="userSpaceOnUse">
<stop stop-color="#8E7E75"/>
<stop offset="0.01" stop-color="#8A7B72"/>
<stop offset="0.17" stop-color="#60554F"/>
<stop offset="0.33" stop-color="#3E3733"/>
<stop offset="0.49" stop-color="#231F1C"/>
<stop offset="0.66" stop-color="#0F0E0D"/>
<stop offset="0.82" stop-color="#040303"/>
<stop offset="1"/>
</linearGradient>
<linearGradient id="paint54_linear_414_2379" x1="52.4024" y1="59.0038" x2="-6.85238" y2="46.8572" gradientUnits="userSpaceOnUse">
<stop stop-color="#978880"/>
<stop offset="0.04" stop-color="#8A7D75"/>
<stop offset="0.19" stop-color="#605752"/>
<stop offset="0.35" stop-color="#3D3734"/>
<stop offset="0.51" stop-color="#231F1D"/>
<stop offset="0.67" stop-color="#0F0E0D"/>
<stop offset="0.83" stop-color="#040303"/>
<stop offset="1"/>
</linearGradient>
<linearGradient id="paint55_linear_414_2379" x1="106.013" y1="56.441" x2="48.4096" y2="42.8242" gradientUnits="userSpaceOnUse">
<stop stop-color="#A0928A"/>
<stop offset="0.07" stop-color="#8A7E77"/>
<stop offset="0.22" stop-color="#605853"/>
<stop offset="0.37" stop-color="#3E3835"/>
<stop offset="0.52" stop-color="#231F1E"/>
<stop offset="0.68" stop-color="#0F0E0D"/>
<stop offset="0.83" stop-color="#040303"/>
<stop offset="1"/>
</linearGradient>
<linearGradient id="paint56_linear_414_2379" x1="105.164" y1="57.1687" x2="49.0667" y2="42.1359" gradientUnits="userSpaceOnUse">
<stop stop-color="#A89B95"/>
<stop offset="0.09" stop-color="#8A807B"/>
<stop offset="0.23" stop-color="#605955"/>
<stop offset="0.38" stop-color="#3E3937"/>
<stop offset="0.53" stop-color="#23201F"/>
<stop offset="0.68" stop-color="#0F0E0E"/>
<stop offset="0.84" stop-color="#040303"/>
<stop offset="1"/>
</linearGradient>
<linearGradient id="paint57_linear_414_2379" x1="51.6464" y1="63.7948" x2="-3.05886" y2="47.3642" gradientUnits="userSpaceOnUse">
<stop stop-color="#B1A59F"/>
<stop offset="0.11" stop-color="#8A817C"/>
<stop offset="0.25" stop-color="#605A57"/>
<stop offset="0.4" stop-color="#3E3937"/>
<stop offset="0.54" stop-color="#23201F"/>
<stop offset="0.69" stop-color="#0F0E0E"/>
<stop offset="0.84" stop-color="#040403"/>
<stop offset="1"/>
</linearGradient>
<linearGradient id="paint58_linear_414_2379" x1="63.2054" y1="63.1993" x2="10.9461" y2="45.7836" gradientUnits="userSpaceOnUse">
<stop stop-color="#BAAFAA"/>
<stop offset="0.13" stop-color="#8A827E"/>
<stop offset="0.27" stop-color="#605B58"/>
<stop offset="0.41" stop-color="#3E3A38"/>
<stop offset="0.55" stop-color="#232020"/>
<stop offset="0.7" stop-color="#0F0E0E"/>
<stop offset="0.85" stop-color="#040403"/>
<stop offset="1"/>
</linearGradient>
<linearGradient id="paint59_linear_414_2379" x1="80.7756" y1="61.9278" x2="31.4089" y2="43.8117" gradientUnits="userSpaceOnUse">
<stop stop-color="#C2B9B5"/>
<stop offset="0.01" stop-color="#BDB4B0"/>
<stop offset="0.15" stop-color="#8B8582"/>
<stop offset="0.29" stop-color="#605C5A"/>
<stop offset="0.42" stop-color="#3E3B39"/>
<stop offset="0.56" stop-color="#232120"/>
<stop offset="0.7" stop-color="#0F0F0E"/>
<stop offset="0.85" stop-color="#040404"/>
<stop offset="1"/>
</linearGradient>
<linearGradient id="paint60_linear_414_2379" x1="103.215" y1="58.5619" x2="57.1314" y2="40.0346" gradientUnits="userSpaceOnUse">
<stop stop-color="#CBC3BF"/>
<stop offset="0.03" stop-color="#BDB5B1"/>
<stop offset="0.17" stop-color="#8B8683"/>
<stop offset="0.3" stop-color="#605D5B"/>
<stop offset="0.44" stop-color="#3E3B3A"/>
<stop offset="0.57" stop-color="#232120"/>
<stop offset="0.71" stop-color="#0F0F0E"/>
<stop offset="0.85" stop-color="#040404"/>
<stop offset="1"/>
</linearGradient>
<linearGradient id="paint61_linear_414_2379" x1="74.0929" y1="63.9159" x2="31.2361" y2="45.156" gradientUnits="userSpaceOnUse">
<stop stop-color="#D4CDCA"/>
<stop offset="0.05" stop-color="#BDB6B4"/>
<stop offset="0.18" stop-color="#8B8685"/>
<stop offset="0.31" stop-color="#605D5C"/>
<stop offset="0.45" stop-color="#3E3B3B"/>
<stop offset="0.58" stop-color="#232121"/>
<stop offset="0.72" stop-color="#0F0F0F"/>
<stop offset="0.85" stop-color="#040404"/>
<stop offset="1"/>
</linearGradient>
<linearGradient id="paint62_linear_414_2379" x1="47.4835" y1="65.5607" x2="8.25152" y2="46.8954" gradientUnits="userSpaceOnUse">
<stop stop-color="#DCD7D5"/>
<stop offset="0.07" stop-color="#BDB8B7"/>
<stop offset="0.2" stop-color="#8B8887"/>
<stop offset="0.33" stop-color="#605E5D"/>
<stop offset="0.46" stop-color="#3E3C3C"/>
<stop offset="0.59" stop-color="#232221"/>
<stop offset="0.72" stop-color="#0F0F0F"/>
<stop offset="0.86" stop-color="#040404"/>
<stop offset="1"/>
</linearGradient>
<linearGradient id="paint63_linear_414_2379" x1="83.4557" y1="45.0612" x2="48.6497" y2="27.0134" gradientUnits="userSpaceOnUse">
<stop stop-color="#E5E1DF"/>
<stop offset="0.09" stop-color="#BDB9B8"/>
<stop offset="0.21" stop-color="#8B8987"/>
<stop offset="0.34" stop-color="#605F5E"/>
<stop offset="0.47" stop-color="#3E3C3C"/>
<stop offset="0.6" stop-color="#232222"/>
<stop offset="0.73" stop-color="#0F0F0F"/>
<stop offset="0.86" stop-color="#040404"/>
<stop offset="1"/>
</linearGradient>
<linearGradient id="paint64_linear_414_2379" x1="76.6484" y1="63.0243" x2="46.0872" y2="46.042" gradientUnits="userSpaceOnUse">
<stop stop-color="#EEEBEA"/>
<stop offset="0.11" stop-color="#BDBABA"/>
<stop offset="0.23" stop-color="#8B8989"/>
<stop offset="0.35" stop-color="#605F5F"/>
<stop offset="0.48" stop-color="#3E3D3D"/>
<stop offset="0.6" stop-color="#232222"/>
<stop offset="0.73" stop-color="#0F0F0F"/>
<stop offset="0.86" stop-color="#040404"/>
<stop offset="1"/>
</linearGradient>
<linearGradient id="paint65_linear_414_2379" x1="51.1686" y1="48.5626" x2="25.1066" y2="32.8265" gradientUnits="userSpaceOnUse">
<stop stop-color="#F6F5F4"/>
<stop offset="0.12" stop-color="#BDBCBB"/>
<stop offset="0.24" stop-color="#8B8B8A"/>
<stop offset="0.36" stop-color="#606060"/>
<stop offset="0.49" stop-color="#3E3D3D"/>
<stop offset="0.61" stop-color="#232222"/>
<stop offset="0.74" stop-color="#0F0F0F"/>
<stop offset="0.86" stop-color="#040404"/>
<stop offset="1"/>
</linearGradient>
<linearGradient id="paint66_linear_414_2379" x1="67.5298" y1="65.2839" x2="46.0731" y2="51.4546" gradientUnits="userSpaceOnUse">
<stop stop-color="white"/>
<stop offset="0.02" stop-color="#F7F7F7"/>
<stop offset="0.13" stop-color="#BEBEBE"/>
<stop offset="0.25" stop-color="#8B8B8B"/>
<stop offset="0.37" stop-color="#606060"/>
<stop offset="0.49" stop-color="#3E3E3E"/>
<stop offset="0.62" stop-color="#232323"/>
<stop offset="0.74" stop-color="#0F0F0F"/>
<stop offset="0.87" stop-color="#040404"/>
<stop offset="1"/>
</linearGradient>
<radialGradient id="paint67_radial_414_2379" cx="0" cy="0" r="1" gradientUnits="userSpaceOnUse" gradientTransform="translate(23.6502 27.0956) scale(21 21)">
<stop stop-color="#FFE585"/>
<stop offset="0.02" stop-color="#F7DE81"/>
<stop offset="0.13" stop-color="#BEAA63"/>
<stop offset="0.25" stop-color="#8B7D49"/>
<stop offset="0.37" stop-color="#605732"/>
<stop offset="0.49" stop-color="#3E3720"/>
<stop offset="0.62" stop-color="#231F12"/>
<stop offset="0.74" stop-color="#0F0E08"/>
<stop offset="0.87" stop-color="#040302"/>
<stop offset="1"/>
</radialGradient>
<radialGradient id="paint68_radial_414_2379" cx="0" cy="0" r="1" gradientUnits="userSpaceOnUse" gradientTransform="translate(78.567 105.376) scale(3.19901 25.9576)">
<stop stop-color="#FF9E6E"/>
<stop offset="0.01" stop-color="#F6986A"/>
<stop offset="0.05" stop-color="#C87C56"/>
<stop offset="0.09" stop-color="#9D6144"/>
<stop offset="0.14" stop-color="#774A33"/>
<stop offset="0.2" stop-color="#573625"/>
<stop offset="0.25" stop-color="#3B251A"/>
<stop offset="0.32" stop-color="#251710"/>
<stop offset="0.4" stop-color="#140D09"/>
<stop offset="0.49" stop-color="#090504"/>
<stop offset="0.63" stop-color="#020101"/>
<stop offset="1"/>
</radialGradient>
</defs>
</svg>
