<svg width="114" height="98" viewBox="0 0 114 98" fill="none" xmlns="http://www.w3.org/2000/svg">
<path style="mix-blend-mode:multiply" d="M98.0002 36.0645L52.2603 62.7244L80.9102 75.3244L113.8 57.3445L98.0002 36.0645Z" fill="url(#paint0_linear_414_1700)"/>
<path d="M88.0102 1.76399C82.9602 -1.05601 76.0102 -0.586009 68.3602 3.83399L43.2202 18.364L55.8202 25.674L80.9702 11.144C88.3902 6.86399 95.1302 6.294 100.14 8.814L88.0102 1.76399Z" fill="#B35202"/>
<path d="M30.0801 25.9533V45.7333L42.6901 38.4533V33.2533L55.8201 25.6733L43.2201 18.3633L30.0801 25.9533Z" fill="url(#paint1_radial_414_1700)"/>
<path d="M30.0801 25.9533L42.6901 33.2533L55.8201 25.6733L43.2201 18.3633L30.0801 25.9533Z" fill="url(#paint2_linear_414_1700)"/>
<path d="M55.8204 25.6738L42.6904 33.2538L55.8204 25.6738Z" fill="url(#paint3_linear_414_1700)"/>
<path d="M80.9703 11.1432L55.8203 25.6733L55.9303 25.7332V45.3932L80.9703 30.9832C86.8703 27.5832 91.6703 30.3132 91.6703 37.0832C91.6703 37.1632 91.6703 37.2532 91.6703 37.3432L108.91 27.4532C108.91 27.3432 108.91 27.2332 108.91 27.1232C108.91 9.37325 96.3703 2.24325 80.9703 11.1432Z" fill="#F58529"/>
<path d="M55.8204 25.6738L42.6904 33.2538V38.4538V53.0438L55.9304 45.3938V25.7338L55.8204 25.6738Z" fill="url(#paint4_linear_414_1700)"/>
<path d="M55.8204 25.6738L42.6904 33.2538V38.4538V53.0438L55.9304 45.3938V25.7338L55.8204 25.6738Z" fill="url(#paint5_linear_414_1700)"/>
<path d="M80.9704 55.4743L42.6904 77.5743V97.3643L80.9704 75.2643C96.3104 66.4043 108.75 45.0443 108.9 27.4043L91.6604 37.2943C91.5404 43.9843 86.8004 52.1143 80.9704 55.4743Z" fill="url(#paint6_linear_414_1700)"/>
<path d="M91.6599 37.2934C91.5399 44.0034 86.7999 52.1134 80.9699 55.4734L55.9199 69.9834V89.7634L80.9199 75.3034C96.2599 66.4434 108.7 45.0834 108.85 27.4434L91.6599 37.2934Z" fill="url(#paint7_linear_414_1700)"/>
<path d="M55.9204 69.9336L42.6904 77.5736V97.3636L55.9304 89.7236V69.9436L55.9204 69.9336Z" fill="url(#paint8_linear_414_1700)"/>
<path d="M55.9204 69.9336L42.6904 77.5736V97.3636L55.9304 89.7236V69.9436L55.9204 69.9336Z" fill="url(#paint9_linear_414_1700)"/>
<path d="M30.0801 90.0634L36.0001 86.6434L30.0801 83.1934V90.0634Z" fill="url(#paint10_radial_414_1700)"/>
<path d="M91.6601 37.2941C91.6601 37.2141 91.6601 37.1241 91.6601 37.0341C91.6601 30.2641 86.8601 27.5341 80.9601 30.9341L80.6001 31.1441L91.6001 37.2841L91.6601 37.2941Z" fill="#F58529"/>
<path d="M42.6899 77.5743L80.9699 55.4743C86.7899 52.1143 91.5399 44.0143 91.6599 37.2943L80.6599 31.1543L78.9099 32.1543C77.9699 38.3643 73.6199 45.1543 68.4099 48.1543L30.1299 70.2543V83.1743L36.0399 86.6243L42.7399 82.7643L42.6899 77.5743Z" fill="url(#paint11_radial_414_1700)"/>
<path d="M91.6401 37.2845L80.6401 31.1445L78.8901 32.1445C77.9501 38.3545 73.6001 45.1445 68.3901 48.1445L43.3901 62.6045L55.9901 69.9045L81.0402 55.4445C86.8602 52.0845 91.6101 43.9845 91.7301 37.2645L91.6401 37.2845Z" fill="#2B2771"/>
<path d="M30.0801 70.2738V83.1938L36.0001 86.6438L42.6901 82.7838V77.5738L55.9201 69.9338L43.3201 62.6338L30.0801 70.2738Z" fill="url(#paint12_linear_414_1700)"/>
<path d="M30.0801 70.2738L42.6901 77.5738L55.9201 69.9338L43.3201 62.6338L30.0801 70.2738Z" fill="url(#paint13_linear_414_1700)"/>
<path d="M42.6901 97.3339L30.0601 89.9339V70.2139L42.6901 77.5439V97.3339Z" fill="url(#paint14_linear_414_1700)"/>
<path d="M42.6901 53.0438L30.0601 45.6438V25.9238L42.6901 33.2538V53.0438Z" fill="url(#paint15_linear_414_1700)"/>
<path style="mix-blend-mode:color-dodge" d="M30.0601 25.9245L42.8101 32.6245L75.5901 14.3145L43.1301 33.4344L42.6901 53.0444L42.4001 33.1844L30.0601 25.9245Z" fill="url(#paint16_radial_414_1700)"/>
<path style="mix-blend-mode:color-dodge" d="M30.0601 70.3639L42.8101 77.0639L75.5901 58.7539L43.1301 77.8739L42.6901 97.4839L42.4001 77.6239L30.0601 70.3639Z" fill="url(#paint17_radial_414_1700)"/>
<g style="mix-blend-mode:multiply">
<path d="M0 56.0645L10.75 38.0645L21.5 44.0645L28 35.0645L22 49.0645L12.25 41.8145L0 56.0645Z" fill="#B3BAE6"/>
</g>
<g style="mix-blend-mode:multiply">
<path d="M10.0801 94.1344L16.5601 79.9744L23.7501 83.8144L28.5501 79.7344L23.7501 88.6144L17.5201 83.0944L10.0801 94.1344Z" fill="#B3BAE6"/>
</g>
<defs>
<linearGradient id="paint0_linear_414_1700" x1="83.6502" y1="58.3445" x2="102.27" y2="49.8445" gradientUnits="userSpaceOnUse">
<stop stop-color="#E5E9FF"/>
<stop offset="0.23" stop-color="#F0F2FF"/>
<stop offset="0.6" stop-color="#FBFCFF"/>
<stop offset="1" stop-color="white"/>
</linearGradient>
<radialGradient id="paint1_radial_414_1700" cx="0" cy="0" r="1" gradientUnits="userSpaceOnUse" gradientTransform="translate(65.1101 22.8733) scale(29.58 29.58)">
<stop stop-color="#271273"/>
<stop offset="0.08" stop-color="#210F60"/>
<stop offset="0.26" stop-color="#150A3D"/>
<stop offset="0.44" stop-color="#0C0522"/>
<stop offset="0.62" stop-color="#05020F"/>
<stop offset="0.81" stop-color="#010104"/>
<stop offset="1"/>
</radialGradient>
<linearGradient id="paint2_linear_414_1700" x1="55.7301" y1="1.45328" x2="41.1401" y2="29.2533" gradientUnits="userSpaceOnUse">
<stop stop-color="#BBC4DA"/>
<stop offset="0.26" stop-color="#D4DAF0"/>
<stop offset="0.41" stop-color="#E5E9FF"/>
<stop offset="0.8" stop-color="#F5F6FF"/>
<stop offset="1" stop-color="white"/>
</linearGradient>
<linearGradient id="paint3_linear_414_1700" x1="-9.75959" y1="29.4638" x2="55.9304" y2="29.4638" gradientUnits="userSpaceOnUse">
<stop stop-color="#BBC4DA"/>
<stop offset="0.26" stop-color="#D4DAF0"/>
<stop offset="0.41" stop-color="#E5E9FF"/>
<stop offset="0.8" stop-color="#F5F6FF"/>
<stop offset="1" stop-color="white"/>
</linearGradient>
<linearGradient id="paint4_linear_414_1700" x1="-9.75953" y1="39.3538" x2="55.9304" y2="39.3538" gradientUnits="userSpaceOnUse">
<stop stop-color="#BBC4DA"/>
<stop offset="0.26" stop-color="#D4DAF0"/>
<stop offset="0.41" stop-color="#E5E9FF"/>
<stop offset="0.8" stop-color="#F5F6FF"/>
<stop offset="1" stop-color="white"/>
</linearGradient>
<linearGradient id="paint5_linear_414_1700" x1="31.4496" y1="56.0061" x2="108.308" y2="32.186" gradientUnits="userSpaceOnUse">
<stop stop-color="#B5BEDA"/>
<stop offset="0.23" stop-color="#CED5ED"/>
<stop offset="0.41" stop-color="#E5E9FF"/>
<stop offset="0.8" stop-color="#F5F6FF"/>
<stop offset="1" stop-color="white"/>
</linearGradient>
<linearGradient id="paint6_linear_414_1700" x1="29.6226" y1="93.5876" x2="96.1428" y2="93.5876" gradientUnits="userSpaceOnUse">
<stop offset="0.04" stop-color="#6B24D6"/>
<stop offset="0.29" stop-color="#7733DC"/>
<stop offset="0.79" stop-color="#975CED"/>
<stop offset="1" stop-color="#A56EF4"/>
</linearGradient>
<linearGradient id="paint7_linear_414_1700" x1="82.3849" y1="-187.09" x2="82.3849" y2="89.7634" gradientUnits="userSpaceOnUse">
<stop stop-color="#101032" stop-opacity="0"/>
<stop offset="0.890666" stop-color="#101032"/>
</linearGradient>
<linearGradient id="paint8_linear_414_1700" x1="-9.75953" y1="83.6536" x2="55.9304" y2="83.6536" gradientUnits="userSpaceOnUse">
<stop stop-color="#BBC4DA"/>
<stop offset="0.26" stop-color="#D4DAF0"/>
<stop offset="0.41" stop-color="#E5E9FF"/>
<stop offset="0.8" stop-color="#F5F6FF"/>
<stop offset="1" stop-color="white"/>
</linearGradient>
<linearGradient id="paint9_linear_414_1700" x1="43.7204" y1="85.3236" x2="147.38" y2="54.2836" gradientUnits="userSpaceOnUse">
<stop stop-color="#B5BEDA"/>
<stop offset="0.23" stop-color="#CED5ED"/>
<stop offset="0.41" stop-color="#E5E9FF"/>
<stop offset="0.8" stop-color="#F5F6FF"/>
<stop offset="1" stop-color="white"/>
</linearGradient>
<radialGradient id="paint10_radial_414_1700" cx="0" cy="0" r="1" gradientUnits="userSpaceOnUse" gradientTransform="translate(60.8701 59.7634) scale(30.5501 30.55)">
<stop stop-color="#271273"/>
<stop offset="0.08" stop-color="#210F60"/>
<stop offset="0.26" stop-color="#150A3D"/>
<stop offset="0.44" stop-color="#0C0522"/>
<stop offset="0.62" stop-color="#05020F"/>
<stop offset="0.81" stop-color="#010104"/>
<stop offset="1"/>
</radialGradient>
<radialGradient id="paint11_radial_414_1700" cx="0" cy="0" r="1" gradientUnits="userSpaceOnUse" gradientTransform="translate(60.8699 59.7643) scale(30.55)">
<stop stop-color="#271273"/>
<stop offset="0.08" stop-color="#210F60"/>
<stop offset="0.26" stop-color="#150A3D"/>
<stop offset="0.44" stop-color="#0C0522"/>
<stop offset="0.62" stop-color="#05020F"/>
<stop offset="0.81" stop-color="#010104"/>
<stop offset="1"/>
</radialGradient>
<linearGradient id="paint12_linear_414_1700" x1="-9.75992" y1="74.6438" x2="55.9301" y2="74.6438" gradientUnits="userSpaceOnUse">
<stop stop-color="#BBC4DA"/>
<stop offset="0.26" stop-color="#D4DAF0"/>
<stop offset="0.41" stop-color="#E5E9FF"/>
<stop offset="0.8" stop-color="#F5F6FF"/>
<stop offset="1" stop-color="white"/>
</linearGradient>
<linearGradient id="paint13_linear_414_1700" x1="55.8801" y1="45.5638" x2="41.1801" y2="73.5738" gradientUnits="userSpaceOnUse">
<stop stop-color="#BBC4DA"/>
<stop offset="0.26" stop-color="#D4DAF0"/>
<stop offset="0.41" stop-color="#E5E9FF"/>
<stop offset="0.8" stop-color="#F5F6FF"/>
<stop offset="1" stop-color="white"/>
</linearGradient>
<linearGradient id="paint14_linear_414_1700" x1="12.8801" y1="89.0439" x2="60.9301" y2="78.2639" gradientUnits="userSpaceOnUse">
<stop stop-color="#BBC4DA"/>
<stop offset="0.26" stop-color="#D4DAF0"/>
<stop offset="0.41" stop-color="#E5E9FF"/>
<stop offset="0.8" stop-color="#F5F6FF"/>
<stop offset="1" stop-color="white"/>
</linearGradient>
<linearGradient id="paint15_linear_414_1700" x1="12.8801" y1="44.7438" x2="60.9301" y2="33.9738" gradientUnits="userSpaceOnUse">
<stop stop-color="#BBC4DA"/>
<stop offset="0.26" stop-color="#D4DAF0"/>
<stop offset="0.41" stop-color="#E5E9FF"/>
<stop offset="0.8" stop-color="#F5F6FF"/>
<stop offset="1" stop-color="white"/>
</linearGradient>
<radialGradient id="paint16_radial_414_1700" cx="0" cy="0" r="1" gradientUnits="userSpaceOnUse" gradientTransform="translate(49.0401 27.1445) scale(21.13)">
<stop stop-color="white"/>
<stop offset="0.07" stop-color="#D8D8D8"/>
<stop offset="0.16" stop-color="#A6A6A6"/>
<stop offset="0.26" stop-color="#797979"/>
<stop offset="0.37" stop-color="#545454"/>
<stop offset="0.47" stop-color="#353535"/>
<stop offset="0.59" stop-color="#1E1E1E"/>
<stop offset="0.7" stop-color="#0D0D0D"/>
<stop offset="0.84" stop-color="#030303"/>
<stop offset="1"/>
</radialGradient>
<radialGradient id="paint17_radial_414_1700" cx="0" cy="0" r="1" gradientUnits="userSpaceOnUse" gradientTransform="translate(49.0401 71.5839) scale(21.13 21.13)">
<stop stop-color="white"/>
<stop offset="0.07" stop-color="#D8D8D8"/>
<stop offset="0.16" stop-color="#A6A6A6"/>
<stop offset="0.26" stop-color="#797979"/>
<stop offset="0.37" stop-color="#545454"/>
<stop offset="0.47" stop-color="#353535"/>
<stop offset="0.59" stop-color="#1E1E1E"/>
<stop offset="0.7" stop-color="#0D0D0D"/>
<stop offset="0.84" stop-color="#030303"/>
<stop offset="1"/>
</radialGradient>
</defs>
</svg>
