<svg width="56" height="118" viewBox="0 0 56 118" fill="none" xmlns="http://www.w3.org/2000/svg">
<path style="mix-blend-mode:multiply" opacity="0.5" d="M27.3129 117.153C41.1752 117.153 52.4129 111.086 52.4129 103.603C52.4129 96.1193 41.1752 90.0527 27.3129 90.0527C13.4505 90.0527 2.21289 96.1193 2.21289 103.603C2.21289 111.086 13.4505 117.153 27.3129 117.153Z" fill="url(#paint0_radial_414_2073)"/>
<path d="M42.5029 82.2925L55.6029 89.2225V80.4225C55.6317 79.3257 55.3949 78.2382 54.9129 77.2525L49.2629 66.5325C48.0429 64.2325 45.4229 63.8225 42.5329 65.5325L42.5029 82.2925Z" fill="url(#paint1_linear_414_2073)"/>
<path d="M13.0029 82.3325L0.00287148 89.3325V80.5325C-0.0289645 79.4365 0.204321 78.3491 0.682879 77.3625L6.30287 66.6325C7.51287 64.3225 10.1329 63.9025 13.0329 65.5725L13.0029 82.3325Z" fill="url(#paint2_linear_414_2073)"/>
<path d="M33.9928 101.732H21.5728V103.482V103.532C21.5728 105.532 24.3628 107.142 27.7928 107.142C31.2228 107.142 34.0027 105.512 34.0027 103.512C34.0027 103.512 34.0027 103.512 34.0027 103.462L33.9928 101.732Z" fill="#0C0C27"/>
<path d="M42.6028 86.1816H12.9229V95.0016C12.9229 95.0016 12.9229 95.0816 12.9229 95.1216C12.9229 99.8916 19.5828 103.752 27.7728 103.742C35.9628 103.732 42.6028 99.8917 42.6028 95.1017C42.6028 95.1017 42.6028 95.0217 42.6028 94.9817V86.1816Z" fill="url(#paint3_linear_414_2073)"/>
<g style="mix-blend-mode:multiply" opacity="0.5">
<path d="M42.6028 86.4922H12.9229V93.4922C12.9229 93.4922 12.9229 93.5522 12.9229 93.5922C12.9229 97.3922 19.5728 100.462 27.7728 100.452C35.9728 100.442 42.6028 97.3522 42.6028 93.5422C42.6028 93.5422 42.6028 93.4822 42.6028 93.4522V86.4922Z" fill="#AFB6E5"/>
</g>
<path d="M50.9127 56.9814C52.4829 44.3993 49.4071 31.6767 42.2627 21.2014C41.9627 20.7614 41.6527 20.3314 41.3327 19.9014L27.6027 1.19141L13.9627 19.9414C13.6427 20.3714 13.3427 20.8014 13.0427 21.2414C5.92557 31.7562 2.89559 44.5091 4.52272 57.1014L8.05272 86.3014C8.05272 86.3514 8.05272 86.4014 8.05272 86.4614C8.05272 92.8014 16.8927 97.9214 27.7827 97.9014C38.6727 97.8814 47.4727 92.7414 47.4727 86.4014C47.4727 86.3514 47.4727 86.2914 47.4727 86.2414L50.9127 56.9814Z" fill="url(#paint4_linear_414_2073)"/>
<path d="M41.3329 19.9014L27.6029 1.19141L13.9629 19.9414C13.8829 20.0414 13.8129 20.1514 13.7329 20.2614C16.1029 23.3514 21.4429 25.5114 27.6429 25.5014C33.8429 25.4914 39.1729 23.3214 41.5329 20.2214C41.4829 20.1014 41.4129 20.0014 41.3329 19.9014Z" fill="url(#paint5_linear_414_2073)"/>
<path opacity="0.3" d="M41.3329 19.9014L27.6029 1.19141L13.9629 19.9414C13.8829 20.0414 13.8129 20.1514 13.7329 20.2614C16.1029 23.3514 21.4429 25.5114 27.6429 25.5014C33.8429 25.4914 39.1729 23.3214 41.5329 20.2214C41.4829 20.1014 41.4129 20.0014 41.3329 19.9014Z" fill="url(#paint6_linear_414_2073)"/>
<path style="mix-blend-mode:multiply" opacity="0.5" d="M50.9127 56.9814C52.4829 44.3993 49.4071 31.6767 42.2627 21.2014C41.9627 20.7614 41.6527 20.3314 41.3327 19.9014L27.6027 1.19141L13.9627 19.9414C13.6427 20.3714 13.3427 20.8014 13.0427 21.2414C5.92557 31.7562 2.89559 44.5091 4.52272 57.1014L8.05272 86.3014C8.05272 86.3514 8.05272 86.4014 8.05272 86.4614C8.05272 92.8014 16.8927 97.9214 27.7827 97.9014C38.6727 97.8814 47.4727 92.7414 47.4727 86.4014C47.4727 86.3514 47.4727 86.2914 47.4727 86.2414L50.9127 56.9814Z" fill="url(#paint7_radial_414_2073)"/>
<path style="mix-blend-mode:color-dodge" opacity="0.7" d="M36.9531 40.7726C33.0131 25.0326 24.8731 6.9226 26.7931 6.0426C30.1931 4.4926 44.4031 22.1326 48.3431 37.8726C51.8131 51.7226 47.9731 86.2326 44.3431 87.1326C40.7131 88.0326 40.4231 54.6226 36.9531 40.7726Z" fill="url(#paint8_radial_414_2073)"/>
<path d="M24.7432 64.7823C24.7432 67.5023 23.8132 69.4323 22.2832 70.3723L20.7732 71.3723C19.1832 72.2623 20.1932 70.2423 17.7732 68.8523C12.9032 66.0523 8.95317 59.2623 8.94317 53.6923C8.94317 50.9323 6.39317 50.9123 7.94317 49.9923L9.76318 48.9923C11.3432 48.1323 13.5132 48.2923 15.9032 49.6623C20.7832 52.4123 24.7332 59.2023 24.7432 64.7823Z" fill="url(#paint9_linear_414_2073)"/>
<path d="M21.4745 69.6789C24.8752 67.6622 24.7985 61.2491 21.303 55.3548C17.8075 49.4604 12.217 46.317 8.81629 48.3337C5.41555 50.3505 5.49233 56.7636 8.98779 62.658C12.4833 68.5523 18.0737 71.6957 21.4745 69.6789Z" fill="url(#paint10_linear_414_2073)"/>
<path d="M21.3527 64.862C21.3527 69.382 18.1627 71.212 14.2127 68.942C12.1346 67.5985 10.403 65.7834 9.15884 63.6443C7.91467 61.5052 7.19306 59.1026 7.05273 56.632C7.05273 52.102 10.2427 50.272 14.1927 52.542C16.2705 53.8883 18.0017 55.7054 19.2457 57.846C20.4897 59.9865 21.2116 62.3902 21.3527 64.862Z" fill="#101032"/>
<path style="mix-blend-mode:screen" d="M19.863 62.6016C19.863 66.0116 17.463 67.3816 14.493 65.6716C12.9299 64.6605 11.6272 63.2951 10.6906 61.6862C9.75413 60.0773 9.2102 58.2702 9.10303 56.4116C9.10303 53.0016 11.503 51.6216 14.473 53.3316C16.0375 54.3437 17.341 55.7107 18.2776 57.3215C19.2142 58.9322 19.7574 60.7413 19.863 62.6016Z" fill="url(#paint11_linear_414_2073)"/>
<path d="M15.6028 68.3518C13.5237 67.0061 11.791 65.1893 10.5453 63.0488C9.29957 60.9083 8.57583 58.5043 8.43278 56.0318C8.35892 55.2079 8.48384 54.3783 8.79706 53.6127C9.11027 52.847 9.60263 52.1677 10.2328 51.6318C8.30279 51.9918 7.02277 53.7718 7.03277 56.6318C7.1731 59.1024 7.89471 61.505 9.13888 63.6441C10.3831 65.7832 12.1147 67.5983 14.1928 68.9418C16.3228 70.1718 18.1928 70.2018 19.5428 69.2618C18.163 69.4365 16.7662 69.1139 15.6028 68.3518Z" fill="url(#paint12_linear_414_2073)"/>
<path style="mix-blend-mode:color-dodge" d="M14.4428 50.4222C13.5814 49.8777 12.61 49.5307 11.5985 49.4062C10.587 49.2817 9.56053 49.3828 8.59277 49.7022C10.4896 49.3063 12.466 49.665 14.1028 50.7022C18.9628 53.5022 22.9128 60.2923 22.9228 65.8623C22.9228 68.7723 21.6128 70.8622 19.9228 71.6822C21.7128 71.0222 23.2928 68.9323 23.2828 65.6123C23.2628 60.0123 19.3128 53.2222 14.4428 50.4222Z" fill="url(#paint13_radial_414_2073)"/>
<path style="mix-blend-mode:color-dodge" d="M19.4131 41.8421C24.0931 22.9321 33.8031 1.16208 31.4831 0.112081C27.4131 -1.73792 11.4031 19.6621 6.72308 38.5621C2.61308 55.2121 4.60309 74.7721 8.90309 75.8321C13.2031 76.8921 15.2931 58.4821 19.4131 41.8421Z" fill="url(#paint14_radial_414_2073)"/>
<path d="M13.1631 94.3914L2.81313 114.291L0.703125 113.101V104.681C0.720848 103.389 0.940146 102.107 1.35312 100.881L6.72311 84.3914C7.82 80.9134 10.0934 77.9258 13.1531 75.9414L15.1531 77.1614L13.1631 94.3914Z" fill="url(#paint15_linear_414_2073)"/>
<path d="M15.263 95.6326L2.81299 114.293V105.873C2.83077 104.583 3.05008 103.304 3.46298 102.083L8.83298 85.5826C9.93341 82.1091 12.2063 79.1257 15.263 77.1426V95.6326Z" fill="url(#paint16_linear_414_2073)"/>
<path style="mix-blend-mode:color-dodge" d="M2.98299 106.102C3.00077 104.812 3.22008 103.533 3.63298 102.312L9.00298 85.8116C10.0504 82.4892 12.158 79.6018 15.003 77.5916V77.1016C11.9488 79.0895 9.67956 82.0763 8.58298 85.5516L3.21298 102.042C2.80001 103.267 2.58071 104.549 2.56299 105.842V114.262L2.93298 113.712L2.98299 106.102Z" fill="url(#paint17_radial_414_2073)"/>
<path d="M42.3828 94.3513L52.7928 114.221L54.8928 112.981V104.561C54.8714 103.268 54.6487 101.986 54.2328 100.761L48.8128 84.2813C47.7039 80.8118 45.4239 77.8354 42.3628 75.8613L40.3628 77.0813L42.3828 94.3513Z" fill="url(#paint18_linear_414_2073)"/>
<path d="M40.2827 95.5916L52.7927 114.222V105.802C52.7712 104.512 52.5485 103.233 52.1327 102.012L46.7127 85.5316C45.6104 82.056 43.3291 79.0744 40.2627 77.1016L40.2827 95.5916Z" fill="url(#paint19_linear_414_2073)"/>
<path style="mix-blend-mode:color-dodge" d="M52.3927 102.002L46.9827 85.5316C45.8736 82.0595 43.5939 79.08 40.5327 77.1016V77.2115C43.258 79.201 45.2845 82.0011 46.3227 85.2115L51.7427 101.692C52.1585 102.913 52.3812 104.192 52.4027 105.482V113.232L53.0627 114.232V105.812C53.0441 104.514 52.8179 103.228 52.3927 102.002Z" fill="url(#paint20_radial_414_2073)"/>
<defs>
<radialGradient id="paint0_radial_414_2073" cx="0" cy="0" r="1" gradientUnits="userSpaceOnUse" gradientTransform="translate(24.6053 103.391) scale(25.0588 13.5564)">
<stop offset="0.19" stop-color="#AFB6E5"/>
<stop offset="1" stop-color="white"/>
</radialGradient>
<linearGradient id="paint1_linear_414_2073" x1="64.4981" y1="85.8353" x2="44.0085" y2="61.1241" gradientUnits="userSpaceOnUse">
<stop stop-color="#3863F5"/>
<stop offset="1" stop-color="#61C2F2"/>
</linearGradient>
<linearGradient id="paint2_linear_414_2073" x1="27.8129" y1="80.6625" x2="-14.8271" y2="71.1025" gradientUnits="userSpaceOnUse">
<stop stop-color="#3863F5"/>
<stop offset="1" stop-color="#61C2F2"/>
</linearGradient>
<linearGradient id="paint3_linear_414_2073" x1="13.1023" y1="95.0286" x2="42.3023" y2="94.9827" gradientUnits="userSpaceOnUse">
<stop stop-color="#676FAE"/>
<stop offset="0.05" stop-color="#757CB8"/>
<stop offset="0.11" stop-color="#8B92C8"/>
<stop offset="0.23" stop-color="#AFB6E5"/>
<stop offset="0.35" stop-color="#949BCF"/>
<stop offset="0.38" stop-color="#8D94C9"/>
<stop offset="0.55" stop-color="#5E67A8"/>
<stop offset="0.61" stop-color="#616AAA"/>
<stop offset="0.67" stop-color="#6C75B2"/>
<stop offset="0.72" stop-color="#7E86BF"/>
<stop offset="0.78" stop-color="#979ED1"/>
<stop offset="1" stop-color="#7179B5"/>
</linearGradient>
<linearGradient id="paint4_linear_414_2073" x1="4.37077" y1="49.582" x2="50.7907" y2="49.5091" gradientUnits="userSpaceOnUse">
<stop offset="0.01" stop-color="#CED3F4"/>
<stop offset="0.07" stop-color="#D8DCF6"/>
<stop offset="0.16" stop-color="#F3F4FC"/>
<stop offset="0.2" stop-color="white"/>
<stop offset="0.27" stop-color="#F5F7FF"/>
<stop offset="0.36" stop-color="#E5E9FF"/>
<stop offset="0.39" stop-color="#DBDFFA"/>
<stop offset="0.47" stop-color="#C3C9EE"/>
<stop offset="0.55" stop-color="#B4BBE7"/>
<stop offset="0.61" stop-color="#AFB6E5"/>
<stop offset="0.78" stop-color="#BAC0EA"/>
<stop offset="1" stop-color="#CED3F4"/>
</linearGradient>
<linearGradient id="paint5_linear_414_2073" x1="18.77" y1="10.7393" x2="43.2555" y2="20.6109" gradientUnits="userSpaceOnUse">
<stop stop-color="#5277F7"/>
<stop offset="0.04" stop-color="#547EF8"/>
<stop offset="0.09" stop-color="#5993FA"/>
<stop offset="0.15" stop-color="#60B4FD"/>
<stop offset="0.19" stop-color="#66CCFF"/>
<stop offset="0.34" stop-color="#5277F7"/>
<stop offset="0.62" stop-color="#5A99FA"/>
<stop offset="0.85" stop-color="#5FAEFC"/>
<stop offset="1" stop-color="#61B6FD"/>
</linearGradient>
<linearGradient id="paint6_linear_414_2073" x1="38.4079" y1="9.44847" x2="6.8223" y2="24.9681" gradientUnits="userSpaceOnUse">
<stop stop-color="#5277F7"/>
<stop offset="0.04" stop-color="#547EF8"/>
<stop offset="0.09" stop-color="#5993FA"/>
<stop offset="0.15" stop-color="#60B4FD"/>
<stop offset="0.19" stop-color="#66CCFF"/>
<stop offset="0.34" stop-color="#5277F7"/>
<stop offset="0.35" stop-color="#5379F7"/>
<stop offset="0.46" stop-color="#5A97FA"/>
<stop offset="0.57" stop-color="#5FAEFC"/>
<stop offset="0.69" stop-color="#63BFFE"/>
<stop offset="0.83" stop-color="#65C9FF"/>
<stop offset="1" stop-color="#66CCFF"/>
</linearGradient>
<radialGradient id="paint7_radial_414_2073" cx="0" cy="0" r="1" gradientUnits="userSpaceOnUse" gradientTransform="translate(34.3227 49.0374) scale(32.94 52.704)">
<stop offset="0.53" stop-color="white"/>
<stop offset="0.71" stop-color="#FAFBFF"/>
<stop offset="0.92" stop-color="#ECEFFF"/>
<stop offset="1" stop-color="#E5E9FF"/>
</radialGradient>
<radialGradient id="paint8_radial_414_2073" cx="0" cy="0" r="1" gradientUnits="userSpaceOnUse" gradientTransform="translate(94.2045 147.826) rotate(164.745) scale(8.9823 39.3494)">
<stop stop-color="#AFB6E5"/>
<stop offset="0.07" stop-color="#8D92B8"/>
<stop offset="0.14" stop-color="#6C708D"/>
<stop offset="0.22" stop-color="#4F5267"/>
<stop offset="0.31" stop-color="#363947"/>
<stop offset="0.4" stop-color="#22242D"/>
<stop offset="0.5" stop-color="#131419"/>
<stop offset="0.62" stop-color="#08090B"/>
<stop offset="0.76" stop-color="#020202"/>
<stop offset="1"/>
</radialGradient>
<linearGradient id="paint9_linear_414_2073" x1="10.5593" y1="48.3331" x2="23.2036" y2="70.1733" gradientUnits="userSpaceOnUse">
<stop stop-color="#676FAE"/>
<stop offset="0.05" stop-color="#757CB8"/>
<stop offset="0.11" stop-color="#8B92C8"/>
<stop offset="0.23" stop-color="#AFB6E5"/>
<stop offset="0.35" stop-color="#949BCF"/>
<stop offset="0.38" stop-color="#8D94C9"/>
<stop offset="0.55" stop-color="#5E67A8"/>
<stop offset="0.61" stop-color="#616AAA"/>
<stop offset="0.67" stop-color="#6C75B2"/>
<stop offset="0.72" stop-color="#7E86BF"/>
<stop offset="0.78" stop-color="#979ED1"/>
<stop offset="1" stop-color="#7179B5"/>
</linearGradient>
<linearGradient id="paint10_linear_414_2073" x1="6.33981" y1="59.0444" x2="23.9368" y2="58.9342" gradientUnits="userSpaceOnUse">
<stop offset="0.04" stop-color="#929AD6"/>
<stop offset="0.36" stop-color="#AFB6E5"/>
<stop offset="0.61" stop-color="#949CD4"/>
<stop offset="1" stop-color="#646EB5"/>
</linearGradient>
<linearGradient id="paint11_linear_414_2073" x1="7.2825" y1="50.4876" x2="16.5207" y2="62.0531" gradientUnits="userSpaceOnUse">
<stop stop-color="#5277F7"/>
<stop offset="1"/>
</linearGradient>
<linearGradient id="paint12_linear_414_2073" x1="17.2138" y1="70.5823" x2="7.22676" y2="53.3579" gradientUnits="userSpaceOnUse">
<stop stop-color="#676FAE"/>
<stop offset="0.05" stop-color="#757CB8"/>
<stop offset="0.11" stop-color="#8B92C8"/>
<stop offset="0.23" stop-color="#AFB6E5"/>
<stop offset="0.35" stop-color="#949BCF"/>
<stop offset="0.38" stop-color="#8D94C9"/>
<stop offset="0.55" stop-color="#5E67A8"/>
<stop offset="0.61" stop-color="#616AAA"/>
<stop offset="0.67" stop-color="#6C75B2"/>
<stop offset="0.72" stop-color="#7E86BF"/>
<stop offset="0.78" stop-color="#979ED1"/>
<stop offset="1" stop-color="#7179B5"/>
</linearGradient>
<radialGradient id="paint13_radial_414_2073" cx="0" cy="0" r="1" gradientUnits="userSpaceOnUse" gradientTransform="translate(15.948 60.5146) rotate(-0.09) scale(9.43999)">
<stop stop-color="white"/>
<stop offset="1"/>
</radialGradient>
<radialGradient id="paint14_radial_414_2073" cx="0" cy="0" r="1" gradientUnits="userSpaceOnUse" gradientTransform="translate(32.2721 124.584) rotate(12.8043) scale(8.3363 36.9156)">
<stop stop-color="#972A74"/>
<stop offset="0.02" stop-color="#8C276C"/>
<stop offset="0.11" stop-color="#671D4F"/>
<stop offset="0.21" stop-color="#471437"/>
<stop offset="0.32" stop-color="#2D0D23"/>
<stop offset="0.43" stop-color="#190713"/>
<stop offset="0.57" stop-color="#0B0308"/>
<stop offset="0.73" stop-color="#020102"/>
<stop offset="1"/>
</radialGradient>
<linearGradient id="paint15_linear_414_2073" x1="3.21629" y1="110.134" x2="15.2681" y2="73.0549" gradientUnits="userSpaceOnUse">
<stop stop-color="#4666D4"/>
<stop offset="0.33" stop-color="#4E72EC"/>
<stop offset="0.46" stop-color="#5277F7"/>
<stop offset="0.5" stop-color="#537DF8"/>
<stop offset="0.55" stop-color="#578DF9"/>
<stop offset="0.61" stop-color="#5EA8FC"/>
<stop offset="0.67" stop-color="#66CCFF"/>
<stop offset="0.8" stop-color="#5277F7"/>
</linearGradient>
<linearGradient id="paint16_linear_414_2073" x1="-2.30111" y1="99.1537" x2="39.2493" y2="86.6384" gradientUnits="userSpaceOnUse">
<stop stop-color="#3863F5"/>
<stop offset="1" stop-color="#61C2F2"/>
</linearGradient>
<radialGradient id="paint17_radial_414_2073" cx="0" cy="0" r="1" gradientUnits="userSpaceOnUse" gradientTransform="translate(15.8687 91.7894) rotate(-0.0800001) scale(13.8662 13.8662)">
<stop stop-color="white"/>
<stop offset="1"/>
</radialGradient>
<linearGradient id="paint18_linear_414_2073" x1="48.6775" y1="98.3424" x2="42.0368" y2="78.8128" gradientUnits="userSpaceOnUse">
<stop stop-color="#4666D4"/>
<stop offset="0.33" stop-color="#4E72EC"/>
<stop offset="0.46" stop-color="#5277F7"/>
<stop offset="0.5" stop-color="#537DF8"/>
<stop offset="0.55" stop-color="#578DF9"/>
<stop offset="0.61" stop-color="#5EA8FC"/>
<stop offset="0.67" stop-color="#66CCFF"/>
<stop offset="0.8" stop-color="#5277F7"/>
</linearGradient>
<linearGradient id="paint19_linear_414_2073" x1="61.8267" y1="110.642" x2="37.1339" y2="64.3248" gradientUnits="userSpaceOnUse">
<stop stop-color="#3863F5"/>
<stop offset="1" stop-color="#61C2F2"/>
</linearGradient>
<radialGradient id="paint20_radial_414_2073" cx="0" cy="0" r="1" gradientUnits="userSpaceOnUse" gradientTransform="translate(40.4847 90.2755) rotate(-0.0899999) scale(13.85 13.85)">
<stop stop-color="white"/>
<stop offset="1"/>
</radialGradient>
</defs>
</svg>
