<svg width="121" height="98" viewBox="0 0 121 98" fill="none" xmlns="http://www.w3.org/2000/svg">
<g opacity="0.5">
<path opacity="0.01" d="M62.3252 95.1439C57.0952 98.1439 47.7452 97.6839 41.4852 94.0639C35.2252 90.4439 34.3852 85.0639 39.6152 82.0639L96.6952 53.1839C101.925 50.1839 111.125 47.4539 117.385 51.0739C123.645 54.6939 114.525 63.6939 109.295 66.7139L62.3252 95.1439Z" fill="#585D85"/>
<path opacity="0.02" d="M63.2251 94.3238C58.0851 97.3238 48.9151 96.8238 42.7851 93.3238C36.6551 89.8238 35.8451 84.4838 40.9751 81.5238L96.4651 53.4338C101.595 50.4338 110.615 47.8538 116.755 51.4338C122.895 55.0138 114.065 63.7538 108.925 66.7238L63.2251 94.3238Z" fill="#585D85"/>
<path opacity="0.03" d="M64.1153 93.4946C59.1153 96.4046 50.1153 95.9546 44.1153 92.4946C38.1153 89.0346 37.3253 83.8346 42.3753 80.9246L96.2753 53.6446C101.275 50.7346 110.165 48.2046 116.165 51.6446C122.165 55.0846 113.655 63.6446 108.605 66.5846L64.1153 93.4946Z" fill="#585D85"/>
<path opacity="0.04" d="M65.0155 92.6742C60.0655 95.5342 51.2555 95.0942 45.3855 91.6742C39.5155 88.2542 38.7555 83.1942 43.7055 80.3442L96.0255 53.8442C100.975 50.9842 109.646 48.5442 115.526 51.9342C121.406 55.3242 113.186 63.6642 108.236 66.5242L65.0155 92.6742Z" fill="#585D85"/>
<path opacity="0.05" d="M65.9052 91.8438C61.0552 94.6538 52.4252 94.2338 46.6852 90.9138C40.9452 87.5938 40.2052 82.6138 45.0652 79.8138L95.8152 54.0938C100.665 51.2938 109.155 48.9438 114.905 52.2638C120.655 55.5838 112.745 63.6938 107.905 66.4938L65.9052 91.8438Z" fill="#585D85"/>
<path opacity="0.06" d="M66.8054 91.0238C62.0354 93.7738 53.5954 93.3638 47.9754 90.1238C42.3554 86.8838 41.6654 82.0038 46.4254 79.2538L95.5954 54.3238C100.355 51.5838 108.675 49.3238 114.285 52.5638C119.895 55.8038 112.285 63.6938 107.545 66.4438L66.8054 91.0238Z" fill="#585D85"/>
<path opacity="0.07" d="M67.6955 90.1938C63.0255 92.8938 54.7655 92.5038 49.2755 89.3338C43.7855 86.1638 43.1255 81.3938 47.7855 78.7038L95.3755 54.5538C100.046 51.8638 108.186 49.6938 113.675 52.8638C119.165 56.0338 111.866 63.6938 107.196 66.3838L67.6955 90.1938Z" fill="#585D85"/>
<path opacity="0.08" d="M68.5953 89.374C64.0153 92.014 55.9353 91.644 50.5953 88.544C45.2553 85.444 44.5953 80.784 49.1753 78.144L95.1753 54.784C99.7453 52.144 107.705 50.064 113.065 53.164C118.425 56.264 111.435 63.694 106.855 66.334L68.5953 89.374Z" fill="#585D85"/>
<path opacity="0.09" d="M69.4853 88.5438C65.0053 91.1338 57.1053 90.7838 51.8753 87.7638C46.6453 84.7438 46.0353 80.1739 50.5153 77.5939L94.9453 55.0139C99.4253 52.4239 107.215 50.4439 112.445 53.4639C117.675 56.4839 110.985 63.6938 106.505 66.2738L69.4853 88.5438Z" fill="#585D85"/>
<path opacity="0.1" d="M70.3854 87.7238C65.9954 90.2538 58.2755 89.9138 53.1755 86.9738C48.0755 84.0338 47.4954 79.5638 51.8754 77.0338L94.6954 55.2438C99.0754 52.7138 106.695 50.8138 111.785 53.7638C116.875 56.7138 110.505 63.6938 106.115 66.2238L70.3854 87.7238Z" fill="#585D85"/>
<path opacity="0.11" d="M71.2753 86.8942C66.9853 89.3742 59.4453 89.0542 54.4753 86.1842C49.5053 83.3142 48.9454 78.9542 53.2354 76.4842L94.5154 55.4842C98.8054 53.0042 106.245 51.1942 111.215 54.0742C116.185 56.9542 110.105 63.7042 105.805 66.1742L71.2753 86.8942Z" fill="#585D85"/>
<path opacity="0.12" d="M72.1754 86.0744C67.9754 88.4944 60.6154 88.1944 55.7754 85.3944C50.9354 82.5944 50.4054 78.3944 54.6054 75.9244L94.2954 55.7044C98.4954 53.2744 105.755 51.5644 110.595 54.3544C115.435 57.1444 109.655 63.6944 105.465 66.1144L72.1754 86.0744Z" fill="#585D85"/>
<path opacity="0.13" d="M73.0651 85.2438C68.9651 87.6138 61.7851 87.3238 57.0651 84.6038C52.3451 81.8838 51.8451 77.7438 55.9551 75.3738L94.0751 55.9338C98.1751 53.5638 105.255 51.9338 109.975 54.6538C114.695 57.3738 109.205 63.6538 105.105 66.0538L73.0651 85.2438Z" fill="#585D85"/>
<path opacity="0.14" d="M73.9652 84.4338C69.9652 86.7438 62.9652 86.4338 58.3752 83.8238C53.7852 81.2138 53.3153 77.1438 57.3253 74.8238L93.8653 56.1738C97.8653 53.8538 104.785 52.3138 109.365 54.9638C113.945 57.6138 108.775 63.6938 104.775 65.9638L73.9652 84.4338Z" fill="#585D85"/>
<path opacity="0.15" d="M74.8553 83.5943C70.9453 85.8543 64.1253 85.5943 59.6753 83.0243C55.2253 80.4543 54.7753 76.5243 58.6753 74.2643L93.6953 56.4343C97.6153 54.1743 104.345 52.7343 108.805 55.3043C113.265 57.8743 108.385 63.7343 104.475 65.9943L74.8553 83.5943Z" fill="#585D85"/>
<path opacity="0.15" d="M75.7552 82.7745C71.9352 84.9745 65.2952 84.7745 60.9752 82.2345C56.6552 79.6945 56.2252 75.9145 60.0552 73.7045L93.4352 56.6145C97.2552 54.4145 103.805 53.0545 108.135 55.5545C112.465 58.0545 107.895 63.6845 104.075 65.8945L75.7552 82.7745Z" fill="#585D85"/>
<path opacity="0.16" d="M76.6955 81.9439C72.9755 84.0939 66.5255 83.8739 62.3255 81.4539C58.1255 79.0339 57.7355 75.3039 61.4655 73.1439L93.2655 56.8439C96.9955 54.6939 103.376 53.4239 107.576 55.8439C111.776 58.2639 107.506 63.6739 103.786 65.8439L76.6955 81.9439Z" fill="#585D85"/>
<path opacity="0.17" d="M77.5455 81.1244C73.9055 83.2144 67.6455 83.0144 63.5455 80.6644C59.4455 78.3144 59.1255 74.6644 62.7555 72.5944L92.9755 57.0744C96.6155 54.9744 102.816 53.8044 106.886 56.1544C110.956 58.5044 106.996 63.6844 103.366 65.7844L77.5455 81.1244Z" fill="#585D85"/>
<path opacity="0.18" d="M78.4353 80.2937C74.8953 82.2937 68.8153 82.1437 64.8653 79.8737C60.9153 77.6037 60.5953 74.0837 64.1353 72.0337L92.7853 57.3037C96.3253 55.3037 102.345 54.1737 106.295 56.4537C110.245 58.7337 106.575 63.6837 103.035 65.7337L78.4353 80.2937Z" fill="#585D85"/>
<path opacity="0.19" d="M79.3351 79.4338C75.8851 81.4338 69.9851 81.2438 66.1651 79.0438C62.3451 76.8438 62.0551 73.4338 65.4951 71.4438L92.5651 57.4438C96.0151 55.4438 101.865 54.4438 105.675 56.6638C109.485 58.8838 106.135 63.5938 102.675 65.5838L79.3351 79.4338Z" fill="#585D85"/>
<path opacity="0.2" d="M80.2253 78.6445C76.8753 80.5845 71.1553 80.4245 67.4653 78.2945C63.7753 76.1645 63.4653 72.8645 66.8653 70.9245L92.3553 57.7645C95.7053 55.8245 101.355 54.9245 105.065 57.0445C108.775 59.1645 105.695 63.6845 102.345 65.6245L80.2253 78.6445Z" fill="#585D85"/>
<path opacity="0.21" d="M81.125 77.8244C77.865 79.7044 72.3251 79.5644 68.7651 77.5044C65.2051 75.4444 64.9651 72.2544 68.2251 70.3744L92.1351 57.9944C95.3951 56.1144 100.895 55.2944 104.445 57.3444C107.995 59.3944 105.255 63.6844 102.005 65.5644L81.125 77.8244Z" fill="#585D85"/>
<path opacity="0.22" d="M82.0152 76.9939C78.8552 78.8239 73.4952 78.6939 70.0652 76.7139C66.6352 74.7339 66.4252 71.6439 69.5852 69.8139L91.9152 58.2239C95.0852 56.3939 100.405 55.6639 103.835 57.6439C107.265 59.6239 104.835 63.6439 101.655 65.5139L82.0152 76.9939Z" fill="#585D85"/>
<path opacity="0.23" d="M82.9155 76.1637C79.8455 77.9437 74.6655 77.8337 71.3655 75.9337C68.0655 74.0337 67.8754 71.0337 70.9454 69.2637L91.6954 58.4337C94.7654 56.6637 99.9055 56.0337 103.205 57.9337C106.505 59.8337 104.365 63.6736 101.295 65.4436L82.9155 76.1637Z" fill="#585D85"/>
<path opacity="0.24" d="M83.8054 75.3443C80.8054 77.0643 75.8054 76.9743 72.6654 75.1443C69.5254 73.3143 69.3354 70.4243 72.3154 68.7043L91.4854 58.7043C94.4854 56.9943 99.4354 56.4443 102.605 58.2743C105.775 60.1043 103.935 63.7143 100.965 65.4343L83.8054 75.3443Z" fill="#585D85"/>
<path opacity="0.25" d="M84.6954 74.5145C83.0183 75.3325 81.1721 75.7442 79.3063 75.7164C77.4405 75.6886 75.6075 75.2221 73.9554 74.3545C70.9554 72.5945 70.7854 69.8145 73.6654 68.1545L91.2554 58.9045C94.1454 57.2445 98.9354 56.7845 101.975 58.5445C105.015 60.3045 103.485 63.6845 100.605 65.3445L84.6954 74.5145Z" fill="#585D85"/>
<path opacity="0.26" d="M85.6055 73.6941C83.9924 74.4843 82.2161 74.8842 80.42 74.8617C78.6239 74.8391 76.8582 74.3946 75.2655 73.5641C72.3455 71.8841 72.2655 69.2041 75.0355 67.5641L91.0355 59.1041C93.8255 57.4941 98.4355 57.1041 101.355 58.8141C104.275 60.5241 103.035 63.6541 100.245 65.2641L85.6055 73.6941Z" fill="#585D85"/>
<path opacity="0.27" d="M86.4953 72.8639C84.949 73.6286 83.2445 74.0189 81.5196 74.0032C79.7946 73.9876 78.0975 73.5665 76.5653 72.7739C73.7753 71.1639 73.7053 68.5939 76.3953 67.0339L90.8353 59.3639C93.5353 57.8139 97.9753 57.5339 100.755 59.1439C103.535 60.7539 102.615 63.6839 99.9253 65.2339L86.4953 72.8639Z" fill="#585D85"/>
<path opacity="0.28" d="M87.3954 72.0437C85.9116 72.7815 84.2753 73.1605 82.6182 73.15C80.9612 73.1396 79.3297 72.7401 77.8554 71.9837C75.2054 70.4537 75.1654 67.9837 77.7654 66.4837L90.6253 59.5937C92.0883 58.8219 93.7124 58.4053 95.3663 58.3775C97.0201 58.3497 98.6573 58.7115 100.145 59.4337C102.795 60.9737 102.145 63.6837 99.5754 65.1837L87.3954 72.0437Z" fill="#585D85"/>
<path opacity="0.29" d="M88.2853 71.2142C86.8706 71.9319 85.3067 72.3059 83.7203 72.3059C82.134 72.3059 80.57 71.9319 79.1553 71.2142C76.6353 69.7542 76.6153 67.3942 79.1553 65.9442L90.4353 59.8442C91.8412 59.1126 93.3998 58.7232 94.9845 58.7075C96.5693 58.6919 98.1353 59.0505 99.5553 59.7542C102.085 61.2142 101.765 63.7042 99.2653 65.1442L88.2853 71.2142Z" fill="#585D85"/>
<path opacity="0.3" d="M89.1852 70.4337C87.8322 71.1191 86.3369 71.4762 84.8202 71.4762C83.3036 71.4762 81.8082 71.1191 80.4553 70.4337C78.0653 69.0537 78.0753 66.7937 80.4553 65.4337L90.1552 60.1137C91.5082 59.4284 93.0036 59.0713 94.5203 59.0713C96.0369 59.0713 97.5323 59.4284 98.8852 60.1137C101.275 61.5037 101.265 63.7637 98.8852 65.1137L89.1852 70.4337Z" fill="#585D85"/>
</g>
<path d="M98.045 70.6436V70.3136C97.135 63.1936 93.915 57.7536 93.915 51.0836V33.9636L82.485 27.4336L76.355 31.0736C76.355 31.0736 84.785 56.3336 83.845 62.4836C83.9179 63.7461 84.2862 64.9738 84.9201 66.068C85.5541 67.1622 86.436 68.0924 87.495 68.7836L87.595 68.8436L88.655 77.8436L96.655 73.1936C97.1367 72.9829 97.5347 72.6181 97.7863 72.1564C98.038 71.6948 98.129 71.1626 98.045 70.6436Z" fill="url(#paint0_linear_414_2014)"/>
<path d="M85.5051 77.8642L78.6051 73.8642C77.5417 73.1777 76.6563 72.2487 76.0218 71.1535C75.3873 70.0583 75.0217 68.8282 74.9551 67.5642C75.9065 61.1349 76.3745 54.6434 76.3551 48.1442V31.0342L87.7451 37.6142V54.7342C87.763 61.6562 88.2206 68.5701 89.1151 75.4342V75.7642C89.1551 78.0942 87.5151 79.0242 85.5051 77.8642Z" fill="url(#paint1_linear_414_2014)"/>
<path style="mix-blend-mode:color-dodge" d="M89.4153 75.2948C88.5236 68.4272 88.0694 61.5099 88.0553 54.5848V37.4348L76.6953 30.8848V31.4348L87.4853 37.6648V54.7748C87.5044 61.7031 87.9586 68.6234 88.8453 75.4948L88.8953 75.8248C88.9455 76.2651 88.8796 76.7109 88.7042 77.1179C88.5288 77.5249 88.2499 77.8789 87.8953 78.1448C88.8953 77.9648 89.5353 77.0548 89.5353 75.5948L89.4153 75.2948Z" fill="url(#paint2_radial_414_2014)"/>
<path d="M83.9451 53.7935L82.9751 61.6935L85.0951 60.4735V53.1035L83.9451 53.7935Z" fill="#747ECC"/>
<path d="M83.9554 53.7943L82.9754 61.6943L78.8154 59.3443L79.7954 51.4043L83.9554 53.7943Z" fill="#101032"/>
<path d="M79.7949 51.4046L83.9549 53.7946L85.0949 53.1046L80.9249 50.7246L79.7949 51.4046Z" fill="#7C86D1"/>
<path style="mix-blend-mode:multiply" d="M85.5051 77.8642L78.6051 73.8642C77.5417 73.1777 76.6563 72.2487 76.0218 71.1535C75.3873 70.0583 75.0217 68.8282 74.9551 67.5642C75.9065 61.1349 76.3745 54.6434 76.3551 48.1442V31.0342L87.7451 37.6142V54.7342C87.763 61.6562 88.2206 68.5701 89.1151 75.4342V75.7642C89.1551 78.0942 87.5151 79.0242 85.5051 77.8642Z" fill="url(#paint3_radial_414_2014)"/>
<path d="M110.795 23.624C110.795 27.554 109.445 30.334 107.245 31.674L95.6951 38.494C93.4051 39.774 94.8651 36.864 91.3851 34.854C84.3851 30.854 78.7051 21.024 78.7051 12.984C78.7051 8.98399 75.0351 8.98399 77.2851 7.65399L89.2851 0.773987C91.5751 -0.456013 94.6951 -0.226012 98.1351 1.77399C105.115 5.79399 110.795 15.594 110.795 23.624Z" fill="#F58529"/>
<path d="M95.2501 38.6714C100.171 35.7949 100.119 26.5522 95.1358 18.0272C90.1522 9.50214 82.1233 4.92307 77.2028 7.79953C72.2823 10.676 72.3335 19.9187 77.3171 28.4437C82.3007 36.9688 90.3296 41.5479 95.2501 38.6714Z" fill="#101032"/>
<path style="mix-blend-mode:color-dodge" d="M86.8351 8.36338C83.4851 6.42338 80.435 6.16339 78.165 7.30339C80.275 6.71339 82.905 7.15339 85.745 8.79339C92.745 12.7934 98.425 22.6234 98.425 30.6634C98.425 34.8434 96.885 37.7234 94.425 38.9534C97.525 38.0934 99.525 35.0134 99.525 30.2334C99.515 22.2034 93.8451 12.4334 86.8351 8.36338Z" fill="url(#paint4_radial_414_2014)"/>
<path d="M96.9447 31.3644C96.9447 35.1744 95.6247 37.8744 93.4847 39.1844L88.6247 42.0044C76.7547 48.8944 72.3147 61.1244 65.6847 76.1944V76.2644C61.1647 78.7844 24.9747 18.1244 29.4147 15.5144C45.2647 16.7344 57.9747 19.5144 69.4147 12.9244L75.9747 9.1644C78.1947 7.9644 81.2347 8.1644 84.5747 10.1644C91.4247 14.0444 96.9447 23.5544 96.9447 31.3644Z" fill="url(#paint5_linear_414_2014)"/>
<g style="mix-blend-mode:color-dodge" opacity="0.4">
<path d="M105.085 28.4342C103.129 30.4967 100.96 32.3469 98.6154 33.9542L94.4854 36.6142C84.4154 43.0942 81.3554 48.0642 70.2254 69.2842L63.8854 62.7142C60.1054 65.1242 53.3354 47.4042 76.0754 34.4642L76.7554 34.8842C82.6754 33.0942 85.6754 31.2242 95.3854 24.9942L100.925 21.4442C102.755 20.2842 107.175 20.8142 107.655 21.4442C108.695 22.5542 109.825 23.5142 105.085 28.4342Z" fill="url(#paint6_radial_414_2014)"/>
</g>
<path d="M69.1652 64.2242C69.1652 72.4242 66.3352 78.2242 61.7352 81.0442L57.1752 83.9242C52.3852 86.5942 55.4452 80.5242 48.1752 76.3342C33.5552 67.8842 21.6952 47.4342 21.6952 30.6442C21.6952 22.3442 14.0252 22.2842 18.6952 19.5142L24.1552 16.5142C28.9352 13.9342 35.4552 14.4142 42.6452 18.5642C57.3052 26.9842 69.1652 47.4342 69.1652 64.2242Z" fill="#F58529"/>
<path d="M56.3023 84.2667C66.5819 78.2574 66.4781 58.9534 56.0705 41.15C45.6629 23.3466 28.8925 13.7856 18.6129 19.7949C8.33328 25.8043 8.43705 45.1083 18.8447 62.9117C29.2523 80.7151 46.0227 90.276 56.3023 84.2667Z" fill="#F58529"/>
<path d="M55.0757 82.1694C64.683 76.553 64.5833 58.5068 54.853 41.862C45.1227 25.2172 29.4464 16.2769 19.839 21.8932C10.2317 27.5096 10.3314 45.5558 20.0617 62.2006C29.792 78.8454 45.4683 87.7857 55.0757 82.1694Z" fill="url(#paint7_linear_414_2014)"/>
<path d="M42.3253 78.4344C28.6453 70.5444 17.5653 51.4344 17.5653 35.7244C17.5653 28.4944 19.9253 23.2644 23.8053 20.4844C17.1053 21.7044 12.6953 27.8744 12.6953 37.7744C12.6953 53.4644 23.7753 72.5844 37.4553 80.4744C44.8253 84.7344 51.4553 84.8544 55.9753 81.6044C52.0553 82.2844 47.3653 81.3044 42.3253 78.4344Z" fill="#747ECD"/>
<path style="mix-blend-mode:color-dodge" d="M38.225 20.9647C31.225 16.9147 23.965 17.1847 20.605 18.7747C25.015 17.5347 31.265 18.2847 37.195 21.7147C51.825 30.1547 63.695 50.6147 63.695 67.4347C63.695 76.1747 59.695 82.3647 54.565 84.9347C59.965 82.9347 64.725 76.6547 64.725 66.6847C64.695 49.8647 52.855 29.4347 38.225 20.9647Z" fill="white"/>
<path style="mix-blend-mode:multiply" d="M55.0757 82.1694C64.683 76.553 64.5833 58.5068 54.853 41.862C45.1227 25.2172 29.4464 16.2769 19.839 21.8932C10.2317 27.5096 10.3314 45.5558 20.0617 62.2006C29.792 78.8454 45.4683 87.7857 55.0757 82.1694Z" fill="url(#paint8_radial_414_2014)"/>
<path d="M51.4052 36.4336L39.7752 45.9536C39.0552 46.3736 40.2252 46.3836 40.2252 47.6536C40.3074 49.0555 40.7165 50.4186 41.4197 51.6341C42.1229 52.8496 43.1008 53.8837 44.2752 54.6536C45.3952 55.2936 44.9252 56.2236 45.6552 55.8136L59.0852 50.6736C57.2043 45.5909 54.619 40.7974 51.4052 36.4336Z" fill="#101032"/>
<path d="M45.5262 55.8749C47.0996 54.9551 47.0827 51.9986 45.4884 49.2713C43.8941 46.5441 41.3261 45.0788 39.7527 45.9986C38.1793 46.9184 38.1963 49.8749 39.7906 52.6022C41.3849 55.3294 43.9528 56.7947 45.5262 55.8749Z" fill="#101032"/>
<path d="M45.425 52.5334C45.425 54.3034 44.175 55.0134 42.635 54.1234C41.8269 53.5982 41.154 52.8899 40.671 52.0559C40.188 51.2219 39.9084 50.2857 39.855 49.3234C39.855 47.5534 41.095 46.8434 42.635 47.7334C43.4444 48.2581 44.1188 48.9661 44.6035 49.8001C45.0882 50.634 45.3697 51.5704 45.425 52.5334Z" fill="#F58529"/>
<path style="mix-blend-mode:screen" d="M42.8347 46.1834C42.4369 45.8983 41.9739 45.7177 41.4881 45.6583C41.0024 45.5989 40.5094 45.6625 40.0547 45.8434C40.4707 45.757 40.8997 45.7541 41.3168 45.8348C41.734 45.9154 42.1309 46.0781 42.4847 46.3134C43.6498 47.0888 44.618 48.1253 45.3124 49.3404C46.0067 50.5556 46.4082 51.9159 46.4847 53.3134C46.5438 53.8323 46.455 54.3574 46.2285 54.8281C46.0021 55.2987 45.6472 55.6958 45.2047 55.9734C46.2047 55.6934 46.8347 54.7134 46.8347 53.1834C46.7644 51.7845 46.3656 50.4218 45.6707 49.2057C44.9758 47.9895 44.0042 46.9542 42.8347 46.1834Z" fill="url(#paint9_radial_414_2014)"/>
<path style="mix-blend-mode:color-dodge" d="M88.1351 12.9839C89.9051 17.5339 79.2651 25.9139 64.3751 31.6939C49.4851 37.4739 35.9751 38.4739 34.2151 33.9139C32.4551 29.3539 43.0751 20.9839 57.9751 15.2039C72.8751 9.42387 86.3651 8.43387 88.1351 12.9839Z" fill="url(#paint10_radial_414_2014)"/>
<defs>
<linearGradient id="paint0_linear_414_2014" x1="99.905" y1="71.0536" x2="82.215" y2="39.9536" gradientUnits="userSpaceOnUse">
<stop stop-color="#CDD2F3"/>
<stop offset="0.04" stop-color="white"/>
<stop offset="0.17" stop-color="#EBEEFF"/>
<stop offset="0.2" stop-color="#E5E9FF"/>
<stop offset="0.35" stop-color="#DBDFFA"/>
<stop offset="0.59" stop-color="#C0C6ED"/>
<stop offset="0.72" stop-color="#AFB6E5"/>
<stop offset="0.91" stop-color="#AFB6E5"/>
<stop offset="1" stop-color="#AFB6E5"/>
</linearGradient>
<linearGradient id="paint1_linear_414_2014" x1="92.2151" y1="71.2542" x2="73.6551" y2="40.9642" gradientUnits="userSpaceOnUse">
<stop stop-color="#E5E9FF"/>
<stop offset="0.23" stop-color="#DBDFFA"/>
<stop offset="0.62" stop-color="#C0C6ED"/>
<stop offset="0.82" stop-color="#AFB6E5"/>
</linearGradient>
<radialGradient id="paint2_radial_414_2014" cx="0" cy="0" r="1" gradientUnits="userSpaceOnUse" gradientTransform="translate(98.8053 62.5948) scale(16.51 16.51)">
<stop stop-color="white"/>
<stop offset="1"/>
</radialGradient>
<radialGradient id="paint3_radial_414_2014" cx="0" cy="0" r="1" gradientUnits="userSpaceOnUse" gradientTransform="translate(80.8051 38.5342) scale(17.65 17.65)">
<stop stop-color="#AFB6E5"/>
<stop offset="1" stop-color="white"/>
</radialGradient>
<radialGradient id="paint4_radial_414_2014" cx="0" cy="0" r="1" gradientUnits="userSpaceOnUse" gradientTransform="translate(88.845 22.7934) scale(13.7 13.7)">
<stop stop-color="white"/>
<stop offset="1"/>
</radialGradient>
<linearGradient id="paint5_linear_414_2014" x1="55.6547" y1="10.8944" x2="81.8947" y2="56.3444" gradientUnits="userSpaceOnUse">
<stop stop-color="#CDD2F3"/>
<stop offset="0.2" stop-color="#E5E9FF"/>
<stop offset="0.28" stop-color="#EFF2FF"/>
<stop offset="0.35" stop-color="white"/>
<stop offset="0.46" stop-color="#EBEDF9"/>
<stop offset="0.68" stop-color="#B9BFE8"/>
<stop offset="0.72" stop-color="#AFB6E5"/>
<stop offset="0.91" stop-color="#AFB6E5"/>
<stop offset="1" stop-color="#AFB6E5"/>
</linearGradient>
<radialGradient id="paint6_radial_414_2014" cx="0" cy="0" r="1" gradientUnits="userSpaceOnUse" gradientTransform="translate(-10.6885 12.0956) rotate(-19.7989) scale(24.9924 17.7177)">
<stop stop-color="#5277F6"/>
<stop offset="0.12" stop-color="#3F5BBD"/>
<stop offset="0.24" stop-color="#2E438B"/>
<stop offset="0.36" stop-color="#202E60"/>
<stop offset="0.49" stop-color="#141E3E"/>
<stop offset="0.61" stop-color="#0B1123"/>
<stop offset="0.74" stop-color="#05070F"/>
<stop offset="0.87" stop-color="#010204"/>
<stop offset="1"/>
</radialGradient>
<linearGradient id="paint7_linear_414_2014" x1="54.3247" y1="81.2401" x2="19.6547" y2="21.1901" gradientUnits="userSpaceOnUse">
<stop stop-color="#CDD2F3"/>
<stop offset="0.2" stop-color="#E5E9FF"/>
<stop offset="0.28" stop-color="#EFF2FF"/>
<stop offset="0.35" stop-color="white"/>
<stop offset="0.46" stop-color="#EBEDF9"/>
<stop offset="0.68" stop-color="#B9BFE8"/>
<stop offset="0.72" stop-color="#AFB6E5"/>
<stop offset="0.91" stop-color="#AFB6E5"/>
<stop offset="1" stop-color="#AFB6E5"/>
</linearGradient>
<radialGradient id="paint8_radial_414_2014" cx="0" cy="0" r="1" gradientUnits="userSpaceOnUse" gradientTransform="translate(62.5347 39.4901) scale(40.98 40.98)">
<stop stop-color="#AFB6E5"/>
<stop offset="1" stop-color="white"/>
</radialGradient>
<radialGradient id="paint9_radial_414_2014" cx="0" cy="0" r="1" gradientUnits="userSpaceOnUse" gradientTransform="translate(43.4747 50.7934) scale(4.38002 4.38)">
<stop stop-color="white"/>
<stop offset="1"/>
</radialGradient>
<radialGradient id="paint10_radial_414_2014" cx="0" cy="0" r="1" gradientUnits="userSpaceOnUse" gradientTransform="translate(115.893 74.5832) rotate(-21.275) scale(29.0064 8.70685)">
<stop stop-color="#66CCFF"/>
<stop offset="0.01" stop-color="#63C6F7"/>
<stop offset="0.07" stop-color="#4C98BE"/>
<stop offset="0.14" stop-color="#386F8B"/>
<stop offset="0.21" stop-color="#274D60"/>
<stop offset="0.27" stop-color="#19313E"/>
<stop offset="0.34" stop-color="#0E1C23"/>
<stop offset="0.41" stop-color="#060C0F"/>
<stop offset="0.48" stop-color="#020304"/>
<stop offset="0.55"/>
</radialGradient>
</defs>
</svg>
