<svg width="111" height="106" viewBox="0 0 111 106" fill="none" xmlns="http://www.w3.org/2000/svg">
<path style="mix-blend-mode:multiply" d="M63.1202 101.748C84.6152 101.748 102.04 92.341 102.04 80.7375C102.04 69.134 84.6152 59.7275 63.1202 59.7275C41.6253 59.7275 24.2002 69.134 24.2002 80.7375C24.2002 92.341 41.6253 101.748 63.1202 101.748Z" fill="url(#paint0_radial_414_1809)"/>
<path d="M100.04 63.3864C105.665 40.0297 91.2899 16.5357 67.9332 10.911C44.5766 5.28632 21.0825 19.6609 15.4578 43.0176C9.83315 66.3743 24.2078 89.8683 47.5644 95.493C70.9211 101.118 94.4151 86.7431 100.04 63.3864Z" fill="url(#paint1_radial_414_1809)"/>
<path style="mix-blend-mode:color-dodge" opacity="0.7" d="M84.01 20.0576C88.5787 28.0164 90.586 37.1891 89.7589 46.3286C88.9317 55.4682 85.3103 64.1315 79.387 71.1407C73.4636 78.15 65.5255 83.1653 56.6519 85.505C47.7782 87.8447 38.3993 87.3952 29.79 84.2176C38.2982 91.4116 49.3157 94.9311 60.4188 94.0019C71.5219 93.0726 81.8011 87.7708 88.9951 79.2626C96.1891 70.7545 99.7085 59.737 98.7793 48.6339C97.8501 37.5308 92.5482 27.2516 84.04 20.0576H84.01Z" fill="url(#paint2_radial_414_1809)"/>
<path d="M22.7902 49.6576C23.4437 49.8249 24.1157 49.9089 24.7902 49.9076C25.5702 49.8376 25.9202 50.0876 27.1702 51.0576C27.5149 51.3221 27.9483 51.4438 28.3803 51.3972C28.8123 51.3507 29.2098 51.1395 29.4902 50.8076C29.4902 50.8076 27.6402 49.8076 26.2902 49.1876C24.9402 48.5676 22.7902 49.6576 22.7902 49.6576ZM41.1702 31.2076C40.6402 30.9676 39.9802 31.8376 39.6602 32.3076C39.3402 32.7776 39.2302 33.3076 39.0102 33.4676C38.7902 33.6276 40.3802 33.8076 40.8902 33.7776C41.4002 33.7476 41.5402 33.5876 41.9502 33.9376C42.3602 34.2876 42.9502 34.0576 42.9502 33.8376C42.9502 33.6176 42.5102 33.0876 42.4802 32.7476C42.4502 32.4076 41.7002 32.4276 41.2602 32.2476C40.8202 32.0676 41.6102 31.3976 41.2102 31.2076H41.1702ZM28.6702 48.7776C28.6102 48.5576 27.6702 49.1176 27.5502 48.5576C27.4031 48.1048 27.2226 47.6636 27.0102 47.2376H26.3902C26.4157 47.71 26.5649 48.1675 26.8229 48.5642C27.0809 48.9608 27.4387 49.2827 27.8602 49.4976C28.9002 49.8376 28.7902 48.9976 28.7102 48.7776H28.6702ZM31.6702 52.0676C32.8002 52.0676 34.6702 51.8176 35.4902 52.2176C36.1195 52.5541 36.7069 52.9636 37.2402 53.4376C37.2402 53.4376 36.9902 52.1876 34.5202 51.7176L30.2002 50.9076C30.2002 50.9076 30.6102 51.3476 30.3602 51.5676C30.0663 51.7577 29.7507 51.9121 29.4202 52.0276L31.2002 52.4676C31.2002 52.4676 31.4102 52.1176 31.7902 52.1176L31.6702 52.0676ZM52.6702 66.1176C51.9584 65.4228 51.0304 64.9923 50.0402 64.8976C48.9714 64.7259 47.9673 64.2739 47.1302 63.5876C46.42 63.1951 45.8159 62.6357 45.3702 61.9576C45.0002 61.1476 42.9902 59.7976 42.5502 59.4176C42.1102 59.0376 40.8302 59.4176 39.2702 58.4176C37.7102 57.4176 38.9502 57.1376 37.1102 56.8576C35.9744 56.7379 34.8319 56.6944 33.6902 56.7276C32.6902 56.6376 32.0602 55.7276 31.2502 55.7276C30.4402 55.7276 28.6202 57.3576 28.2502 57.6676C27.8802 57.9776 27.7502 57.8276 27.0302 57.3876C26.3102 56.9476 25.8102 57.8876 24.5602 57.2976C23.3102 56.7076 25.0602 54.0076 25.0902 53.5676C25.1202 53.1276 24.5302 53.2576 23.4602 53.3776C22.3902 53.4976 20.7702 53.5976 20.7702 53.5976C20.7702 53.5976 20.8602 52.6876 20.9902 51.9376C21.1202 51.1876 22.0902 50.4376 21.6202 49.8076C21.1502 49.1776 19.8302 49.7176 19.1102 50.1276C18.3902 50.5376 18.4802 52.3476 16.5402 51.9076C14.6002 51.4676 15.1302 48.2776 15.2302 47.6776C15.2097 47.3548 15.264 47.0316 15.3889 46.7333C15.5137 46.4349 15.7058 46.1695 15.9502 45.9576C16.7002 45.2676 18.5202 45.5476 19.3902 45.5176C20.2602 45.4876 21.0502 44.8276 21.7702 44.6476C22.4902 44.4676 23.1202 45.1776 23.9302 46.1776C24.1644 46.4498 24.3107 46.7866 24.3499 47.1435C24.3892 47.5005 24.3196 47.8609 24.1502 48.1776C24.1502 48.1776 25.5302 48.2776 26.0902 47.6176C26.6502 46.9576 25.6502 44.4576 25.9102 43.7376C26.1702 43.0176 29.0402 41.8276 29.2902 41.4176C29.5402 41.0076 29.1303 40.2276 29.8203 38.8776C30.5103 37.5276 32.2902 37.9776 32.4502 37.9776C32.6102 37.9776 32.4502 37.5376 32.1702 37.0976C31.8902 36.6576 32.3502 36.2876 32.8602 36.0276C33.3702 35.7676 35.2402 35.1276 35.2402 35.1276C35.0925 35.229 34.9697 35.3628 34.8813 35.5187C34.793 35.6747 34.7413 35.8487 34.7302 36.0276C34.7302 36.5676 35.4202 35.9676 36.3002 35.5676C37.1802 35.1676 38.6802 34.6576 38.6802 34.6576L38.3002 34.1276C37.7792 34.2476 37.2415 34.278 36.7102 34.2176C35.9902 34.0876 35.9602 33.7176 35.7702 32.9976C35.5802 32.2776 32.6102 33.3376 32.6102 33.3376C33.121 32.9094 33.6738 32.5342 34.2602 32.2176C34.9802 31.8676 37.9002 32.1176 38.4302 32.0876C38.9602 32.0576 39.5602 31.2376 40.4302 31.2076C41.3002 31.1776 41.4302 30.5576 41.2802 30.1176C41.1302 29.6776 39.8402 29.2676 38.2102 28.2076C37.1751 27.493 36.3083 26.5614 35.6702 25.4776C35.4044 25.909 35.0661 26.2913 34.6702 26.6076C34.1402 26.9476 33.4202 26.7376 32.7602 25.9176C32.0233 25.1261 31.0397 24.6078 29.9702 24.4476C29.1602 24.3576 27.2202 24.4476 27.2202 24.4476C27.2202 24.4476 27.2802 24.8576 27.3402 25.5076C27.4002 26.1576 26.5902 26.6976 26.5902 26.6976C26.5902 26.6976 28.0902 27.2676 28.2502 28.0476C28.4102 28.8276 26.2502 29.2376 26.2502 29.2376C26.2502 29.2376 26.7502 30.8676 26.4302 30.8976C26.1102 30.9276 25.0602 29.6076 24.8402 28.9576C24.6702 28.4676 23.4802 28.4776 22.2202 28.3076C17.0761 35.5621 14.2899 44.2244 14.2402 53.1176C15.0842 53.3963 15.9624 53.5578 16.8502 53.5976C17.9102 53.5076 17.4702 54.1576 19.5102 54.9476C20.8766 55.3488 22.0477 56.2386 22.8002 57.4476C23.3302 58.3276 25.2402 59.1376 26.0802 58.5776C26.9202 58.0176 27.1502 58.5776 27.5902 59.8876C28.0302 61.1976 26.9602 61.9876 26.0802 62.8876C25.2002 63.7876 25.2402 65.7376 25.2402 66.6176C25.2402 67.4976 25.8302 67.4576 26.3002 68.6176C26.7702 69.7776 27.8402 72.3176 29.3002 73.2876C30.7602 74.2576 32.0602 75.0076 32.1502 76.3876C32.2402 77.7676 31.1502 82.0776 31.2402 82.9876C31.3246 84.1086 31.0286 85.2254 30.4002 86.1576C30.2665 86.3351 30.1462 86.5222 30.0402 86.7176C31.7736 88.1488 33.6158 89.4427 35.5502 90.5876L35.9702 90.2876C36.4702 89.9376 35.3102 89.7576 35.3102 89.4076C35.3102 89.0576 35.5902 89.1876 36.5602 89.4076C37.5302 89.6276 37.6903 88.7476 38.0703 88.2176C38.4503 87.6876 39.9503 87.5276 40.5703 87.0876C41.3452 86.3348 42.1596 85.6238 43.0102 84.9576C43.9502 84.4276 44.0102 83.4276 45.0802 82.1776C46.1502 80.9276 45.4602 80.7676 46.0802 79.5476C46.7002 78.3276 49.0802 77.8576 50.0802 77.5476C51.0802 77.2376 51.2102 76.0176 51.4302 75.3576C51.6502 74.6976 52.4302 74.7676 52.1102 74.5476C51.7902 74.3276 51.7702 73.3276 51.7702 72.2876C51.7702 71.2476 52.9302 70.5376 53.8702 69.4776C54.207 69.1488 54.4089 68.7063 54.4366 68.2366C54.4644 67.7668 54.3159 67.3036 54.0202 66.9376C53.6702 66.1876 53.4502 66.7176 52.6702 66.1176ZM25.8802 24.9576C25.9802 25.0876 26.4602 24.8176 26.4702 24.5576C26.4802 24.2976 26.1502 24.3776 25.9702 24.4676C25.7902 24.5576 25.7002 24.6976 25.7702 24.7976C25.8402 24.8976 25.7902 24.8476 25.8802 24.9576ZM26.1602 28.1376C26.0002 28.1376 25.9702 28.3676 26.0002 28.4876C26.0302 28.6076 26.2902 28.3776 26.5402 28.3776C26.8727 28.3441 27.2077 28.3441 27.5402 28.3776C27.6302 28.4576 27.9202 28.1376 27.6102 28.0976C27.3002 28.0576 26.8702 28.3476 26.7602 28.1976C26.6502 28.0476 26.5402 27.9076 26.4202 27.9776C26.3002 28.0476 26.4102 28.1176 26.1602 28.1176V28.1376ZM27.4902 23.2276C28.8043 23.1805 30.1115 23.4372 31.3102 23.9776C32.4646 24.4156 33.678 24.6785 34.9102 24.7576C34.2727 24.3139 33.6043 23.9162 32.9102 23.5676C33.7539 23.795 34.6128 23.9621 35.4802 24.0676C36.1002 24.0676 36.0103 23.5076 35.5703 23.2576C35.1303 23.0076 33.5702 22.3176 34.1002 22.0376C34.6302 21.7576 35.4102 22.6276 36.1002 22.8176C36.7902 23.0076 37.6102 22.0376 37.6402 21.8176C37.6702 21.5976 36.1302 21.1876 34.9702 20.7576C34.6107 20.631 34.2732 20.4488 33.9702 20.2176C33.7902 20.0776 34.1802 19.8876 33.9702 19.7276C33.7602 19.5676 33.0402 19.4076 32.7602 19.2176C32.2735 18.9725 31.7601 18.7846 31.2302 18.6576C29.9978 19.598 28.813 20.5992 27.6802 21.6576C27.7424 21.738 27.7774 21.836 27.7802 21.9376C27.7902 22.3476 26.4302 23.3476 27.4902 23.2276ZM81.9102 37.7576C81.7755 37.7957 81.6386 37.8257 81.5002 37.8476C81.1602 37.9076 81.2202 37.6876 81.1602 37.9076C81.1002 38.1276 81.3502 38.3176 81.3502 38.5976C81.3502 38.8776 81.1602 39.1676 81.3502 39.1676C81.5958 39.1915 81.8415 39.1239 82.0402 38.9776C82.1614 38.6034 82.1923 38.2059 82.1302 37.8176C82.107 37.6508 82.0297 37.4962 81.9102 37.3776C81.9102 37.1876 82.3802 36.9076 82.0102 36.8776C81.6402 36.8476 81.4702 36.9676 81.4702 37.0676C81.5242 37.2138 81.5983 37.3518 81.6902 37.4776H81.8802C81.8802 37.4776 82.3202 37.6576 81.9102 37.7576ZM92.7102 41.2976C92.6502 41.1376 91.9002 41.0076 91.7702 41.0476C91.6402 41.0876 90.8702 41.3576 90.8702 41.3576C91.236 41.3324 91.6035 41.3627 91.9602 41.4476C92.3102 41.5776 92.7902 41.4476 92.7102 41.2976ZM97.3802 41.5076C97.3802 41.5076 97.7202 41.2276 97.6302 41.2276C97.5403 41.2276 97.1002 41.2976 96.9102 41.2976C96.7473 41.3267 96.5953 41.3993 96.4702 41.5076L96.2802 41.6976C96.5137 41.8084 96.773 41.8533 97.0302 41.8276C97.1602 41.7976 97.3802 41.5076 97.3802 41.5076ZM69.7902 30.6176C69.6302 30.7676 69.3502 30.6176 69.5302 31.0276C69.7102 31.4376 70.8802 31.0276 71.3502 30.9576C71.8202 30.8876 72.3502 30.6476 72.3502 30.3976C72.3502 30.1476 72.3502 29.7376 72.4502 29.6476C72.4902 29.5223 72.4839 29.3868 72.4326 29.2657C72.3812 29.1446 72.2881 29.0459 72.1702 28.9876C71.6846 28.864 71.1758 28.864 70.6902 28.9876C70.5102 29.1476 70.4102 29.4276 70.1302 29.3976C69.8503 29.3676 69.1302 29.5176 69.3802 29.9276C69.6302 30.3376 69.9802 30.4576 69.7902 30.6176ZM61.9702 19.5676C61.3855 19.4709 60.7913 19.444 60.2002 19.4876C59.5502 19.5776 58.8602 19.7676 58.7002 19.6276C58.5402 19.4876 59.1702 19.4176 59.3102 19.3576C59.4502 19.2976 60.1702 19.0776 59.8302 19.0576C59.4902 19.0376 58.5802 19.1076 58.8302 18.9976C59.0802 18.8876 60.0602 18.8076 59.7502 18.8076C59.4402 18.8076 57.9802 18.6276 58.6902 18.6076C59.38 18.5952 60.0637 18.7387 60.6902 19.0276C60.9797 19.2455 61.3283 19.371 61.6902 19.3876C62.1302 19.3876 62.3202 19.4876 62.3302 19.2376C62.3402 18.9876 62.5202 18.8776 62.2102 18.7676C61.9002 18.6576 61.4702 18.5476 61.2102 18.4676C60.8604 18.3847 60.5238 18.2534 60.2102 18.0776C60.2102 18.0176 58.5602 18.0276 59.2702 17.8276C59.9802 17.6276 60.5703 17.6176 60.8203 17.8276C60.9645 17.9691 61.1406 18.0739 61.3337 18.133C61.5269 18.1922 61.7315 18.204 61.9302 18.1676C62.2902 18.0476 62.2902 17.9376 61.9302 17.8076C61.5702 17.6776 60.7702 17.7476 60.5002 17.4976C60.2302 17.2476 60.5002 17.1876 60.5002 17.1876L62.1402 17.4076C62.3631 17.3973 62.5843 17.3638 62.8002 17.3076C62.8002 17.3076 62.6102 17.1376 62.8002 16.9676C62.9902 16.7976 62.6602 16.6476 62.4902 16.4376C62.3202 16.2276 62.9702 16.4376 63.1802 16.5076C63.3902 16.5776 63.9502 16.8076 63.8002 16.4176C63.6845 16.1442 63.5258 15.891 63.3302 15.6676C63.2102 15.4676 63.1302 15.3076 63.3302 15.3076C63.5302 15.3076 64.4302 16.1376 64.4302 15.9476C64.4302 15.7576 64.4302 15.4276 64.4302 15.3376C64.4302 15.2476 64.3202 15.2476 63.9402 15.0676C63.5602 14.8876 64.1002 14.9276 64.1002 14.6476C64.1002 14.3676 63.8302 14.0576 64.0202 13.8176C64.2102 13.5776 64.4902 13.6176 64.7702 13.5176C65.1232 13.3211 65.4995 13.1699 65.8902 13.0676C66.3402 13.0676 66.4302 12.9276 67.3702 12.7576C68.3102 12.5876 69.5302 12.6476 68.6102 12.5176C67.7302 12.4217 66.8455 12.375 65.9602 12.3776C65.3576 12.3345 64.7528 12.3345 64.1502 12.3776C63.8202 12.4776 63.9302 12.7076 63.3802 12.5076C62.8302 12.3076 63.3802 12.1776 62.6302 12.1776C61.8802 12.1776 60.5002 12.8376 60.5202 12.5576C60.5402 12.2776 62.0002 12.1276 62.4302 12.0376C62.8602 11.9476 63.7903 11.7676 63.3203 11.7676C62.8503 11.7676 62.1102 11.6476 61.4902 11.6476C60.8702 11.6476 59.7002 11.7576 59.6902 11.6476C59.6802 11.5376 60.0002 11.3176 59.5002 11.3176C59.0002 11.3176 58.2502 10.9876 57.6702 11.3176C57.0902 11.6476 55.6702 11.2076 55.0502 11.2076C54.4302 11.2076 50.7802 11.4576 49.8702 11.4576C48.9602 11.4576 47.9602 11.4576 47.3502 11.5176C46.7402 11.5776 45.3502 11.7376 46.1102 11.8076C46.8702 11.8776 48.1103 11.8976 47.8203 12.0576C47.5303 12.2176 46.4902 12.2376 46.5402 12.3076C46.5902 12.3776 47.8702 12.4276 47.4602 12.5276C47.0502 12.6276 46.2203 12.7576 45.8203 12.4176C45.4203 12.0776 45.2402 11.7876 44.9102 11.7876H44.5102L43.6902 12.0676C43.8802 12.2176 44.1402 12.3776 43.9202 12.3776C43.6754 12.3809 43.4328 12.3296 43.2102 12.2276C40.4923 13.1823 37.8761 14.405 35.4002 15.8776C36.1502 15.8776 36.7802 15.8776 37.4002 15.9276C37.9078 15.9337 38.4123 16.0077 38.9002 16.1476C39.2866 16.2638 39.6329 16.4854 39.9002 16.7876C40.0202 17.0376 41.0502 17.9176 41.1002 18.2276C41.1502 18.5376 40.9602 18.8076 41.6502 18.8076C42.3402 18.8076 42.9202 18.6076 43.1702 18.6176C43.4202 18.6276 43.9702 18.7776 43.9802 18.9976C43.9902 19.2176 44.3302 19.6076 43.9802 19.4976C43.4375 19.3439 42.8739 19.2764 42.3102 19.2976C42.0402 19.3676 41.8503 19.4976 41.8203 19.6876C41.7903 19.8776 41.8202 20.2276 42.3702 20.1576C42.9202 20.0876 42.9002 19.7976 43.4602 19.7976C44.0202 19.7976 44.2002 19.7976 44.2802 19.9676C44.3602 20.1376 44.9202 20.1676 44.2802 20.3776C43.8786 20.5158 43.4545 20.5769 43.0302 20.5576C42.7002 20.5576 42.4202 20.7476 42.4202 20.8476C42.4202 20.9476 42.4202 21.2776 42.4202 21.5676C42.4202 21.8576 42.2002 22.1276 42.3702 22.2976C42.5402 22.4676 42.9202 22.5676 43.0902 22.8776C43.2602 23.1876 43.2802 23.0476 43.3102 23.2976C43.3402 23.5476 43.2002 23.5676 43.5302 23.7076C43.8602 23.8476 43.9402 23.4776 44.1202 24.0376C44.3002 24.5976 45.0302 24.7376 45.1202 24.8976C45.2102 25.0576 45.0502 25.2876 45.6602 25.3376C46.2139 25.2926 46.7706 25.3711 47.2902 25.5676C47.6702 25.8376 48.2202 26.2276 48.5902 26.1176C48.9602 26.0076 48.9202 25.7076 49.1902 25.2576C49.4602 24.8076 49.3302 24.3476 49.8002 24.1476C50.2702 23.9476 50.5303 24.2676 50.6302 23.6276C50.7302 22.9876 50.0202 23.0476 50.8902 22.8176C51.7602 22.5876 50.9602 22.7076 51.8902 22.4976C52.8202 22.2876 53.5602 22.3576 53.6902 22.1576C54.268 21.6461 54.9506 21.2673 55.6902 21.0476C56.4602 20.8776 56.7702 20.9976 57.4102 20.8576C58.157 20.654 58.915 20.4937 59.6802 20.3776C60.2135 20.2677 60.7408 20.1309 61.2602 19.9676C61.4097 19.9747 61.5583 19.9413 61.6903 19.8709C61.8223 19.8005 61.9328 19.6957 62.0102 19.5676H61.9702ZM67.4702 22.6276C67.4702 22.1576 67.3402 21.6276 66.0602 21.8476C65.2576 22.0804 64.4259 22.1982 63.5902 22.1976C62.8702 22.0976 61.7102 21.5376 60.9602 22.1976C60.4002 22.6776 62.2702 23.6376 63.5902 23.7576C64.9102 23.8776 67.4802 23.1176 67.5102 22.6276H67.4702ZM100.68 53.5576C100.43 52.9676 99.3902 51.5576 99.3902 50.7576C99.3902 49.9576 98.1302 48.6276 97.9202 47.9176C97.7102 47.2076 97.0902 46.2876 97.7602 46.0876C98.4302 45.8876 100.05 48.4176 100.43 49.2176C100.55 49.4776 100.82 49.9776 101.12 50.5676C100.85 46.0002 99.8573 41.5045 98.1802 37.2476C98.0738 37.2377 97.9667 37.2377 97.8602 37.2476C97.0879 37.3246 96.3285 37.4993 95.6002 37.7676C94.8002 38.0176 94.0002 37.9476 93.7902 37.5976C93.6091 37.3452 93.4893 37.0542 93.4402 36.7476C93.5402 36.3376 93.9402 36.1676 94.0202 35.9476C94.3765 35.4863 94.8596 35.1388 95.4102 34.9476C95.9602 34.7876 96.9802 35.1776 97.0402 35.4776C97.1002 35.7776 97.2502 35.6676 97.4802 35.5976C95.9904 32.2105 94.0786 29.0253 91.7902 26.1176C91.0963 26.1811 90.4191 26.3674 89.7902 26.6676C89.6209 26.8945 89.4985 27.1528 89.4302 27.4276C89.3202 27.6876 88.9702 27.9576 88.9402 28.2076C88.9102 28.4576 89.1002 28.3476 89.1802 28.5476C89.2602 28.7476 88.3802 29.2276 88.1802 29.3976C87.9802 29.5676 87.6802 29.0876 87.1802 29.0376C86.6802 28.9876 86.2902 29.0376 86.1802 29.2076C86.0702 29.3776 85.7103 29.4076 85.3203 29.2876C84.9303 29.1676 85.3902 29.0876 85.5302 28.9876C85.6702 28.8876 85.3802 28.8476 84.9602 29.0876C84.5402 29.3276 84.1702 29.0876 84.2502 28.9076C84.4102 28.5676 84.8902 28.9076 85.2502 28.5776C85.6102 28.2476 86.0702 28.4876 86.5502 28.2376C87.0302 27.9876 86.6802 27.5476 86.6902 27.2376C86.7002 26.9276 87.5902 26.7476 87.8002 26.5176C88.377 26.2401 89.0102 26.0997 89.6502 26.1076C89.9602 26.1076 90.8102 26.0176 91.6502 25.9176C91.0202 25.1276 90.3602 24.3576 89.6502 23.6176C89.3802 23.6176 89.1702 23.6176 89.0502 23.7476C88.9302 23.8776 88.7802 24.1676 89.0502 24.3276C89.3202 24.4876 89.4902 24.7476 89.3002 24.9776C89.1738 25.148 89.0072 25.2847 88.8154 25.3754C88.6235 25.4661 88.4122 25.5081 88.2002 25.4976C87.9289 25.5036 87.6576 25.4835 87.3902 25.4376H87.3302C87.2634 25.4089 87.2033 25.3666 87.1539 25.3133C87.1044 25.26 87.0667 25.1969 87.0431 25.1281C87.0195 25.0593 87.0107 24.9863 87.0171 24.9139C87.0235 24.8415 87.045 24.7712 87.0802 24.7076C87.243 24.3872 87.5115 24.1329 87.8402 23.9876C88.1609 23.8599 88.4972 23.7758 88.8402 23.7376C89.0802 23.7376 89.3702 23.6376 89.4202 23.4576V23.3976C88.3397 22.247 87.1981 21.1554 86.0002 20.1276H85.7102C85.1802 20.2576 84.9602 20.5376 85.1802 20.5976C85.4002 20.6576 85.0202 21.0376 84.8702 21.1676C84.5445 21.328 84.2107 21.4715 83.8702 21.5976C83.6802 21.6976 83.4602 22.2276 83.3302 22.4476C83.2002 22.6676 82.8002 22.9676 82.4702 23.3776H82.3902C81.3902 23.7576 79.1402 23.8776 79.2202 25.3776C79.2258 25.6157 79.2869 25.8493 79.3987 26.0596C79.5105 26.27 79.6698 26.4513 79.8641 26.5892C80.0583 26.7271 80.282 26.8178 80.5175 26.8539C80.7529 26.8901 80.9935 26.8708 81.2202 26.7976C81.8128 26.6653 82.3972 26.4984 82.9702 26.2976L83.8502 28.1376C83.8502 28.1376 82.1302 26.9276 81.0502 27.7576C79.9702 28.5876 81.0502 29.6776 81.0502 29.6776C80.0715 29.9304 79.0592 30.0283 78.0502 29.9676C77.4202 29.7176 78.5502 28.7576 78.5502 28.7576C78.5502 28.7576 77.0102 28.6776 76.9202 28.9676C76.8302 29.2576 77.6702 29.4676 77.6702 29.4676C77.4798 29.5723 77.2674 29.6305 77.0502 29.6376C76.7102 29.6376 75.2902 29.2676 75.2102 28.9676C75.1302 28.6676 74.3302 28.3276 74.3302 28.3276C74.3302 28.3276 74.8102 27.7376 74.9002 27.5976C74.9902 27.4576 75.1102 27.3676 74.9802 27.2976C74.8502 27.2276 73.7702 27.2976 73.7702 27.1776C73.7702 27.0576 74.2902 26.7976 74.2102 26.6776C73.7506 26.571 73.2696 26.6059 72.8302 26.7776C72.7502 26.9276 72.5002 27.3676 72.3502 27.4276C72.2002 27.4876 72.0002 27.1976 71.7902 27.3676C71.5802 27.5376 72.1002 27.7976 72.1202 27.9276C72.1402 28.0576 72.1202 28.4676 72.2102 28.5276C72.3002 28.5876 73.1002 28.4076 73.0802 28.6376C73.0602 28.8676 72.8302 29.0976 73.0802 29.3276C73.3302 29.5576 73.9602 29.6376 73.8702 29.7876C73.7802 29.9376 73.1402 30.0776 73.1002 30.3676C73.0395 30.5999 72.9267 30.8154 72.7702 30.9976L73.5002 31.2676C73.5002 31.2676 72.2702 31.8676 72.5002 31.9976C73.1363 32.0189 73.7729 31.9753 74.4002 31.8676C74.7302 31.8676 76.5702 31.8676 76.8402 31.5576C77.1102 31.2476 77.4202 30.0376 77.8402 30.3276C78.2602 30.6176 76.9603 32.0176 76.0703 32.2076C75.1803 32.3976 74.5402 32.3476 74.4402 32.3976C74.3402 32.4476 74.8102 32.7276 74.3602 32.7876C73.8505 32.8334 73.3529 32.9688 72.8902 33.1876C72.8102 33.3376 74.9603 33.7676 75.1302 34.7076C75.3002 35.6476 75.3802 36.2776 74.6102 36.2376L71.3302 36.0876C70.9302 36.0876 70.4502 36.0876 70.4102 36.3776C70.3702 36.6676 70.7202 37.2776 70.6202 37.7376C70.4563 38.1764 70.3161 38.6237 70.2002 39.0776C70.2002 39.2776 70.5802 39.2376 70.5402 39.6376C70.5002 40.0376 70.4502 40.3076 70.4502 40.3076L71.1002 40.2376C71.4702 40.2376 71.9102 40.2376 72.1002 40.5376C72.2902 40.8376 72.5402 40.8276 72.8502 40.6576C73.1602 40.4876 74.2302 40.5976 74.6202 40.3476C74.934 40.1497 75.2696 39.9886 75.6202 39.8676C75.8722 39.6856 76.0722 39.4408 76.2002 39.1576C76.2002 38.9876 75.8202 38.6976 76.3002 38.2376C76.7802 37.7776 78.1602 37.3576 78.1402 37.1076C78.1202 36.8576 77.7902 36.4676 78.4502 36.2176C79.1102 35.9676 80.0802 36.5476 80.2102 36.4476C80.3402 36.3476 80.9603 36.0876 81.1302 35.9376C81.1971 35.8386 81.2872 35.7575 81.3926 35.7014C81.4981 35.6454 81.6158 35.6161 81.7352 35.6161C81.8547 35.6161 81.9723 35.6454 82.0778 35.7014C82.1832 35.7575 82.2734 35.8386 82.3402 35.9376C82.9202 36.6076 83.4402 37.4476 84.1702 37.6076C84.9002 37.7676 85.2402 37.7776 85.4502 38.0676C85.6602 38.3576 85.8702 38.3176 85.9902 38.4876C86.1102 38.6576 86.3002 38.9476 86.2202 39.0776C86.1402 39.2076 86.1602 39.3676 85.8902 39.4676C85.3749 39.5137 84.8576 39.5337 84.3402 39.5276C84.0102 39.5976 83.8402 39.6376 83.9202 39.7576C84.0002 39.8776 84.7402 40.0976 85.0302 40.2876C85.2 40.3944 85.3912 40.4627 85.5902 40.4876L85.7002 40.2176C85.7002 40.2176 85.5102 39.9476 85.6102 39.8476C85.7102 39.7476 85.9502 39.5776 86.0902 39.6376C86.2302 39.6976 86.4702 39.4076 86.4702 39.3476C86.4702 39.2876 86.6802 39.0976 86.7802 39.0776C86.8802 39.0576 87.0502 38.8676 86.8902 38.7576C86.7302 38.6476 86.5403 38.6076 86.5703 38.4076C86.6003 38.2076 86.6602 38.0176 86.9202 38.1276C87.1186 38.1921 87.2974 38.3056 87.4402 38.4576C87.5002 38.5476 87.7402 38.4576 87.6902 38.2876C87.652 38.1818 87.5882 38.0871 87.5044 38.0121C87.4206 37.9371 87.3195 37.884 87.2102 37.8576C86.8999 37.8034 86.6118 37.6611 86.3802 37.4476C86.3203 37.3076 86.5502 37.1576 86.1202 37.1576C85.8917 37.1544 85.6674 37.0954 85.4669 36.9855C85.2665 36.8757 85.0959 36.7185 84.9702 36.5276C84.9418 36.417 84.8895 36.314 84.8169 36.2259C84.7443 36.1378 84.6533 36.0667 84.5502 36.0176C84.3102 35.8576 83.9602 35.4976 84.2202 35.2376C84.4802 34.9776 84.8802 35.3676 85.3502 35.7176C85.93 36.0476 86.5314 36.3383 87.1502 36.5876C87.4102 36.7476 88.3102 37.1376 88.3102 37.3176C88.3102 37.4976 88.0202 38.0276 88.2302 38.1776C88.5629 38.4035 88.8482 38.6923 89.0703 39.0276C89.1595 39.218 89.3064 39.3755 89.4902 39.4776C89.5602 39.4776 89.2602 39.6376 89.4002 39.7776C89.5402 39.9176 89.7002 39.8276 89.6702 40.0876C89.6402 40.3476 89.6702 40.3176 89.9302 40.3476C90.153 40.3834 90.3668 40.4615 90.5602 40.5776C90.5602 40.5776 90.3402 39.9476 90.4702 39.9476C90.6002 39.9476 90.4702 39.6276 90.6202 39.5976C90.7702 39.5676 91.1802 39.9376 91.2402 39.8076C91.3002 39.6776 91.4002 39.4476 91.2402 39.3376C91.051 39.1704 90.8738 38.9899 90.7102 38.7976C90.6002 38.6976 90.2702 38.3176 90.3802 38.1676C90.4902 38.0176 90.7502 38.3776 91.0202 38.2776C91.2902 38.1776 91.2702 37.8576 91.4302 37.8576C91.5902 37.8576 91.6602 37.8576 92.0202 37.8576C92.2674 37.868 92.5081 37.9402 92.7202 38.0676C92.7202 38.0676 92.4502 38.4076 92.5102 38.6376C92.5702 38.8676 92.8502 38.6976 92.8902 39.0676C92.9302 39.4376 92.8902 39.5276 92.9802 39.6376C93.1333 39.7654 93.2504 39.9308 93.3203 40.1176C93.3203 40.2676 93.4902 40.3376 93.6902 40.3376C93.8902 40.3376 94.2202 40.3376 94.3102 40.5076C94.3544 40.6115 94.4337 40.6965 94.5342 40.7477C94.6348 40.7989 94.7503 40.813 94.8602 40.7876C95.1502 40.7876 95.1502 40.3776 95.3502 40.3676C95.7081 40.4101 96.0508 40.5369 96.3502 40.7376C96.5187 40.8123 96.7009 40.8508 96.8852 40.8508C97.0695 40.8508 97.2518 40.8123 97.4202 40.7376C97.5902 40.6276 97.7002 40.3476 97.9302 40.4176C98.0325 40.4631 98.1433 40.4866 98.2552 40.4866C98.3672 40.4866 98.4779 40.4631 98.5802 40.4176C98.7002 40.3276 98.8402 40.3176 98.7802 40.4176C98.7202 40.5176 98.5302 40.6176 98.5502 40.7976C98.5702 40.9776 98.5502 41.0376 98.5502 41.2176C98.6025 41.5109 98.5455 41.8133 98.3902 42.0676C98.1802 42.4176 97.9802 43.6576 97.4602 43.7376C96.9402 43.8176 96.4002 43.2476 95.7002 43.4376C95.0002 43.6276 94.8302 44.0276 94.2902 43.9776C93.7502 43.9276 92.2902 43.5376 92.1102 43.5976C92.035 43.6104 91.9578 43.595 91.8932 43.5544C91.8286 43.5138 91.7812 43.4509 91.7602 43.3776C91.7602 43.2976 91.0602 43.3776 90.7602 43.1676C90.4602 42.9576 89.7102 42.4076 89.0202 42.9276C88.3302 43.4476 88.5602 43.5976 88.5802 43.8176C88.6002 44.0376 88.4803 44.5576 88.0703 44.3776C87.5914 44.0916 87.0722 43.8793 86.5302 43.7476C86.3632 43.7419 86.2017 43.6865 86.0663 43.5885C85.9309 43.4906 85.8278 43.3544 85.7702 43.1976C85.6502 42.9176 84.8602 42.6776 84.4902 42.7276C84.3218 42.7837 84.1419 42.7966 83.9672 42.7652C83.7925 42.7337 83.6285 42.6589 83.4902 42.5476C83.1302 42.2576 82.7302 41.9676 82.7802 41.8476C82.8302 41.7276 83.5502 41.7976 83.5802 41.5776C83.6102 41.3576 83.2202 41.4376 83.1102 41.2476C83.0002 41.0576 82.9402 41.0676 82.8302 40.9476C82.7202 40.8276 82.6402 40.7076 82.8302 40.5876C83.0202 40.4676 83.1203 40.2776 83.0703 40.2276C83.0202 40.1776 82.7102 40.4176 82.6202 40.2876C82.5726 40.1978 82.4972 40.1259 82.4052 40.0826C82.3133 40.0394 82.2098 40.0271 82.1102 40.0476C81.8202 40.0476 81.5102 40.3476 81.1102 40.2276C80.8182 40.1531 80.5122 40.1531 80.2202 40.2276C79.8702 40.2276 79.8002 40.4676 79.5602 40.4676C79.0122 40.3734 78.4543 40.3499 77.9002 40.3976C77.0459 40.5534 76.211 40.8015 75.4102 41.1376C75.283 41.2677 75.1189 41.3557 74.9401 41.3896C74.7613 41.4236 74.5763 41.402 74.4102 41.3276C73.9702 41.1576 73.3502 41.5176 73.1902 41.3276C73.0302 41.1376 72.7102 40.9076 72.7102 40.9076L72.2902 41.0876C72.0484 41.6701 71.6046 42.1459 71.0402 42.4276C70.7062 42.5793 70.4245 42.8263 70.2306 43.1377C70.0366 43.4491 69.9391 43.8109 69.9502 44.1776C69.8878 44.5541 69.7219 44.906 69.4712 45.1938C69.2205 45.4816 68.8947 45.6941 68.5302 45.8076C67.5302 46.1776 67.2002 47.5576 66.6502 47.8976C66.1002 48.2376 64.7702 50.0276 65.2302 50.7376C65.5241 51.1331 65.7099 51.5984 65.7695 52.0876C65.8291 52.5767 65.7605 53.073 65.5703 53.5276C65.1103 54.7776 64.7302 56.4476 67.4902 58.4176C68.6659 59.3224 69.921 60.119 71.2402 60.7976C71.2402 60.7976 72.7902 59.7976 73.8702 60.2076C74.9502 60.6176 76.6302 59.7076 77.4702 59.5376C77.8768 59.5262 78.2799 59.6162 78.643 59.7995C79.0061 59.9828 79.3179 60.2536 79.5502 60.5876C79.8002 61.0076 82.0602 59.5876 81.8902 61.5076C81.7202 63.4276 81.3502 63.7976 81.6002 64.2976C81.8502 64.7976 82.9802 65.9676 83.6002 67.0976C84.2202 68.2276 84.5202 68.8976 84.2702 69.1876C84.0202 69.4776 84.8102 69.9376 84.6002 70.6076C84.3902 71.2776 83.1402 71.8976 83.4802 73.8176C83.8202 75.7376 84.9002 76.3276 85.1902 77.8676C85.4802 79.4076 85.1902 79.9576 86.1902 81.2076C87.1902 82.4576 87.7002 83.2076 87.6502 83.8376C87.6194 84.0933 87.6194 84.3518 87.6502 84.6076C91.8148 80.6743 95.1584 75.9546 97.4877 70.7211C99.8169 65.4877 101.086 59.8444 101.22 54.1176C101.012 53.9721 100.841 53.7804 100.72 53.5576H100.68Z" fill="url(#paint3_radial_414_1809)"/>
<path style="mix-blend-mode:color-dodge" opacity="0.6" d="M74.5745 43.6976C77.3612 26.3574 65.5634 10.0413 48.2232 7.25452C30.8831 4.46776 14.567 16.2657 11.7802 33.6058C8.99348 50.946 20.7913 67.262 38.1315 70.0488C55.4716 72.8355 71.7877 61.0377 74.5745 43.6976Z" fill="url(#paint4_radial_414_1809)"/>
<path d="M0 42.7381V31.9281C0 28.4181 2.13997 26.7981 4.77997 28.3181L42.2 49.7281C44.83 51.2481 46.98 55.3581 46.98 58.8581V69.6681C46.98 73.1681 44.83 74.7881 42.2 73.2781L4.78998 51.8681C2.13998 50.3381 0 46.2581 0 42.7381Z" fill="#0C0C27"/>
<path d="M6.61035 33.3975L8.74036 34.6275L9.74036 47.6275L10.7404 35.7975L13.1503 37.1975L14.1503 50.1975L15.1503 38.3375L17.0604 39.4475L15.7903 54.8775L13.0303 53.2775L12.0303 41.7975L11.0303 52.1275L8.09033 50.4275L6.61035 33.3975Z" fill="white"/>
<path d="M17.9199 39.9375L20.0599 41.1675L21.0599 54.1675L22.1099 42.3375L24.5299 43.7375L25.5299 56.7375L26.5299 44.8775L28.4399 45.9775L27.0099 61.3275L24.2599 59.7375L23.2599 48.2475L22.2599 58.5675L19.3199 56.8675L17.9199 39.9375Z" fill="white"/>
<path d="M29.2402 46.4678L31.3702 47.6978L32.3702 60.6978L33.3702 48.8778L35.7802 50.2678L36.7802 63.2678L37.7802 51.4078L39.6902 52.5078L38.2602 67.8578L35.5002 66.2678L34.5002 54.7778L33.5002 65.0978L30.5602 63.3978L29.2402 46.4678Z" fill="white"/>
<path style="mix-blend-mode:color-dodge" d="M42.2 49.7284L4.78998 28.3184C4.31498 27.9768 3.75045 27.7815 3.16589 27.7566C2.58134 27.7317 2.0023 27.8783 1.5 28.1784C1.94919 28.064 2.41746 28.0459 2.87415 28.1252C3.33083 28.2045 3.76558 28.3794 4.14996 28.6384L41.58 50.0484C44.21 51.5684 46.36 55.6784 46.36 59.1784V69.9784C46.4292 70.6779 46.3291 71.3839 46.068 72.0366C45.8069 72.6893 45.3926 73.2696 44.86 73.7284C46.14 73.3184 46.99 71.8684 46.99 69.6684V58.8584C46.98 55.3584 44.79 51.2484 42.2 49.7284Z" fill="#0C0C27"/>
<defs>
<radialGradient id="paint0_radial_414_1809" cx="0" cy="0" r="1" gradientUnits="userSpaceOnUse" gradientTransform="translate(59.6908 80.5063) scale(38.8448 21.0144)">
<stop offset="0.19" stop-color="#AFB6E5"/>
<stop offset="1" stop-color="white"/>
</radialGradient>
<radialGradient id="paint1_radial_414_1809" cx="0" cy="0" r="1" gradientUnits="userSpaceOnUse" gradientTransform="translate(44.2355 42.1754) scale(62.53)">
<stop offset="0.14" stop-color="#66CCFF"/>
<stop offset="0.7" stop-color="#5277F7"/>
<stop offset="0.8" stop-color="#5079F5"/>
<stop offset="0.86" stop-color="#4781F0"/>
<stop offset="0.91" stop-color="#398FE8"/>
<stop offset="0.95" stop-color="#25A3DC"/>
<stop offset="0.99" stop-color="#0BBCCC"/>
<stop offset="1" stop-color="#00C7C5"/>
</radialGradient>
<radialGradient id="paint2_radial_414_1809" cx="0" cy="0" r="1" gradientUnits="userSpaceOnUse" gradientTransform="translate(104.24 79.4576) scale(51.35 51.35)">
<stop stop-color="#AFB6E5"/>
<stop offset="0.07" stop-color="#8D92B8"/>
<stop offset="0.14" stop-color="#6C708D"/>
<stop offset="0.22" stop-color="#4F5267"/>
<stop offset="0.31" stop-color="#363947"/>
<stop offset="0.4" stop-color="#22242D"/>
<stop offset="0.5" stop-color="#131419"/>
<stop offset="0.62" stop-color="#08090B"/>
<stop offset="0.76" stop-color="#020202"/>
<stop offset="1"/>
</radialGradient>
<radialGradient id="paint3_radial_414_1809" cx="0" cy="0" r="1" gradientUnits="userSpaceOnUse" gradientTransform="translate(45.1402 45.5976) scale(58.86 58.86)">
<stop offset="0.14" stop-color="#E5E9FF"/>
<stop offset="0.7" stop-color="#AFB6E5"/>
<stop offset="0.84" stop-color="#B1B8E6"/>
<stop offset="0.92" stop-color="#BAC0EA"/>
<stop offset="0.98" stop-color="#C8CDF1"/>
<stop offset="1" stop-color="#CED3F4"/>
</radialGradient>
<radialGradient id="paint4_radial_414_1809" cx="0" cy="0" r="1" gradientUnits="userSpaceOnUse" gradientTransform="translate(44.2219 39.6368) scale(23.25 23.25)">
<stop offset="0.01" stop-color="#66CCFF"/>
<stop offset="0.02" stop-color="#62C4F5"/>
<stop offset="0.09" stop-color="#4E9BC2"/>
<stop offset="0.18" stop-color="#3B7694"/>
<stop offset="0.26" stop-color="#2B566C"/>
<stop offset="0.35" stop-color="#1E3C4A"/>
<stop offset="0.44" stop-color="#13262F"/>
<stop offset="0.54" stop-color="#0A151A"/>
<stop offset="0.66" stop-color="#05090B"/>
<stop offset="0.79" stop-color="#010203"/>
<stop offset="1"/>
</radialGradient>
</defs>
</svg>
